<svg width="133" height="79" viewBox="0 0 133 79" fill="none" xmlns="http://www.w3.org/2000/svg">
<rect x="59" y="14.3594" width="14" height="20" fill="#929191"/>
<circle cx="5" cy="5" r="5" transform="matrix(-1 0 0 1 71 5.35938)" fill="#EFE9C9"/>
<rect width="69" height="18" transform="matrix(-1 0 0 1 114 45.3594)" fill="#777777"/>
<path d="M127 63.3594H35V66.3594V71.3594V75.8594V78.3594H127V63.3594Z" fill="#535353"/>
<ellipse cx="8" cy="7.5" rx="8" ry="7.5" transform="matrix(-1 0 0 1 133 63.3594)" fill="#535353"/>
<ellipse cx="8" cy="7.5" rx="8" ry="7.5" transform="matrix(-1 0 0 1 44 63.3594)" fill="#535353"/>
<rect width="42" height="8" transform="matrix(-1 0 0 1 47 44.3594)" fill="#777777"/>
<ellipse cx="4.5" cy="4" rx="4.5" ry="4" transform="matrix(-1 0 0 1 9 44.3594)" fill="#333333"/>
<circle cx="5" cy="5" r="5" transform="matrix(-1 0 0 1 131 65.3594)" fill="#434343"/>
<circle cx="5" cy="5" r="5" transform="matrix(-1 0 0 1 118 65.3594)" fill="#434343"/>
<circle cx="5" cy="5" r="5" transform="matrix(-1 0 0 1 105 65.3594)" fill="#434343"/>
<circle cx="5" cy="5" r="5" transform="matrix(-1 0 0 1 92 65.3594)" fill="#434343"/>
<circle cx="5" cy="5" r="5" transform="matrix(-1 0 0 1 79 65.3594)" fill="#434343"/>
<circle cx="5" cy="5" r="5" transform="matrix(-1 0 0 1 66 65.3594)" fill="#434343"/>
<circle cx="5" cy="5" r="5" transform="matrix(-1 0 0 1 53 65.3594)" fill="#434343"/>
<circle cx="5" cy="5" r="5" transform="matrix(-1 0 0 1 40 65.3594)" fill="#434343"/>
<path d="M49.5 38.3594L45.5 45.8594H114V32.8594H95.5L78.5 29.3594L59 32.8594L49.5 38.3594Z" fill="#777777"/>
<rect x="62" y="41.3594" width="3" height="15" fill="black"/>
<rect x="71" y="47.3594" width="3" height="15" transform="rotate(90 71 47.3594)" fill="black"/>
<rect x="56" y="45.3594" width="5" height="1" fill="black"/>
<rect x="60" y="41.3594" width="1" height="4" fill="black"/>
<rect x="66" y="45.3594" width="5" height="1" fill="black"/>
<rect x="66" y="41.3594" width="1" height="4" fill="black"/>
<rect x="66" y="51.3594" width="1" height="5" fill="black"/>
<rect x="67" y="51.3594" width="4" height="1" fill="black"/>
<rect x="56" y="51.3594" width="5" height="1" fill="black"/>
<rect x="60" y="52.3594" width="1" height="4" fill="black"/>
<rect x="61.5351" y="2.96875" width="11.3742" height="3" transform="rotate(16.5121 61.5351 2.96875)" fill="#767676"/>
<path d="M63.5 1.35938L63 3.35938L72 6.35938L74 4.35938L63 0.359375L63.5 1.35938Z" fill="#929191" stroke="#929191" stroke-width="0.4"/>
<rect x="44.1659" y="9.42529" width="18.193" height="3.4572" transform="rotate(15.5975 44.1659 9.42529)" fill="#929191"/>
<rect x="72.6438" y="14.4741" width="17.1705" height="3.4572" transform="rotate(61.5594 72.6438 14.4741)" fill="#929191"/>
<path d="M54.6562 15.9829L56.0232 12.6466L58.1815 13.2312L56.8145 16.5675L54.6562 15.9829Z" fill="#FF3F00" stroke="#FF3F00" stroke-width="0.5"/>
<path d="M46.5 13.8594L47.5 10.3594L44 9.35938L43 12.8594L46.5 13.8594Z" fill="#EFE9C9"/>
<path d="M79.5 26.8594L76 28.3594L78 31.3594L81 29.8594L79.5 26.8594Z" fill="#EFE9C9"/>
</svg>
