<svg width="48" height="83" viewBox="0 0 48 83" fill="none" xmlns="http://www.w3.org/2000/svg">
<rect width="3" height="15" transform="matrix(-1 0 0 1 11 23)" fill="#632323"/>
<rect width="20" height="1" transform="matrix(-1 0 0 1 23 30)" fill="#832222"/>
<rect width="1" height="31" transform="matrix(-1 0 0 1 19 15)" fill="white"/>
<line y1="-3" x2="28.5071" y2="-3" transform="matrix(-0.18778 -0.982211 -0.982211 0.18778 42 83)" stroke="#006810" stroke-width="6"/>
<line x1="24.7003" y1="82.4367" x2="30.0534" y2="54.4367" stroke="#006810" stroke-width="6"/>
<line y1="-2.5" x2="26.1725" y2="-2.5" transform="matrix(0.996624 -0.082101 -0.082101 -0.996624 14.3746 29.336)" stroke="#EFE9C9" stroke-width="5"/>
<line y1="-3" x2="9.89949" y2="-3" transform="matrix(0.992893 -0.11901 -0.11901 -0.992893 29.8847 27.6984)" stroke="#006810" stroke-width="6"/>
<rect width="16" height="31" transform="matrix(-1 0 0 1 43 26)" fill="#018016"/>
<circle cx="7.5" cy="7.5" r="7.5" transform="matrix(-1 0 0 1 42 12)" fill="#EFE9C9"/>
<rect width="14" height="3" transform="matrix(-0.707107 0.707107 0.707107 0.707107 17.8787 14)" fill="#632323"/>
<rect x="10.1005" y="35" width="14" height="3" transform="rotate(45 10.1005 35)" fill="#632323"/>
<path d="M1.09278e-07 30.5L3.75 32.6651L3.75 28.3349L1.09278e-07 30.5Z" fill="#AB9F9F"/>
<line y1="-2.5" x2="26.1725" y2="-2.5" transform="matrix(0.869261 -0.494354 -0.494354 -0.869261 17.2493 41.2296)" stroke="#EFE9C9" stroke-width="5"/>
<line y1="-3" x2="9.89949" y2="-3" transform="matrix(0.874593 -0.484858 -0.484858 -0.874593 31.342 32.7998)" stroke="#006810" stroke-width="6"/>
<path d="M34.5 0L25.4067 15.75H43.5933L34.5 0Z" fill="#006810"/>
</svg>
