<svg width="226" height="226" viewBox="0 0 226 226" fill="none" xmlns="http://www.w3.org/2000/svg">
<g clip-path="url(#clip0_33_1250)">
<rect width="226" height="226" fill="white"/>
<rect width="226" height="226" fill="#00D0FF"/>
<line x1="132.191" y1="175.405" x2="108.463" y2="150.359" stroke="#EFE9C9" stroke-width="5"/>
<line y1="-2.5" x2="34.5009" y2="-2.5" transform="matrix(0.466696 -0.884418 -0.884418 -0.466696 73.3679 179.153)" stroke="#EFE9C9" stroke-width="5"/>
<rect x="89.3679" y="149" width="21" height="41" fill="#EFE9C9"/>
<path d="M128.873 168.921L126.286 172.638L129.25 174.567L131.838 170.849L137.201 166.238L143.788 158.709L146.187 152.169L146.093 150.757L145.34 150.099L144.587 149.44L142.422 148.876L136.353 153.534L129.955 163.886L128.873 168.921Z" fill="#632323" stroke="#632323"/>
<circle cx="100.368" cy="140" r="10" fill="#EFE9C9"/>
<line y1="-2.5" x2="34.5676" y2="-2.5" transform="matrix(0.687744 -0.725953 -0.725953 -0.687744 19.8766 178.811)" stroke="#9F9F9F" stroke-width="5"/>
<line x1="78.4204" y1="185.456" x2="62.2879" y2="154.884" stroke="#9F9F9F" stroke-width="5"/>
<rect width="5.28304" height="9.24532" transform="matrix(-0.910852 0.412734 0.412734 0.910852 23.9853 170.467)" fill="#632323"/>
<rect width="10.5661" height="2.64152" transform="matrix(-0.910852 0.412734 0.412734 0.910852 25.301 166.97)" fill="#632323"/>
<rect width="5.28304" height="23.7737" transform="matrix(-0.910852 0.412734 0.412734 0.910852 13.0828 146.406)" fill="#EAEAEA"/>
<path d="M8.27074 148.587L13.0828 146.406L7.40604 140.278L8.27074 148.587Z" fill="#EAEAEA"/>
<line x1="198.203" y1="166.497" x2="164.725" y2="154.338" stroke="#0DA000" stroke-width="5"/>
<rect x="147" y="152" width="21" height="42" fill="#0DA000"/>
<path d="M199.056 164.147L196.929 170.538L192.363 169.019L194.491 162.627L199.056 164.147Z" fill="#0F9400" stroke="#0F9400" stroke-width="0.2"/>
<rect x="147" y="152" width="21" height="33" fill="#0E8C00"/>
<circle cx="158" cy="143" r="10" fill="#EFE9C9"/>
<path d="M148 141C149.993 130.325 165.993 130.341 168 141" stroke="#0E8C00" stroke-width="0.2"/>
<path d="M148 141H168" stroke="#0E8C00" stroke-width="0.2"/>
<path d="M156.452 138.768C157.645 138.76 159.653 138.715 159.773 138.651C159.894 138.585 159.976 138.427 160.031 138.213C160.092 137.974 160.012 137.772 159.923 137.655C159.709 137.374 158.945 137.215 157.915 137.051C156.684 136.855 156.01 137.3 155.143 137.741C154.395 138.121 154.085 138.14 152.557 139.035C151.941 139.395 151.315 139.602 151.056 139.671C150.773 139.745 151.62 139.21 152.389 138.826C152.88 138.58 153.958 138.607 155.172 138.59C156.193 138.576 156.989 139.012 157.79 139.269C158.033 139.347 158.361 139.336 158.893 139.314C159.528 139.287 160.41 139.082 161.462 138.899C162.447 138.727 163.31 138.884 164.045 139.006C164.804 139.132 165.289 139.05 165.421 138.988C165.483 138.958 165.507 138.878 165.485 138.815C165.435 138.667 165.15 138.539 164.399 138.176C163.816 137.894 162.795 137.472 162.007 137.195C161.219 136.918 160.688 136.814 160.116 136.65C158.934 136.311 158.249 136.024 157.977 136.007C157.497 135.977 157.073 136.04 156.58 136.242C155.57 136.654 154.888 137.086 154.645 137.3C153.833 138.014 153.508 138.281 153.222 138.48C153.148 138.531 153.065 138.572 153.059 138.606C153.053 138.64 153.124 138.66 154.048 138.712C154.971 138.764 156.746 138.847 157.737 138.906C158.729 138.966 158.885 139 159.575 139.05C160.265 139.1 161.485 139.166 162.318 139.239C164.128 139.398 164.719 139.704 165.3 139.887C165.655 139.999 165.923 140.014 165.998 139.99C166.021 139.983 165.891 139.92 165.189 139.772C164.488 139.624 163.188 139.376 162.02 139.258C160.851 139.141 159.854 139.16 159.194 139.215C158.233 139.294 157.646 139.567 157.094 139.76C156.281 140.044 155.487 139.94 154.617 139.871C154.351 139.856 154.004 139.856 153.709 139.851C153.415 139.846 153.185 139.837 152.869 139.804" stroke="#0E8C00" stroke-width="2" stroke-linecap="round"/>
<path d="M155 140.931C154.998 140.933 154.996 140.935 155.215 140.934C155.433 140.934 155.872 140.931 156.214 140.916C156.555 140.901 156.786 140.874 157.726 140.853C158.665 140.832 160.306 140.82 161.635 140.826C162.964 140.832 163.931 140.859 164.601 140.869C165.27 140.879 165.612 140.873 165.85 140.873C166.088 140.873 166.21 140.879 164.88 140.737C163.55 140.594 160.764 140.302 159.114 140.15C157.465 139.998 157.037 139.995 156.729 140.002C156.42 140.01 156.245 140.028 156.159 140.043C156.074 140.058 156.085 140.069 156.15 140.087C156.216 140.104 156.335 140.126 157.17 140.22C158.004 140.313 159.55 140.477 159.676 140.523C159.802 140.57 158.46 140.494 157.775 140.464C157.089 140.434 157.101 140.452 157.117 140.465C157.147 140.49 157.202 140.498 157.776 140.511C158.32 140.523 159.379 140.531 160.041 140.547C160.702 140.564 160.935 140.585 161.063 140.597C161.192 140.609 161.21 140.611 161.213 140.62C161.221 140.646 161.178 140.672 161.144 140.692C161.097 140.719 160.92 140.751 160.671 140.811C160.47 140.858 160.314 140.899 160.125 140.919C160.008 140.932 159.846 140.934 159.664 140.936C159.288 140.939 159.058 140.928 158.961 140.913C158.791 140.887 158.529 140.864 158.311 140.864C158.249 140.864 158.288 140.875 158.489 140.88C158.69 140.884 159.052 140.884 159.257 140.886C159.501 140.889 159.685 140.896 159.973 140.895C160.257 140.895 160.481 140.9 160.633 140.914C160.765 140.926 160.878 140.912 161.065 140.899C161.423 140.874 161.716 140.879 161.843 140.861C161.976 140.841 162.17 140.814 162.401 140.806C162.718 140.795 162.923 140.787 163.022 140.817C163.043 140.823 163.04 140.842 163.033 140.856C162.998 140.917 162.913 140.95 162.826 140.987C162.79 141.003 162.553 141.001 162.221 140.998C162.015 140.968 161.769 140.9 161.628 140.874C161.607 140.87 161.587 140.866 161.566 140.861" stroke="#0E8C00" stroke-width="0.5" stroke-linecap="round"/>
<path d="M154.176 140.905C154.176 140.905 154.175 140.905 153.91 140.904C153.645 140.903 153.116 140.9 152.564 140.89C152.013 140.881 151.456 140.864 151.11 140.844C150.763 140.824 150.644 140.8 150.367 140.784C150.09 140.768 149.66 140.76 149.399 140.751C149.058 140.74 148.892 140.724 148.742 140.731C148.56 140.739 148.343 140.857 148.182 140.906C148.09 140.933 148.04 140.974 148.019 140.979C147.992 140.986 148.109 140.974 148.534 140.951C148.925 140.931 149.67 140.919 149.735 140.911C149.801 140.902 149.163 140.904 148.824 140.907C148.413 140.91 148.299 140.926 148.177 140.881C148.098 140.851 148.042 140.816 148.02 140.788C147.998 140.759 147.999 140.715 148.001 140.675C148.015 140.483 148.385 140.349 148.545 140.289C148.598 140.269 148.674 140.26 148.906 140.257C149.139 140.253 149.529 140.26 149.747 140.266C150.001 140.273 150.054 140.29 150.09 140.308C150.173 140.349 150.443 140.678 150.581 140.869C150.621 140.925 150.423 140.953 150.192 140.995C150.129 141.007 150.066 141.003 149.86 140.917C149.655 140.831 149.307 140.657 149.041 140.532C148.606 140.327 148.397 140.253 148.355 140.228C148.311 140.201 148.352 140.106 148.419 139.92C148.551 139.558 148.599 139.268 148.696 139.102C148.77 138.973 148.916 138.769 149.031 138.62C149.145 138.471 149.229 138.385 149.429 138.236C149.63 138.086 149.943 137.875 150.441 137.471C150.938 137.068 151.609 136.477 151.99 136.151C152.372 135.824 152.443 135.78 152.638 135.695C152.834 135.611 153.152 135.487 153.832 135.365C154.512 135.243 155.545 135.125 156.3 135.069C157.055 135.012 157.501 135.02 158.011 135.05C158.521 135.08 159.081 135.133 159.388 135.156C159.732 135.183 159.804 135.155 160.084 135.061C160.33 134.977 160.789 134.821 161.13 134.726C161.472 134.631 161.682 134.601 161.814 134.586C161.992 134.565 162.07 134.577 162.112 134.599C162.13 134.609 162.123 134.639 162.104 134.664C161.985 134.823 161.688 134.858 161.337 134.872C161.248 134.876 161.181 134.86 160.776 134.721C160.371 134.583 159.631 134.317 159.204 134.172C158.778 134.027 158.688 134.01 158.514 134.003C158.339 133.995 158.082 133.997 157.447 134.073C156.812 134.15 155.807 134.301 155.234 134.395C154.662 134.489 154.552 134.523 154.119 134.748C153.685 134.973 152.932 135.388 152.453 135.67C151.974 135.952 151.792 136.088 151.678 136.179C151.424 136.381 151.335 136.56 151.26 136.765C151.23 136.847 151.233 136.917 151.24 136.974C151.244 136.998 151.261 137.012 151.277 137.022C151.364 137.078 151.822 136.942 152.112 136.839C152.159 136.822 152.166 136.734 152.186 136.621C152.2 136.544 152.259 136.479 152.309 136.432C152.396 136.349 152.714 136.259 153.133 136.101C153.35 136.019 153.566 135.902 153.708 135.824C153.912 135.712 154.062 135.545 154.258 135.325C154.452 135.108 154.682 134.956 154.856 134.851C154.986 134.773 155.095 134.75 155.738 134.752C156.35 134.754 157.543 134.779 158.272 134.773C159.002 134.768 159.231 134.738 159.397 134.722C159.658 134.697 159.775 134.709 159.783 134.713C159.792 134.717 159.734 134.712 159.382 134.653C159.029 134.593 158.364 134.476 158.072 134.418C157.781 134.359 157.883 134.363 158.242 134.432C158.602 134.501 159.214 134.635 159.643 134.751C160.072 134.867 160.298 134.962 160.454 135.03C160.609 135.098 160.688 135.136 160.882 135.228C161.076 135.32 161.385 135.464 161.532 135.537C161.68 135.61 161.657 135.608 161.001 135.41C160.346 135.212 159.059 134.818 158.379 134.612C157.698 134.407 157.664 134.401 157.618 134.398C157.516 134.392 157.439 134.398 157.324 134.399C157.228 134.399 157.054 134.389 157.532 134.455C158.01 134.52 159.147 134.659 159.927 134.792C160.707 134.925 161.097 135.048 161.375 135.149C161.654 135.249 161.81 135.324 161.914 135.375C162.018 135.426 162.064 135.452 162.448 135.689C162.832 135.927 163.552 136.375 163.982 136.659C164.412 136.944 164.53 137.05 164.602 137.117C164.698 137.206 164.765 137.308 164.849 137.459C164.911 137.612 164.958 137.885 164.989 138.205C165 138.332 165 138.385 165 138.44" stroke="#0E8C00" stroke-width="0.5" stroke-linecap="round"/>
<path d="M166.05 141C166.049 141 166.048 141 166.363 141C166.677 141 167.307 141 167.641 140.999C167.975 140.998 167.994 140.997 167.926 140.945C167.71 140.781 167.524 140.673 167.486 140.642C167.438 140.605 167.342 140.51 167.169 140.371C166.967 140.208 166.81 140.147 166.777 140.143C166.688 140.131 166.779 140.448 166.806 140.595C166.81 140.619 166.806 140.637 166.798 140.652C166.789 140.666 166.773 140.677 166.754 140.686C166.734 140.695 166.713 140.702 166.776 140.708C166.99 140.725 167.184 140.713 167.274 140.704C167.522 140.678 167.758 140.732 167.866 140.724C167.902 140.721 167.958 140.722 167.983 140.713C168.009 140.704 168.003 140.685 167.979 140.66C167.859 140.537 167.728 140.413 167.617 140.183C167.569 140.084 167.52 139.918 167.438 139.754C167.355 139.59 167.25 139.431 167.04 139.183C166.831 138.936 166.521 138.605 166.313 138.364C166.105 138.122 166.008 137.98 166 138.002C165.993 138.025 166.078 138.216 166.197 138.44C166.317 138.665 166.467 138.917 166.585 139.097C166.703 139.277 166.784 139.377 166.868 139.478C167.148 139.812 167.219 139.906 167.264 139.999C167.345 140.166 167.382 140.354 167.405 140.383C167.48 140.474 167.685 140.453 167.788 140.45C167.826 140.449 167.834 140.43 167.834 140.412C167.835 140.323 167.695 140.112 167.467 139.712C167.33 139.471 167.109 139.175 166.992 139.002C166.854 138.797 166.836 138.736 166.802 138.658C166.725 138.512 166.637 138.376 166.558 138.286C166.515 138.241 166.469 138.197 166.38 138.134" stroke="#0E8C00" stroke-width="0.5" stroke-linecap="round"/>
<path d="M149 140C149.005 139.997 149.157 139.767 149.281 139.604C149.297 139.582 149.31 139.558 149.317 139.537C149.325 139.516 149.328 139.498 149.313 139.49C149.298 139.481 149.266 139.483 149.247 139.474C149.097 139.405 149.209 138.914 149.176 138.792C149.164 138.749 149.141 138.723 149.118 138.708C149.106 138.701 149.092 138.714 149.085 138.708C149.041 138.672 149.111 138.508 149.137 138.387C149.156 138.294 149.247 138.148 149.391 137.949C149.474 137.834 149.514 137.752 149.536 137.68C149.566 137.586 149.647 137.508 149.687 137.436C149.729 137.358 149.892 137.081 149.992 136.904C150.033 136.832 150.119 136.778 150.187 136.7C150.294 136.577 150.36 136.507 150.473 136.34C150.535 136.249 150.63 136.154 150.774 136.058C150.847 136.008 150.902 135.993 150.931 136.003C151 136.025 150.999 136.205 151 136.296C151.001 136.375 150.923 136.43 150.779 136.627C150.577 136.905 150.477 137.025 150.41 137.117C150.337 137.217 150.23 137.274 150.152 137.38C150.131 137.409 150.111 137.435 150.093 137.459C150.074 137.484 150.057 137.505 150.022 137.567" stroke="#0E8C00" stroke-width="0.5" stroke-linecap="round"/>
<path d="M151 136C151.015 135.997 151.069 135.894 151.154 135.805C151.249 135.707 151.513 135.671 151.73 135.613C151.853 135.58 151.916 135.507 152.037 135.425C152.138 135.356 152.278 135.322 152.394 135.26C152.495 135.206 152.662 135.144 152.907 135.027C152.955 135.004 152.978 134.996 152.991 135.002C153.029 135.021 152.95 135.108 152.769 135.266C152.471 135.525 152.165 135.714 152.01 135.79C151.823 135.869 151.751 135.895 151.725 135.909C151.725 135.915 151.75 135.92 151.802 135.927" stroke="#0E8C00" stroke-width="0.5" stroke-linecap="round"/>
<path d="M152 135.763C152 135.768 152 135.772 152.358 135.595C152.715 135.418 153.43 135.06 153.857 134.862C154.283 134.665 154.399 134.64 154.602 134.627C154.805 134.614 155.092 134.613 155.305 134.601C155.518 134.59 155.65 134.567 155.945 134.476C156.241 134.385 156.697 134.227 157.013 134.134C157.329 134.042 157.491 134.019 157.683 134.008C157.874 133.996 158.09 133.996 158.364 134.014C158.638 134.032 158.964 134.068 159.228 134.091C159.493 134.113 159.685 134.12 159.911 134.147C160.137 134.175 160.39 134.222 160.85 134.391C161.311 134.56 161.972 134.849 162.381 135.044C162.791 135.238 162.929 135.329 163.054 135.419C163.293 135.59 163.417 135.696 163.417 135.713C163.418 135.728 163.357 135.72 163.388 135.723C163.527 135.738 163.788 135.782 164.1 135.893C164.447 136.016 164.646 136.152 164.703 136.192C164.747 136.222 164.991 136.354 165.356 136.548C165.734 136.749 165.978 137.038 166.054 137.12C166.116 137.186 166.168 137.272 166.222 137.385C166.285 137.516 166.425 137.582 166.534 137.643C166.63 137.697 166.769 137.762 166.873 137.826C166.91 137.858 166.937 137.889 166.956 137.921C166.964 137.937 166.97 137.954 167 138" stroke="#0E8C00" stroke-width="0.5" stroke-linecap="round"/>
<path d="M167 138C167 138.017 167 138.066 167 138.15C167 138.214 167 138.279 167 138.416C167 138.488 167 138.56 167 138.634C167 138.687 167 138.761 167 138.824C167 138.855 167 138.891 167 138.93C167 138.949 167 138.966 167 139" stroke="#0E8C00" stroke-width="0.5" stroke-linecap="round"/>
<path d="M166.989 138C166.994 138 166.999 138 167 137.987C167.013 137.796 166.754 137.565 166.696 137.445C166.573 137.194 166.324 136.939 166.191 136.789C166.089 136.672 165.934 136.57 165.857 136.512C165.776 136.451 165.7 136.376 165.62 136.305C165.556 136.248 165.382 136.145 165.117 136.002C164.984 135.931 164.851 135.875 164.657 135.766C164.463 135.657 164.211 135.5 164.066 135.411C163.922 135.323 163.894 135.307 163.671 135.194C163.449 135.081 163.032 134.872 162.592 134.683C162.151 134.495 161.699 134.333 161.357 134.23C161.016 134.126 160.799 134.086 160.593 134.058C160.386 134.03 160.196 134.015 160 134" stroke="#0E8C00" stroke-width="0.5" stroke-linecap="round"/>
<path d="M153 134.852C153.143 134.763 153.477 134.562 153.581 134.53C153.657 134.507 153.901 134.364 154.305 134.124C154.507 134.005 154.695 133.873 154.842 133.787C155.083 133.648 155.262 133.608 155.433 133.577C155.53 133.559 155.65 133.543 155.936 133.489C156.222 133.435 156.669 133.344 156.992 133.262C157.315 133.181 157.501 133.11 157.705 133.066C158.123 132.976 158.419 132.998 158.55 133.019C158.755 133.051 158.916 133.177 159.118 133.308C159.158 133.333 159.177 133.349 159.152 133.357C159.057 133.39 158.832 133.347 158.528 133.313C158.213 133.278 158.018 133.315 157.904 133.351C157.818 133.377 157.677 133.431 157.238 133.652C156.798 133.873 156.064 134.26 155.652 134.468C155.179 134.707 155.083 134.706 155.034 134.7C155.01 134.697 154.986 134.682 154.975 134.663C154.953 134.627 155.058 134.493 155.218 134.326C155.32 134.22 155.399 134.181 155.775 134.007C156.116 133.85 156.76 133.54 157.129 133.372C157.499 133.204 157.574 133.185 158.006 133.187C158.438 133.188 159.224 133.211 159.807 133.27C160.389 133.33 160.744 133.425 160.949 133.482C161.263 133.571 161.319 133.615 161.527 133.765C161.712 133.899 162.055 134.16 162.304 134.356C162.861 134.816 162.908 134.86 162.942 134.896C162.958 134.917 162.975 134.942 163 135" stroke="#0E8C00" stroke-width="0.5" stroke-linecap="round"/>
<path d="M159 133.05C159.022 133.053 159.105 133.047 159.248 133.047C159.38 133.047 159.506 133.041 159.598 133.007C159.646 132.99 159.754 133 160.081 133.07C160.329 133.124 160.734 133.291 160.979 133.373C161.387 133.512 161.584 133.518 161.726 133.571C161.876 133.628 162.092 133.756 162.217 133.834C162.298 133.885 162.461 134.02 162.612 134.118C162.779 134.227 163.003 134.412 163.208 134.588C163.505 134.843 163.589 134.903 163.704 134.984C163.938 135.148 164.146 135.341 164.437 135.542C164.561 135.628 164.636 135.65 164.732 135.731C164.804 135.808 164.866 135.874 164.927 135.94C164.942 135.957 164.956 135.978 165 136" stroke="#0E8C00" stroke-width="0.5" stroke-linecap="round"/>
<rect x="182.194" y="160.685" width="4.08261" height="9.52609" transform="rotate(13.7396 182.194 160.685)" fill="#141414"/>
<rect x="194.358" y="160.19" width="4.08261" height="10.887" transform="rotate(-6.33564 194.358 160.19)" fill="#141414"/>
<rect x="179.085" y="155.414" width="21.7739" height="6.80435" transform="rotate(-3.33663 179.085 155.414)" fill="#141414"/>
<path d="M184.99 163.172L189.59 159.682" stroke="#141414" stroke-width="0.2"/>
<rect x="165.578" y="157.564" width="13.6087" height="4.08261" transform="rotate(-3.33663 165.578 157.564)" fill="#141414"/>
<path d="M166.054 165.716L171.25 161.324L165.816 161.641L166.054 165.716Z" fill="#141414"/>
<rect x="187.078" y="152.222" width="2.72174" height="2.72174" transform="rotate(-3.33663 187.078 152.222)" fill="#141414"/>
<rect x="185.561" y="149.584" width="5.44348" height="2.72174" transform="rotate(-3.33663 185.561 149.584)" fill="#141414"/>
<rect x="200.822" y="154.147" width="10.887" height="4.08261" transform="rotate(-3.33663 200.822 154.147)" fill="#141414"/>
<rect x="211.69" y="153.513" width="8.16522" height="2.72174" transform="rotate(-3.33663 211.69 153.513)" fill="#141414"/>
<line y1="-2.5" x2="35.6174" y2="-2.5" transform="matrix(-0.948681 -0.316234 -0.316234 0.948681 182.116 173.814)" stroke="#0DA000" stroke-width="5"/>
<path d="M182.349 174.064L184.38 167.466L179.688 165.949L177.657 172.547L182.349 174.064Z" fill="#0F9400" stroke="#0F9400" stroke-width="0.2"/>
<rect x="10.7052" y="77.2799" width="53.5762" height="15.3729" transform="rotate(11.6881 10.7052 77.2799)" fill="#00229C" stroke="#00229C"/>
<rect x="20.9331" y="68.2494" width="37.2033" height="11.2796" transform="rotate(11.6881 20.9331 68.2494)" fill="#00229C" stroke="#00229C"/>
<path d="M63.7614 87.7453L57.956 75.3979L55.7447 86.0869L63.7614 87.7453Z" fill="#00229C" stroke="#00229C" stroke-width="0.1"/>
<path d="M10.3169 76.6889L20.5448 67.6584L18.3335 78.3474L10.3169 76.6889Z" fill="#00229C" stroke="#00229C" stroke-width="0.1"/>
<rect x="15.0167" y="94.3811" width="9.55083" height="9.55083" transform="rotate(11.6881 15.0167 94.3811)" fill="#011A74"/>
<rect x="43.075" y="100.185" width="9.55083" height="9.55083" transform="rotate(11.6881 43.075 100.185)" fill="#011A74"/>
<path d="M13.3854 103.651C13.2947 104.118 13.1929 105.124 13.2584 105.635C13.2893 105.876 13.171 106.609 13.0261 107.491C12.9823 107.757 13.0987 107.669 13.2246 107.568C13.8098 107.097 14.2645 106.669 14.4631 106.482C14.5654 106.386 14.3199 107.549 14.0983 108.7C14.0283 109.063 14.1494 108.994 14.254 108.904C14.4744 108.715 14.6656 108.525 14.8123 108.464C15.1785 108.31 15.1161 109.227 15.2245 109.534C15.3421 109.867 15.6346 108.86 15.9505 108.372C16.0303 108.249 16.1325 108.166 16.2096 108.169C16.5775 108.183 16.4766 109.205 16.499 109.872C16.5053 110.061 16.4355 110.324 16.4546 110.42C16.5351 110.823 17.1189 109.393 17.361 109.039C17.4639 108.889 17.683 109.288 17.8342 109.437C17.9105 109.513 18.0663 109.475 18.2202 109.32C18.3741 109.165 18.542 108.866 18.6533 108.772C18.7778 108.667 18.9286 109.017 19.0911 109.042C19.4713 109.1 19.5393 108.364 19.7106 108.181C19.8484 108.033 20.1099 108.221 20.3124 108.218C20.9836 108.207 20.9008 107.271 21.1826 106.943C21.2546 106.859 21.3504 106.799 21.4066 106.828C21.5656 106.911 21.505 107.226 21.5371 107.338C21.8117 107.075 21.992 106.611 22.1167 106.145C22.1794 105.96 22.241 105.876 22.3881 105.632" stroke="#00AFD6" stroke-width="0.5" stroke-linecap="round"/>
<path d="M41.1402 109.538C41.0495 110.005 40.9477 111.011 41.0132 111.522C41.0441 111.763 40.9258 112.495 40.7809 113.377C40.7371 113.644 40.8535 113.556 40.9794 113.455C41.5646 112.984 42.0193 112.556 42.218 112.369C42.3202 112.273 42.0748 113.436 41.8531 114.587C41.7831 114.95 41.9042 114.881 42.0089 114.791C42.2292 114.602 42.4204 114.412 42.5671 114.351C42.9333 114.197 42.8709 115.114 42.9793 115.421C43.097 115.754 43.3895 114.747 43.7053 114.259C43.7851 114.136 43.8873 114.053 43.9644 114.056C44.3323 114.07 44.2314 115.092 44.2538 115.759C44.2601 115.948 44.1903 116.211 44.2094 116.307C44.2899 116.71 44.8737 115.28 45.1158 114.926C45.2187 114.776 45.4378 115.175 45.589 115.324C45.6653 115.4 45.8211 115.362 45.975 115.207C46.1289 115.052 46.2968 114.753 46.4081 114.659C46.5327 114.554 46.6834 114.904 46.8459 114.929C47.2261 114.987 47.2941 114.251 47.4654 114.068C47.6032 113.92 47.8647 114.108 48.0672 114.105C48.7384 114.094 48.6557 113.158 48.9374 112.83C49.0094 112.746 49.1052 112.686 49.1615 112.715C49.3204 112.798 49.2599 113.113 49.2919 113.225C49.5666 112.962 49.7468 112.498 49.8715 112.032C49.9343 111.847 49.9959 111.763 50.143 111.519" stroke="#00AFD6" stroke-width="0.5" stroke-linecap="round"/>
<rect x="63.7614" y="87.7451" width="16.3729" height="10.9152" transform="rotate(11.6881 63.7614 87.7451)" fill="#011A74"/>
<circle cx="78.6891" cy="96.4069" r="5.45762" transform="rotate(11.6881 78.6891 96.4069)" fill="#000C35"/>
<path d="M13.8722 104.84C13.9072 104.847 14.3591 104.953 15.0698 105.127C15.6145 105.261 15.9941 105.62 16.2977 105.947C16.4111 106.069 16.4737 106.243 16.5145 106.362C16.5301 106.408 16.0926 106.264 15.5506 106.07C14.9167 105.843 14.3101 105.129 14.1835 105.027C14.1549 105.004 14.1205 104.992 14.085 104.996C13.8843 105.016 13.804 105.369 13.6845 105.87C13.5864 106.282 13.5365 106.521 13.5574 106.602C13.6501 106.959 14.2951 105.501 14.3681 105.54C14.6056 105.666 14.5947 106.048 14.703 106.235C14.8391 106.47 15.1352 106.68 15.201 106.862C15.3294 107.216 14.909 107.539 14.776 108.059C14.7545 108.143 14.7344 108.103 14.7387 108.029C14.7662 107.557 14.7857 106.834 14.7602 106.286C14.752 106.112 14.7853 106.146 14.812 106.2C15.0679 106.72 15.1444 107.579 15.2784 107.814C15.3627 107.961 15.4043 108.372 15.4652 108.657C15.4746 108.701 15.5073 108.742 15.5269 108.746C15.5717 108.755 15.6232 108.41 15.6976 107.98C15.7854 107.474 15.2281 106.896 15.1461 106.718C15.1121 106.644 15.1532 106.51 15.2016 106.382C15.3172 106.077 15.9187 106.994 16.0019 107.192C16.1136 107.457 16.1787 107.635 16.6363 108.014C16.7938 108.144 16.8423 108.263 16.8557 108.397C16.8944 108.784 16.7904 109.094 16.7985 109.141C16.8341 109.352 16.7762 108.398 16.4967 107.755C16.0723 106.78 15.5883 106.498 15.5994 106.415C15.6076 106.353 15.7818 106.413 16.0668 106.558C17.051 107.058 17.1737 107.505 17.2729 107.734C17.4199 108.072 17.5002 108.203 17.6075 108.392C17.7365 108.619 17.8672 108.771 17.9281 108.881C18.0357 109.074 17.4662 108.53 17.2366 108.273C16.4949 107.441 16.4748 107.168 16.376 106.981C16.3521 106.936 16.3208 106.892 16.0809 106.612C15.8411 106.332 15.3905 105.818 15.1286 105.528C14.6198 104.965 14.1023 104.735 13.7994 104.497C13.6061 104.345 13.6179 104.156 13.57 103.999C13.5576 103.958 13.552 103.917 13.5642 103.888C13.5886 103.83 13.6936 103.825 13.8001 103.828C14.1189 103.835 14.4353 104.097 14.8698 104.194C15.2563 104.28 15.9846 104.419 16.3892 104.496C16.8526 104.585 17.3078 104.665 17.9323 104.785C18.2215 104.841 18.4372 104.818 18.8341 104.833C19.4193 104.856 19.8605 105.054 20.1449 105.137C20.8818 105.35 21.33 105.464 21.7326 105.629C21.8742 105.687 21.8666 105.74 21.8477 105.793C21.7674 106.018 21.6985 106.188 21.6432 106.356C21.6139 106.445 21.4008 106.385 21.1851 106.331C21.0437 106.296 20.6276 106.03 20.0245 105.647C19.7913 105.498 19.6964 105.459 19.2624 105.349C18.8285 105.238 18.0559 105.061 17.4654 104.961C16.8748 104.86 16.4896 104.841 16.1517 104.803C15.5314 104.733 15.0201 104.593 14.6001 104.466C14.4037 104.407 14.2554 104.315 14.2326 104.289C14.1744 104.223 14.7158 104.447 15.1929 104.66C15.7616 104.914 16.1692 105.111 16.3663 105.188C16.6521 105.3 16.5942 105.854 16.9446 106.388C17.3512 107.007 17.8594 107.448 18.111 107.686C18.2654 107.832 18.3091 107.939 18.3301 108.007C18.4085 108.261 18.2819 108.684 18.2446 108.828C17.8505 108.422 17.3163 107.728 17.2275 107.492C17.2153 107.439 17.2124 107.397 17.229 107.258" stroke="#00AFD6" stroke-width="0.5" stroke-linecap="round"/>
<path d="M17.4655 107.5C17.4676 107.505 17.4698 107.51 17.4777 107.53C17.5817 107.788 18.2713 107.806 18.7407 107.931C18.8384 107.957 18.8706 107.991 18.8984 108.035C19.0121 108.215 19.0189 108.388 19.1577 108.515C19.3321 108.675 19.2699 107.92 19.3933 107.759C19.5088 107.608 19.7037 107.57 19.9675 107.481C20.1946 107.404 20.28 107.248 20.4191 107.072C20.6112 106.829 20.7483 106.515 21.0041 106.243C21.0841 106.158 21.261 106.152 21.4158 106.14C21.4566 106.137 21.4175 106.118 21.1316 106.051C20.8457 105.985 20.3133 105.866 19.6272 105.757C18.941 105.648 18.1171 105.552 17.634 105.505C17.1509 105.458 17.0335 105.461 16.9961 105.481C16.9468 105.507 17.3429 105.664 18.1238 105.868C18.6108 105.996 19.2961 106.114 19.6877 106.193C20.1612 106.288 20.2781 106.356 20.3422 106.435C20.4507 106.569 20.451 106.738 20.5 106.936C20.5562 107.164 20.5472 107.333 20.6081 107.505C20.6502 107.624 20.6652 107.74 20.6578 107.824C20.6513 107.899 20.5911 107.95 20.5283 107.988C20.3948 108.068 20.1442 107.999 19.8529 107.884C19.7021 107.824 19.4543 107.686 19.1326 107.56C18.811 107.434 18.4279 107.313 18.0171 107.15C17.1676 106.812 16.7064 106.553 16.6458 106.5C16.5241 106.393 16.544 106.219 16.5693 106.121C16.5815 106.073 16.6745 106.074 17.0787 106.203C17.4829 106.332 18.2164 106.6 18.7347 106.813C19.5462 107.146 19.8564 107.308 19.9079 107.256C20.0289 107.135 19.802 106.862 19.6734 106.705C19.2348 106.585 18.2832 106.36 18.0645 106.273C18.156 106.278 18.6586 106.382 19.2605 106.482" stroke="#00AFD6" stroke-width="0.5" stroke-linecap="round"/>
<path d="M41.1695 109.56C41.17 109.558 41.214 109.559 41.5982 109.63C41.9396 109.692 42.5742 109.83 42.9892 109.929C43.4042 110.028 43.5793 110.089 44.0755 110.211C44.5717 110.333 45.3836 110.515 45.9359 110.634C46.4882 110.753 46.7562 110.803 47.2977 110.929C47.8391 111.055 48.6458 111.255 49.0965 111.359C49.6147 111.479 49.7942 111.482 49.9335 111.51C50.046 111.533 49.6702 111.691 49.5365 111.851C49.3947 112.021 49.34 112.25 49.2714 112.366C49.16 112.555 49.0865 112.062 48.5233 111.676C48.3498 111.557 48.1526 111.507 47.3955 111.306C46.6385 111.105 45.3153 110.774 44.5121 110.577C43.7088 110.38 43.4656 110.326 43.267 110.292C42.6331 110.183 42.2829 110.138 41.928 110.11C41.7936 110.099 41.6254 110.056 41.5294 110.051C41.4333 110.045 41.4154 110.071 41.3979 110.126C41.3546 110.263 41.3435 110.398 41.3394 110.535C41.3329 110.756 41.3164 111.112 41.2898 111.572C41.2429 112.38 41.2962 112.68 41.2653 112.816C41.2294 112.975 41.5454 112.3 41.6878 111.939C41.8042 111.644 41.729 111.422 41.7222 111.169C41.7118 110.779 41.6664 110.64 41.6762 110.598C41.757 110.251 42.1006 111.516 42.2181 111.757C42.3499 112.028 42.5435 112.573 42.6069 112.792C42.7257 113.201 42.5491 113.723 42.5164 113.892C42.5078 113.937 42.4834 113.972 42.4693 114.009C42.4551 114.046 42.4461 114.081 42.5096 114.118C42.8906 114.337 43.1274 114.386 43.2237 114.436C43.2614 114.455 43.2911 114.424 43.3132 114.399C43.4006 114.299 43.4314 114.121 43.5668 113.985C43.7912 113.759 44.1816 114.065 44.3231 114.128C44.4795 114.198 44.5306 114.382 44.5772 114.502C44.6325 114.644 44.671 114.78 44.6909 114.816C44.7408 114.907 44.7305 114.538 44.6396 114.182C44.5659 113.893 44.4127 113.782 44.1523 113.636C43.6576 113.358 43.3288 113.582 43.2573 113.621C43.1857 113.659 43.146 113.813 43.1175 113.932C43.1018 113.997 43.1467 113.75 43.1279 113.582C43.0861 113.209 43.021 112.746 42.9853 112.314C42.9515 111.905 42.8053 111.61 42.6968 111.424C42.5061 111.098 42.2214 110.869 42.0977 110.74C42.0698 110.711 42.0517 110.675 42.0631 110.661C42.0744 110.648 42.1191 110.655 42.5337 110.857C42.9484 111.059 43.7316 111.455 44.2196 111.726C44.8937 112.099 45.084 112.298 45.1474 112.368C45.2104 112.437 45.2309 112.512 45.2199 112.574C45.2077 112.642 45.1452 112.686 45.0774 112.725C44.9747 112.785 44.8516 112.803 44.747 112.812C44.1928 112.859 43.3919 112.661 43.3462 112.656C43.1668 112.637 43.2544 113.086 43.2971 113.222C43.3064 113.252 43.3279 113.275 43.3413 113.271C43.3828 113.259 43.3942 113.172 43.4374 113.119C43.4803 113.066 43.5689 113.038 43.6778 113.017C44.1243 112.932 44.7517 113.233 44.8532 113.309C44.8618 113.316 44.8181 113.318 44.7958 113.334C44.6296 113.449 44.9734 113.907 45.0383 114.121C45.0685 114.22 45.2691 114.4 45.5209 114.59C45.6022 114.651 45.6121 114.608 45.5342 114.439C45.4563 114.27 45.2963 113.969 45.1436 113.728C44.8727 113.3 44.6156 113.062 44.2661 112.81C43.6008 112.329 43.118 112.052 43.068 112.002C42.9405 111.876 42.871 111.649 42.7641 111.436C42.7434 111.395 43.1947 111.731 43.7964 112.189C44.2246 112.515 44.5832 112.695 44.6341 112.692C45.2351 112.657 43.6678 111.972 43.4962 111.804C43.1896 111.505 43.0661 111.223 42.9278 111.138C42.8284 111.077 42.7435 110.987 42.7053 110.917C42.6438 110.805 43.1377 110.903 43.9413 111.007C44.5393 111.085 45.5095 111.306 46.2224 111.484C46.9354 111.663 47.3582 111.816 47.6296 111.906C48.1377 112.074 48.4444 112.094 48.7486 112.106C48.914 112.112 49.0502 112.015 49.1542 111.95C49.2936 111.863 49.3054 111.645 49.5639 111.496C49.6459 111.449 49.714 111.46 49.7365 111.465C49.9395 111.514 49.3104 111.75 48.8745 111.9C48.6613 111.973 48.2594 112.025 47.6781 112.21C47.2228 112.354 47.024 112.334 46.5117 112.268C46.0508 112.208 45.1851 112.074 44.7167 112C44.2027 111.918 44.0589 111.833 43.8771 111.714C43.7933 111.659 43.7333 111.606 43.9256 111.626C44.1178 111.647 44.5658 111.74 45.0049 111.867C45.4441 111.993 45.8608 112.15 46.0959 112.236C46.4426 112.361 46.6346 112.34 46.8089 112.363C46.9613 112.383 47.1003 112.384 47.1648 112.368C47.1902 112.362 47.1835 112.322 47.1555 112.284C46.7805 111.78 45.8831 111.486 45.9187 111.555C45.9381 111.592 45.9742 111.626 45.9801 111.659C45.9859 111.692 45.9641 111.721 45.9356 111.741C45.6979 111.901 45.2131 111.89 45.0739 111.961C45.0431 111.976 45.0298 112.005 45.0265 112.034C44.9769 112.479 45.7583 112.985 45.7633 113.048C45.7755 113.198 45.4904 113.453 45.3453 113.666C45.2303 113.834 45.382 113.992 45.5145 114.219C45.5895 114.348 45.6603 114.429 45.6718 114.53C45.6944 114.727 45.6134 114.88 45.6271 114.912C45.7464 115.196 45.8603 114.045 45.8034 113.739C45.7674 113.545 45.5537 113.394 45.2611 113.214C45.0151 113.063 44.7872 112.986 44.6954 112.908C44.6172 112.842 44.5905 112.764 44.5905 112.72C44.5906 112.579 44.9683 112.878 45.1671 113.145C45.5606 113.672 45.7366 113.96 45.8223 114.074C45.9067 114.187 46.1346 114.23 46.3566 114.294C46.4785 114.329 46.6227 114.386 46.7621 114.399C46.8168 114.405 46.8391 114.368 46.8463 114.329C46.8867 114.112 46.6273 113.681 46.314 113.157C45.9155 112.491 45.5777 112.323 45.5059 112.286C45.486 112.276 45.4902 112.325 45.6085 112.593C45.7268 112.861 45.9565 113.357 46.0923 113.638C46.2282 113.92 46.2632 113.972 46.2905 113.974C46.4539 113.988 46.6813 113.73 46.9698 113.665C47.2105 113.611 47.3712 113.579 47.7818 113.643C47.9114 113.663 47.9845 113.622 48.0436 113.579C48.1785 113.482 48.2768 113.188 48.3769 112.819C48.4034 112.722 48.4513 112.676 48.5053 112.643C48.5569 112.613 48.63 112.605 48.6775 112.587C48.8442 112.521 47.9918 112.683 47.4462 112.731C47.1341 112.759 46.7492 112.775 46.5531 112.799C46.357 112.824 46.361 112.853 46.4206 112.901C46.7204 113.145 46.8778 113.188 47.1374 113.2C47.4967 113.217 47.7396 113.222 47.8892 113.203C48.0323 113.185 48.1629 112.926 48.2989 112.778C48.4262 112.639 48.6509 112.651 48.7716 112.621C48.8025 112.615 48.8351 112.613 48.8968 112.62C48.9585 112.627 49.0484 112.642 49.1405 112.653" stroke="#00AFD6" stroke-width="0.5" stroke-linecap="round"/>
<rect x="46.4379" y="77.1951" width="9.55083" height="4.09321" transform="rotate(11.6881 46.4379 77.1951)" fill="#00D0FF"/>
<line x1="31.0218" y1="71.7476" x2="42.8367" y2="45.8042" stroke="#3C0000" stroke-width="6"/>
<line y1="-3" x2="28.5071" y2="-3" transform="matrix(0.0495227 -0.998773 -0.998773 -0.0495227 47.6989 76.3811)" stroke="#3C0000" stroke-width="6"/>
<line x1="69.4251" y1="46.2101" x2="59.5021" y2="21.9916" stroke="white" stroke-width="5"/>
<line y1="-2.5" x2="26.1725" y2="-2.5" transform="matrix(0.662383 -0.749165 -0.749165 -0.662383 29.1155 37.0259)" stroke="white" stroke-width="5"/>
<rect x="46.2432" y="17.3672" width="16" height="31" transform="rotate(13.6619 46.2432 17.3672)" fill="#3C0000"/>
<path d="M71.7385 45.2624L67.2107 47.2621L65.7823 44.0279L70.3101 42.0282L71.7385 45.2624Z" fill="#EFE9C9" stroke="#EFE9C9" stroke-width="0.2"/>
<path d="M28.8791 37.112L32.7566 40.3833L35.1319 37.6468L31.2545 34.3756L28.8791 37.112Z" fill="#EFE9C9" stroke="#EFE9C9" stroke-width="0.2"/>
<path d="M28.1857 70.3374L34.6193 73.5061L36.8433 68.8915L30.4097 65.7227L28.1857 70.3374Z" fill="black"/>
<path d="M47.5184 77.2616L55.2578 77.0856L55.4474 71.5592L47.708 71.7352L47.5184 77.2616Z" fill="black"/>
<circle cx="56.0379" cy="13.0592" r="7.5" transform="rotate(13.6619 56.0379 13.0592)" fill="#EFE9C9"/>
<rect x="69.2322" y="39.1123" width="4" height="9" transform="rotate(29.6201 69.2322 39.1123)" fill="#003C56"/>
<rect x="84.5537" y="12.1631" width="4" height="31" transform="rotate(29.6201 84.5537 12.1631)" fill="#00B7FF"/>
<rect x="84.929" y="13.5264" width="2" height="30" transform="rotate(29.6201 84.929 13.5264)" fill="#58D0FF"/>
<rect x="46.2681" y="17.2646" width="6" height="32" transform="rotate(13.6619 46.2681 17.2646)" fill="white"/>
<rect x="55.9852" y="19.627" width="6" height="32" transform="rotate(13.6619 55.9852 19.627)" fill="white"/>
<line y1="-2.5" x2="19.6436" y2="-2.5" transform="matrix(0.477577 -0.87859 -0.87859 -0.477577 186.297 85.2935)" stroke="#020048" stroke-width="5"/>
<path d="M186.297 85.2933L190.891 88.0641L192.87 84.7828L188.276 82.0121L186.297 85.2933Z" fill="#EFE9C9" stroke="#EFE9C9" stroke-width="0.2"/>
<rect width="4.3353" height="12.6376" transform="matrix(-0.461834 0.886966 0.886966 0.461834 188.291 79.7673)" fill="#8A0D0D"/>
<rect width="17.3412" height="3.25148" transform="matrix(-0.88317 0.469053 0.469053 0.88317 188.63 79.0012)" fill="#8A0D0D"/>
<rect width="17.3412" height="1.08383" transform="matrix(-0.88317 0.469053 0.469053 0.88317 173.315 87.1355)" fill="#D9D9D9"/>
<rect width="15.1736" height="1.08383" transform="matrix(-0.88317 0.469053 0.469053 0.88317 173.824 88.0925)" fill="#D9D9D9"/>
<path d="M187.623 84.1062L185.669 84.0657" stroke="#8A0D0D" stroke-width="0.2"/>
<path d="M152.892 138.333C152.867 138.358 153.065 138.3 153.784 137.994C154.3 137.776 155.093 137.365 155.525 137.139C155.958 136.913 156 136.868 156.003 136.818C156.005 136.769 155.968 136.716 155.78 136.689C155.591 136.662 155.252 136.662 154.334 136.772C153.415 136.882 151.926 137.102 151.125 137.228C150.324 137.354 150.254 137.378 150.74 137.374C151.225 137.369 152.268 137.334 152.418 137.513C152.962 138.16 150.869 138.576 150.733 138.704C150.208 139.199 152.463 138.004 152.543 137.9C152.672 137.731 151.638 138.424 150.823 139.053C150.354 139.415 150.195 139.678 150.055 139.914C150.023 139.967 149.995 140.02 150.005 140.063C150.092 140.423 150.862 140.442 151.077 140.525C151.184 140.567 151.523 140.631 152.205 140.685C153.666 140.8 154.023 140.732 154.595 140.747C154.801 140.753 155.096 140.782 155.388 140.794C155.536 140.8 154.977 140.916 154.61 141.003C154.461 141.038 154.206 141.034 153.256 141.029C152.494 141.025 151.166 141.004 150.452 140.993C149.678 140.981 149.485 140.945 149.272 140.881C149.186 140.855 149.161 140.8 149.144 140.743C149.061 140.457 149.078 139.876 149.325 139.337C149.778 138.352 150.182 138.214 150.228 138.143C150.485 137.752 150.007 139.248 149.902 139.543C149.794 139.848 149.42 140.026 149.156 140.181C149.107 140.21 149.052 140.212 148.996 140.218C148.939 140.224 148.879 140.224 148.848 140.151C148.684 139.763 148.941 139.52 149.104 139.162C149.213 138.922 149.43 138.826 149.56 138.726C149.618 138.682 149.655 138.645 149.706 138.746C149.865 139.066 149.881 139.479 149.865 139.718C149.859 139.811 149.808 139.84 149.77 139.804C149.657 139.698 149.609 139.477 149.544 139.376C149.446 139.223 150.655 139.995 151.646 140.365C151.829 140.412 152.146 140.422 152.571 140.427C152.732 140.432 152.781 140.44 152.886 140.458" stroke="#0E8C00" stroke-width="0.5" stroke-linecap="round"/>
<path d="M151.478 135.642C151.528 135.645 151.779 135.567 152.005 135.413C152.092 135.345 152.191 135.288 152.323 135.233C152.397 135.201 152.488 135.163 152.677 135.059" stroke="#0E8C00" stroke-width="0.5" stroke-linecap="round"/>
<path d="M153.202 135.738C153.213 135.739 153.237 135.742 153.251 135.746C153.279 135.753 153.029 135.785 152.759 135.843C152.566 135.884 152.514 135.937 152.441 136.002C152.253 136.168 152.13 136.254 151.976 136.348C151.843 136.428 151.801 136.498 151.785 136.562C151.781 136.575 151.801 136.585 151.814 136.586C151.827 136.586 151.839 136.577 151.849 136.565C151.859 136.553 151.867 136.538 151.87 136.522C151.877 136.492 151.768 136.322 151.591 136.071C151.495 135.935 151.439 135.902 151.404 135.896C151.367 135.89 151.333 135.9 151.308 135.914C151.278 136.008 151.288 136.179 151.342 136.303C151.356 136.33 151.366 136.345 151.399 136.362" stroke="#0E8C00" stroke-width="0.5" stroke-linecap="round"/>
<path d="M150.542 138.967C150.542 138.967 150.542 138.694 150.544 138.275C150.545 138.113 150.568 138.074 150.592 138.029C150.632 137.953 150.727 137.897 150.752 137.796C150.787 137.657 150.768 137.548 150.794 137.522C150.857 137.462 151.035 137.457 151.34 137.506C151.532 137.536 151.784 137.665 151.947 137.728C152.173 137.815 152.265 137.822 152.295 137.81C152.309 137.805 152.295 137.774 152.279 137.758C152.263 137.743 152.239 137.738 152.011 137.733C151.782 137.729 151.349 137.726 151.118 137.726C150.887 137.726 150.871 137.729 150.862 137.742C150.854 137.755 150.853 137.778 150.86 137.796C150.871 137.828 150.912 137.846 151.08 137.907C151.227 137.96 151.505 138.046 151.656 138.096C151.808 138.146 151.826 138.156 151.79 138.174C151.669 138.234 151.503 138.255 151.258 138.27C151.08 138.281 150.788 138.277 150.623 138.273C150.458 138.27 150.427 138.261 150.427 138.251C150.425 138.215 150.62 138.221 150.854 138.231C151.029 138.239 151.12 138.294 151.137 138.316C151.162 138.348 150.943 138.353 150.721 138.337C150.564 138.326 150.496 138.227 150.463 138.166C150.427 138.098 150.423 138.017 150.42 137.952C150.418 137.925 150.409 137.911 150.966 137.84C151.523 137.769 152.644 137.644 153.237 137.575C153.83 137.506 153.86 137.498 153.862 137.483C153.863 137.469 153.835 137.449 153.615 137.403C153.394 137.356 152.982 137.283 152.836 137.253C152.816 137.249 153.149 137.304 153.45 137.392C153.563 137.425 153.592 137.443 153.595 137.462C153.598 137.481 153.575 137.501 153.332 137.523C153.09 137.545 152.629 137.567 152.377 137.574C152.126 137.582 152.097 137.575 152.079 137.563C152.06 137.552 152.052 137.535 152.051 137.517C152.048 137.479 152.171 137.383 152.431 137.215C152.757 137.004 152.98 136.909 153.025 136.9C153.079 136.889 153.127 136.903 153.135 136.916C153.159 136.957 152.913 136.937 152.67 136.922C152.565 136.916 152.5 136.878 152.396 136.847C152.291 136.815 152.148 136.782 152.441 136.756C152.734 136.73 153.468 136.713 153.858 136.702C154.275 136.69 154.333 136.679 154.374 136.672C154.383 136.671 154.367 136.664 154.139 136.644C153.911 136.624 153.471 136.589 153.228 136.568C152.986 136.548 152.955 136.542 153.22 136.558C153.485 136.574 154.048 136.611 154.214 136.611C154.303 136.61 153.751 136.484 153.534 136.402C153.398 136.35 153.347 136.301 153.344 136.275C153.339 136.233 153.444 136.225 153.717 136.213C153.948 136.202 154.366 136.209 154.625 136.218C154.885 136.226 154.974 136.243 154.78 136.221C154.586 136.199 154.106 136.139 153.792 136.09C153.344 136.021 153.198 135.96 153.19 135.937C153.18 135.908 153.377 135.907 153.805 135.952C154.09 135.982 154.504 136.08 154.745 136.126C154.986 136.172 155.04 136.176 155.04 136.167C155.041 136.157 154.986 136.134 154.823 136.083C154.659 136.032 154.389 135.952 154.226 135.899C154.064 135.846 154.017 135.821 153.996 135.8C153.975 135.78 153.981 135.765 154.002 135.751C154.023 135.737 154.06 135.726 154.321 135.725C154.581 135.725 155.064 135.736 155.407 135.763C155.75 135.79 155.939 135.833 155.803 135.772C155.666 135.712 155.197 135.548 154.948 135.46C154.699 135.371 154.683 135.363 154.808 135.359C154.933 135.355 155.199 135.355 155.495 135.381C155.791 135.407 156.11 135.459 156.33 135.502C156.551 135.545 156.664 135.578 156.708 135.595C156.751 135.612 156.721 135.612 156.571 135.584C156.421 135.556 156.152 135.501 155.991 135.464C155.785 135.416 155.717 135.373 155.686 135.34C155.675 135.328 155.699 135.31 155.715 135.302C155.744 135.288 155.891 135.298 156.233 135.345C156.447 135.375 156.735 135.463 156.903 135.509C157.071 135.556 157.109 135.571 157.008 135.58C156.907 135.59 156.667 135.594 156.412 135.581C156.158 135.567 155.896 135.535 155.691 135.507C155.487 135.479 155.347 135.454 155.131 135.402C154.914 135.349 154.626 135.268 154.469 135.225C154.259 135.168 154.184 135.165 154.049 135.145C154.007 135.138 153.964 135.125 153.946 135.111C153.927 135.097 153.935 135.082 153.946 135.07C153.967 135.046 154.051 134.979 154.204 134.825C154.293 134.736 154.39 134.611 154.519 134.494C154.649 134.378 154.804 134.27 154.913 134.199C155.148 134.046 155.203 134.009 155.254 133.953C155.321 133.879 155.409 133.852 155.648 133.825C155.753 133.813 155.903 133.822 156.056 133.84C156.363 133.875 156.558 133.94 156.635 133.971C156.711 134.002 156.76 134.042 156.79 134.069C156.846 134.12 156.836 134.2 156.842 134.251C156.862 134.418 157.22 134.533 157.295 134.617C157.307 134.631 157.293 134.648 157.27 134.655C157.212 134.671 157.035 134.626 156.786 134.558C156.581 134.503 156.479 134.447 156.464 134.438C156.462 134.437 156.488 134.437 156.567 134.467C156.647 134.496 156.784 134.553 157.434 134.975C158.083 135.397 159.242 136.182 159.848 136.593C160.454 137.005 160.472 137.018 160.487 137.031C160.574 137.1 160.679 137.282 160.775 137.542C160.804 137.618 160.853 137.675 160.952 137.765C161.229 138.018 161.307 138.087 161.336 138.116C161.35 138.13 161.372 138.132 161.385 138.121C161.473 138.047 161.396 137.855 161.351 137.712C161.326 137.631 161.28 137.54 161.06 137.246C160.839 136.951 160.441 136.457 160.05 136.03C159.66 135.604 159.289 135.26 159.024 135.028C158.758 134.797 158.609 134.687 159.108 134.879C159.607 135.071 160.759 135.568 160.525 135.417C160.291 135.266 158.634 134.452 157.85 134.033C157.066 133.614 157.205 133.616 157.314 133.627C157.424 133.638 157.5 133.66 157.642 133.715C157.784 133.77 157.99 133.858 158.557 134.214C159.124 134.571 160.046 135.194 160.53 135.522C161.013 135.851 161.03 135.865 161.017 135.867C161.005 135.868 160.962 135.856 160.611 135.683C160.26 135.51 159.602 135.176 159.251 134.996C158.901 134.815 158.877 134.798 159.208 135.022C159.539 135.245 160.224 135.711 160.561 135.951C160.898 136.191 160.866 136.191 160.444 136.042C160.021 135.893 159.21 135.596 158.782 135.436C158.331 135.267 158.301 135.235 158.276 135.206C158.262 135.19 158.248 135.167 158.251 135.152C158.255 135.137 158.278 135.128 158.424 135.132C158.571 135.136 158.84 135.153 159.634 135.404C160.428 135.655 161.737 136.14 162.46 136.419C163.183 136.698 163.279 136.756 163.336 136.792C163.394 136.828 163.41 136.84 163.411 136.846C163.412 136.863 163.346 136.847 162.881 136.672C162.446 136.508 161.616 136.17 161.168 135.988C160.721 135.806 160.683 135.786 160.656 135.769C160.629 135.753 160.614 135.741 160.663 135.734C160.711 135.727 160.825 135.725 161.17 135.821C161.515 135.918 162.087 136.115 162.488 136.271C162.89 136.427 163.103 136.538 162.734 136.276C162.365 136.015 161.407 135.379 160.923 135.051C160.439 134.723 160.457 134.723 160.898 134.995C161.339 135.266 162.202 135.808 162.689 136.122C163.177 136.435 163.262 136.503 163.313 136.546C163.365 136.589 163.381 136.605 163.162 136.446C162.944 136.288 162.491 135.955 162.627 136.05C162.764 136.146 163.504 136.68 163.904 136.975C164.303 137.27 164.339 137.309 164.3 137.286C164.26 137.264 164.145 137.178 164.011 137.093C163.877 137.007 163.729 136.925 163.647 136.878C163.564 136.831 163.552 136.822 163.523 136.79" stroke="#0E8C00" stroke-width="0.5" stroke-linecap="round"/>
<path d="M163.582 136.705C163.582 136.683 163.563 136.576 163.372 136.18C163.299 136.03 163.224 135.954 163.149 135.883C163.05 135.789 162.847 135.614 162.638 135.406C162.525 135.294 162.327 135.239 162.067 135.113C161.966 135.05 161.811 134.946 161.445 134.768C161.079 134.591 160.508 134.343 159.919 134.088" stroke="#0E8C00" stroke-width="0.5" stroke-linecap="round"/>
<path d="M160.184 134.09C160.164 134.09 160.044 134.087 159.792 134.055C159.648 134.036 159.478 133.972 159.193 133.853C158.908 133.734 158.514 133.552 158.293 133.454C158.072 133.356 158.034 133.348 158.025 133.348C158.011 133.348 158.071 133.377 158.092 133.402C158.113 133.427 158.109 133.463 158.104 133.495C158.09 133.579 157.993 133.625 157.918 133.682C157.905 133.692 157.93 133.71 158.152 133.721C158.375 133.733 158.803 133.743 159.097 133.739C159.392 133.735 159.54 133.717 159.669 133.708C159.798 133.699 159.903 133.7 160.199 133.753C160.494 133.806 160.977 133.912 161.237 133.97C161.497 134.028 161.519 134.036 161.537 134.043C161.555 134.05 161.568 134.057 161.437 133.977C161.307 133.898 161.032 133.732 160.824 133.618C160.489 133.435 160.321 133.382 160.274 133.367C160.186 133.339 160.115 133.313 160.009 133.282C159.78 133.215 159.709 133.199 159.482 133.145C159.085 133.049 158.971 133.043 158.885 133.036C158.787 133.028 158.642 133.025 158.478 133.025C158.397 133.025 158.319 133.026 158.129 133.037C157.939 133.047 157.638 133.066 157.473 133.078C157.308 133.09 157.288 133.094 157.033 133.173C156.777 133.252 156.287 133.406 155.874 133.563C155.462 133.72 155.142 133.875 154.957 133.97C154.729 134.087 154.665 134.149 154.603 134.202C154.525 134.261 154.302 134.39 154.016 134.55C153.909 134.612 153.877 134.634 153.833 134.668" stroke="#0E8C00" stroke-width="0.5" stroke-linecap="round"/>
<path d="M151.263 135.556C151.28 135.552 151.347 135.526 151.561 135.441C151.66 135.401 151.701 135.315 151.948 135.143C152.188 134.977 152.365 134.904 152.414 134.868C152.59 134.742 152.691 134.693 152.77 134.653C152.853 134.61 153.013 134.511 153.221 134.36C153.295 134.307 153.384 134.249 153.587 134.156C153.954 133.986 154.221 133.92 154.251 133.904C154.282 133.888 154.447 133.84 154.682 133.776C154.79 133.746 154.844 133.727 155.008 133.701C155.138 133.68 155.362 133.653 155.523 133.637C155.777 133.613 155.982 133.642 156.222 133.698C156.692 133.86 156.774 133.903 156.809 133.928C156.826 133.939 156.837 133.949 156.849 133.96" stroke="#0E8C00" stroke-width="0.5" stroke-linecap="round"/>
<path d="M162.984 135.253C162.984 135.253 163.039 135.255 163.203 135.285C163.483 135.336 163.661 135.428 163.697 135.446C163.743 135.469 163.779 135.509 163.883 135.639C163.973 135.75 164.14 135.952 164.422 136.209C164.703 136.466 165.094 136.773 165.322 136.958C165.61 137.192 165.669 137.269 165.668 137.285C165.668 137.296 165.627 137.282 165.395 137.155C165.162 137.028 164.73 136.78 164.481 136.632C164.173 136.449 164.063 136.338 163.953 136.217C163.772 136.019 163.707 135.879 163.625 135.832C163.602 135.819 163.569 135.816 163.55 135.821C163.53 135.826 163.523 135.842 163.525 135.858C163.527 135.874 163.539 135.889 163.958 136.248C164.377 136.607 165.204 137.31 165.637 137.679C166.086 138.062 166.111 138.09 166.145 138.115C166.323 138.202 166.519 138.281 166.558 138.308C166.579 138.323 166.6 138.339 166.646 138.376" stroke="#0E8C00" stroke-width="0.5" stroke-linecap="round"/>
<path d="M167.484 139.426C167.485 139.4 167.477 139.308 167.423 139.179C167.379 139.074 167.321 139.01 167.306 138.947C167.288 138.874 167.22 138.73 167.046 138.451C166.991 138.361 166.847 138.238 166.665 138.066C166.559 137.966 166.447 137.84 166.24 137.664C166.125 137.567 165.977 137.469 165.848 137.369C165.604 137.181 165.486 137.06 165.459 137.012C165.441 136.982 165.422 136.935 165.343 136.789C165.264 136.644 165.128 136.4 165.019 136.232C164.91 136.064 164.833 135.979 164.747 135.899C164.66 135.818 164.567 135.745 164.471 135.669" stroke="#0E8C00" stroke-width="0.5" stroke-linecap="round"/>
<path d="M165.006 135.85C165.006 135.85 165.006 135.85 164.919 135.737C164.832 135.624 164.657 135.399 164.563 135.276C164.442 135.119 164.331 135.073 164.012 134.96C163.898 134.92 163.764 134.84 163.514 134.685C163.264 134.531 162.904 134.297 162.641 134.145C162.378 133.994 162.223 133.934 161.791 133.833C161.359 133.732 160.656 133.592 160.28 133.52C159.905 133.447 159.879 133.446 159.852 133.444" stroke="#0E8C00" stroke-width="0.5" stroke-linecap="round"/>
<path d="M166.639 137.849C166.657 137.863 166.736 137.927 166.912 138.108C167.01 138.208 167.056 138.259 167.108 138.326C167.151 138.383 167.19 138.429 167.222 138.476C167.273 138.553 167.354 138.691 167.47 138.957C167.546 139.129 167.634 139.384 167.7 139.555C167.797 139.806 167.851 139.933 167.884 140.067C167.976 140.446 167.96 140.593 167.998 140.701C168.036 140.776 168.066 140.841 168.1 140.901C168.107 140.916 168.114 140.931 168.13 140.964" stroke="#0E8C00" stroke-width="0.5" stroke-linecap="round"/>
<path d="M159.822 133.334C159.766 133.295 159.575 133.165 159.474 133.116C159.36 133.061 159.28 133.051 159.221 133.012C159.162 132.974 159.087 132.974 158.957 132.957C158.918 132.952 158.875 132.951 158.723 132.949C158.571 132.947 158.31 132.944 158.053 132.958C157.797 132.971 157.554 133.001 157.4 133.025C157.105 133.07 156.967 133.188 156.727 133.312C156.437 133.461 156.093 133.494 156.132 133.466C156.197 133.42 156.328 133.344 156.502 133.273C156.801 133.15 157.088 133.177 157.209 133.164C157.365 133.148 157.45 133.152 157.566 133.133C157.637 133.122 157.881 133.074 158.366 133.032C158.64 133.008 158.975 133.02 159.188 133.02C159.48 133.02 159.661 133.015 159.85 133.029C159.943 133.036 160.025 133.075 160.335 133.227C160.645 133.379 161.18 133.65 161.447 133.78C161.714 133.91 161.697 133.89 161.435 133.778C161.172 133.666 160.665 133.463 160.363 133.337C159.874 133.134 159.815 133.092 159.693 133.057C159.533 133.011 159.397 132.982 159.175 132.97C159.006 132.96 158.686 132.978 158.367 133.004C158.049 133.03 157.741 133.075 157.348 133.183C156.956 133.291 156.487 133.461 156.206 133.568C155.924 133.676 155.843 133.715 155.741 133.774C155.383 134 155.309 134.08 155.26 134.18C155.255 134.202 155.255 134.221 155.255 134.241" stroke="#0E8C00" stroke-width="0.5" stroke-linecap="round"/>
<rect x="106.593" y="61" width="17.1102" height="1.15899" transform="rotate(30.7837 106.593 61)" fill="#832222"/>
<path d="M128.952 74.6729L119.23 72.217L122.163 67.2926L128.952 74.6729Z" fill="#AB9F9F"/>
<line x1="39.0534" y1="231.418" x2="46.1235" y2="194.437" stroke="#9F9F9F" stroke-width="6"/>
<path d="M68.0701 230.981L61 194" stroke="#9F9F9F" stroke-width="6"/>
<rect width="4.77012" height="7.71277" transform="matrix(-0.965926 -0.258819 -0.258819 0.965926 46.6038 206.235)" fill="#8D8D8D"/>
<rect x="60.8201" y="206.461" width="4.77012" height="7.71277" transform="rotate(-15 60.8201 206.461)" fill="#8D8D8D"/>
<rect width="21" height="41" transform="matrix(-1 0 0 1 64.3679 154)" fill="#999999"/>
<ellipse cx="10.5" cy="10" rx="10.5" ry="10" transform="matrix(-1 0 0 1 64.3679 135)" fill="#8D8D8D"/>
<rect width="10" height="3" transform="matrix(-1 0 0 1 58.3679 143)" fill="black"/>
<line x1="84.0779" y1="229.035" x2="93.7708" y2="187.321" stroke="#EFE9C9" stroke-width="6"/>
<line y1="-3.5" x2="42.8257" y2="-3.5" transform="matrix(-0.226334 -0.97405 -0.97405 0.226334 110.693 229.714)" stroke="#EFE9C9" stroke-width="7"/>
<path d="M89.3679 185L83.3679 197.423L88.0345 194.808L89.3679 199.385L92.0345 194.808L95.3679 201.346L98.0345 194.808L101.368 201.346L104.035 195.462L108.035 202L109.368 195.462L115.368 201.346L111.368 185H89.3679Z" fill="#009A0A" stroke="#009A0A"/>
<line x1="143.053" y1="229.541" x2="150.338" y2="191.437" stroke="#0DA000" stroke-width="6"/>
<line y1="-3" x2="38.7945" y2="-3" transform="matrix(-0.18778 -0.982211 -0.982211 0.18778 169.285 232.104)" stroke="#0DA000" stroke-width="6"/>
<rect width="17.3412" height="33.5986" transform="matrix(-0.805987 0.591934 0.591934 0.805987 207.977 59)" fill="white"/>
<path d="M208.466 64.695L207.908 59.0532L223.306 80.0184L217.245 79.0904L214.037 74.7227L211.471 71.2285L208.466 64.695Z" fill="#020048" stroke="#020048" stroke-width="0.2"/>
<path d="M199.148 71.5383L193.932 69.3181L209.329 90.2833L210.257 84.2229L207.049 79.8551L204.483 76.3609L199.148 71.5383Z" fill="#020048" stroke="#020048" stroke-width="0.2"/>
<circle cx="8.12869" cy="8.12869" r="8.12869" transform="matrix(-0.805987 0.591934 0.591934 0.805987 198.053 47.4651)" fill="#EFE9C9"/>
<rect width="14.0897" height="15.1736" transform="matrix(-0.805987 0.591934 0.591934 0.805987 190.122 38.4971)" fill="#020048"/>
<path d="M184.913 49.0953C184.971 48.9886 185.021 48.6738 184.833 48.0147C184.722 47.6243 184.583 47.3061 184.476 46.8463C184.383 46.4476 184.269 45.9009 183.795 45.1158C183.54 44.6938 183.469 44.3198 183.289 43.7175C183.155 43.2667 182.971 42.9443 182.657 42.3646C182.352 41.8026 181.75 40.7186 181.124 39.4955C180.697 38.6605 180.579 38.2225 180.257 37.915C179.813 37.4908 179.456 37.4193 178.923 37.1839C178.553 37.021 178.216 36.9508 177.819 36.9405C177.479 36.9317 177.029 37.3656 176.69 37.695C176.628 37.7551 176.602 37.829 176.603 37.9011C176.609 38.2549 176.94 38.5745 176.937 38.9181C176.933 39.3289 176.784 39.8212 176.742 40.1933C176.705 40.527 177.232 41.2419 177.413 41.8076C177.526 42.1583 177.723 42.7493 178.627 43.929C178.866 44.2411 179.434 44.6315 180.256 45.305C181.377 46.222 181.827 47.147 182.361 47.9462C182.606 48.314 183.047 48.6952 183.751 49.2462C184.082 49.505 184.353 49.5071 184.502 49.5457C184.58 49.5659 184.671 49.5299 184.728 49.4737C184.784 49.4175 184.805 49.3275 184.821 49.2435C184.837 49.1595 184.846 49.0843 184.899 48.8491" stroke="#FF0000" stroke-linecap="round"/>
<path d="M184.22 48.8121C184.091 48.6302 183.708 48.0439 183.278 46.7145C183.01 45.8863 182.579 44.7226 182.291 44.1433C181.893 43.3421 181.725 42.4358 181.483 41.8235C181.252 41.2395 180.514 40.5123 180.109 39.9641C179.83 39.5865 179.281 38.4785 178.808 37.9886C178.593 37.7662 178.209 37.8214 177.859 37.8774C177.775 37.8909 177.709 37.9373 177.67 37.9943C177.501 38.2426 177.636 38.6243 177.608 38.9498C177.571 39.3829 177.573 39.8703 177.569 40.2316C177.565 40.6045 177.783 40.9556 177.848 41.2856C177.923 41.6704 178.218 42.0645 179.436 43.8021C180.038 44.6612 180.591 45.3352 180.92 45.633C181.254 45.9358 181.697 46.4609 182.031 46.85C182.309 47.1725 182.641 47.4919 182.996 47.863C183.353 48.2358 183.562 48.3999 183.699 48.412C183.763 48.4177 183.806 48.3294 183.819 48.2467C183.904 47.6961 183.616 46.9941 183.596 46.6293C183.578 46.2949 183.555 45.9608 183.416 45.6364C183.18 45.0855 182.528 44.2132 182.381 43.7425C182.172 43.075 181.461 41.7657 180.974 41.0478C180.617 40.5204 180.524 40.1297 180.335 39.7123C179.993 38.9542 179.737 38.6506 179.612 38.4969C179.376 38.208 178.82 38.4369 178.441 38.4304C178.362 38.429 178.288 38.4256 178.276 38.5464C178.207 39.2595 178.523 39.9958 178.572 40.5833C178.63 41.2872 178.72 41.7212 178.882 42.0643C179.058 42.4385 179.322 42.8837 180.718 44.8706C181.277 45.6654 181.985 45.9942 182.595 46.2962C182.72 46.358 182.822 46.3922 182.797 46.3375C182.685 46.0906 182.136 45.5276 181.529 44.6335C180.965 43.8026 180.431 42.8055 179.826 41.9674C179.35 41.308 179.147 40.8741 178.998 40.5031C178.742 39.8673 178.567 39.622 178.544 39.449C178.488 39.0232 180.023 40.8762 180.728 41.7599C180.93 42.0127 181.16 42.2388 181.321 42.4852C181.438 42.6621 181.428 42.9414 181.383 43.2011C181.34 43.2836 181.256 43.2663 181.16 43.1856C181.064 43.1049 180.958 42.9613 180.85 42.8134" stroke="#FF0000" stroke-linecap="round"/>
<line x1="230.17" y1="120.639" x2="215.55" y2="93.4197" stroke="white" stroke-width="6"/>
<path d="M227.096 122.561L232.776 119.214L225.172 105.082L219.492 108.429L227.096 122.561Z" fill="black" stroke="#020048" stroke-width="0.2"/>
<path d="M226 89L225 88L226 87.5V89Z" stroke="white"/>
<path d="M226 90.5L224 89L224.5 88L226 89.5V90.5Z" stroke="white"/>
<path d="M224.5 90L226 91.5L223.5 89.5L226 92L222.5 88.5L226.5 93" stroke="white"/>
<line x1="196.225" y1="87.4247" x2="208.508" y2="61.8559" stroke="#020048" stroke-width="5"/>
<path d="M198.492 88.7793L193.592 86.2841L195.325 82.7598L200.225 85.255L198.492 88.7793Z" fill="#EFE9C9" stroke="#EFE9C9" stroke-width="0.2"/>
</g>
<defs>
<clipPath id="clip0_33_1250">
<rect width="226" height="226" fill="white"/>
</clipPath>
</defs>
</svg>
