<svg width="66" height="75" viewBox="0 0 66 75" fill="none" xmlns="http://www.w3.org/2000/svg">
<line x1="14.1038" y1="73.7393" x2="21.4569" y2="42.0947" stroke="#EFE9C9" stroke-width="8"/>
<line y1="-4" x2="32.4877" y2="-4" transform="matrix(-0.226334 -0.97405 -0.97405 0.226334 32.3531 74.6447)" stroke="#EFE9C9" stroke-width="8"/>
<line x1="48.8221" y1="35.0632" x2="30.8222" y2="16.0632" stroke="#EFE9C9" stroke-width="6"/>
<line y1="-3" x2="26.1725" y2="-3" transform="matrix(0.466696 -0.884418 -0.884418 -0.466696 5 37.1475)" stroke="#EFE9C9" stroke-width="6"/>
<rect x="17" y="14" width="16" height="31" fill="#EFE9C9"/>
<path d="M17 41L12.5 50.5L16 48.5L17 52L19 48.5L21.5 53.5L23.5 48.5L26 53.5L28 49L31 54L32 49L36.5 53.5L33.5 41H17Z" fill="#009A0A" stroke="#009A0A"/>
<path d="M47.1218 28.4124L44.5176 32.1538L47.5012 34.0952L50.1055 30.3537L55.5037 25.7123L62.133 18.1346L64.5475 11.5517L64.4527 10.131L63.6949 9.46812L62.9371 8.8052L60.7587 8.23712L54.6501 12.926L48.2106 23.3451L47.1218 28.4124Z" fill="#632323" stroke="#632323"/>
<circle cx="25.5" cy="7.5" r="7.5" fill="#EFE9C9"/>
<rect x="4.55444" y="19.6901" width="3" height="21.778" transform="rotate(-9.90877 4.55444 19.6901)" fill="#632323"/>
<path d="M4.92096 12.8855L10.5109 19.5001L1.98753 21.0338L4.92096 12.8855Z" fill="#9D9D9D"/>
</svg>
