<svg width="66" height="75" viewBox="0 0 66 75" fill="none" xmlns="http://www.w3.org/2000/svg">
<line y1="-4" x2="32.4877" y2="-4" transform="matrix(-0.226334 -0.97405 -0.97405 0.226334 47.9703 74.6447)" stroke="#EFE9C9" stroke-width="8"/>
<line x1="29.721" y1="73.7393" x2="37.0741" y2="42.0947" stroke="#EFE9C9" stroke-width="8"/>
<line y1="-3" x2="26.1725" y2="-3" transform="matrix(0.687744 -0.725953 -0.725953 -0.687744 14.9703 33)" stroke="#EFE9C9" stroke-width="6"/>
<line x1="58.317" y1="38.5475" x2="46.1024" y2="15.4001" stroke="#EFE9C9" stroke-width="6"/>
<rect width="16" height="31" transform="matrix(-1 0 0 1 48.9703 14)" fill="#EFE9C9"/>
<path d="M48.9703 41L53.4703 50.5L49.9703 48.5L48.9703 52L46.9703 48.5L44.4703 53.5L42.4703 48.5L39.9703 53.5L37.9703 49L34.9703 54L33.9703 49L29.4703 53.5L32.4703 41H48.9703Z" fill="#009A0A" stroke="#009A0A"/>
<path d="M18.8484 28.4124L21.4527 32.1538L18.469 34.0952L15.8648 30.3537L10.4665 25.7123L3.83732 18.1346L1.42275 11.5517L1.5176 10.131L2.27537 9.46812L3.03314 8.8052L5.2116 8.23712L11.3202 12.926L17.7597 23.3451L18.8484 28.4124Z" fill="#632323" stroke="#632323"/>
<circle cx="7.5" cy="7.5" r="7.5" transform="matrix(-1 0 0 1 47.9703 0)" fill="#EFE9C9"/>
<rect width="3" height="21.778" transform="matrix(-0.985083 -0.17208 -0.17208 0.985083 61.4158 19.6901)" fill="#632323"/>
<path d="M61.0493 12.8855L55.4594 19.5001L63.9827 21.0338L61.0493 12.8855Z" fill="#9D9D9D"/>
</svg>
