<svg width="89" height="88" viewBox="0 0 89 88" fill="none" xmlns="http://www.w3.org/2000/svg">
<line y1="-2.5" x2="26.1725" y2="-2.5" transform="matrix(0.687744 -0.725953 -0.725953 -0.687744 33 33)" stroke="#9F9F9F" stroke-width="5"/>
<line x1="76.789" y1="38.3142" x2="64.5744" y2="15.1668" stroke="#9F9F9F" stroke-width="5"/>
<rect width="4" height="7" transform="matrix(-0.910852 0.412734 0.412734 0.910852 36.1108 26.6821)" fill="#632323"/>
<rect width="8" height="2" transform="matrix(-0.910852 0.412734 0.412734 0.910852 37.1071 24.035)" fill="#632323"/>
<rect width="4" height="18" transform="matrix(-0.910852 0.412734 0.412734 0.910852 27.8562 8.46509)" fill="#EAEAEA"/>
<path d="M24.2128 10.116L27.8562 8.46511L23.5581 3.82547L24.2128 10.116Z" fill="#EAEAEA"/>
<rect width="57" height="22" transform="matrix(-1 0 0 1 76 45)" fill="#632323"/>
<rect width="7" height="21" transform="matrix(-1 0 0 1 75 67)" fill="#632323"/>
<rect width="7" height="21" transform="matrix(-1 0 0 1 66 67)" fill="#632323"/>
<rect width="7" height="21" transform="matrix(-1 0 0 1 27 67)" fill="#632323"/>
<rect width="7" height="21" transform="matrix(-1 0 0 1 36 67)" fill="#632323"/>
<rect width="5" height="21" transform="matrix(-0.758434 0.65175 0.65175 0.758434 75.3132 44)" fill="#9B1B1B"/>
<rect width="9.18603" height="25.6464" transform="matrix(-0.929452 0.368942 0.368942 0.929452 19.538 26)" fill="#632323"/>
<rect width="20" height="12" transform="matrix(-1 0 0 1 20 18)" fill="#632323"/>
<rect width="2" height="2" transform="matrix(-1 0 0 1 6 22)" fill="black"/>
<line y1="-3" x2="28.5071" y2="-3" transform="matrix(0.809746 -0.586781 -0.586781 -0.809746 39.9165 56.7274)" stroke="#9F9F9F" stroke-width="6"/>
<line x1="32.7493" y1="55.2526" x2="57.0913" y2="40.416" stroke="#9F9F9F" stroke-width="6"/>
<rect width="3.61165" height="5.83965" transform="matrix(-0.456877 -0.88953 -0.88953 0.456877 48.5357 48.0979)" fill="#8D8D8D"/>
<rect x="53.6733" y="48" width="3.61165" height="5.83965" transform="rotate(49.8943 53.6733 48)" fill="#8D8D8D"/>
<rect width="16" height="31" transform="matrix(-1 0 0 1 67 14)" fill="#999999"/>
<circle cx="7.5" cy="7.5" r="7.5" transform="matrix(-1 0 0 1 66 0)" fill="#8D8D8D"/>
<rect width="8" height="2" transform="matrix(-1 0 0 1 62 6)" fill="black"/>
</svg>
