<svg width="89" height="88" viewBox="0 0 89 88" fill="none" xmlns="http://www.w3.org/2000/svg">
<line x1="54.1851" y1="34.7194" x2="36.1851" y2="15.7193" stroke="#9F9F9F" stroke-width="5"/>
<line y1="-2.5" x2="26.1725" y2="-2.5" transform="matrix(0.466696 -0.884418 -0.884418 -0.466696 10 37.1475)" stroke="#9F9F9F" stroke-width="5"/>
<rect x="52.8892" y="26.6821" width="4" height="7" transform="rotate(24.3767 52.8892 26.6821)" fill="#632323"/>
<rect x="51.8929" y="24.035" width="8" height="2" transform="rotate(24.3767 51.8929 24.035)" fill="#632323"/>
<rect x="61.1438" y="8.46509" width="4" height="18" transform="rotate(24.3767 61.1438 8.46509)" fill="#EAEAEA"/>
<path d="M64.7872 10.116L61.1438 8.46511L65.4419 3.82547L64.7872 10.116Z" fill="#EAEAEA"/>
<rect x="13" y="45" width="57" height="22" fill="#632323"/>
<rect x="14" y="67" width="7" height="21" fill="#632323"/>
<rect x="23" y="67" width="7" height="21" fill="#632323"/>
<rect x="62" y="67" width="7" height="21" fill="#632323"/>
<rect x="53" y="67" width="7" height="21" fill="#632323"/>
<rect x="13.6868" y="44" width="5" height="21" transform="rotate(40.6737 13.6868 44)" fill="#9B1B1B"/>
<rect x="69.462" y="26" width="9.18603" height="25.6464" transform="rotate(21.6504 69.462 26)" fill="#632323"/>
<rect x="69" y="18" width="20" height="12" fill="#632323"/>
<rect x="83" y="22" width="2" height="2" fill="black"/>
<line x1="47.3232" y1="59.1567" x2="24.2396" y2="42.4292" stroke="#9F9F9F" stroke-width="6"/>
<line y1="-3" x2="28.5071" y2="-3" transform="matrix(-0.853892 -0.520451 -0.520451 0.853892 54.6893 57.8143)" stroke="#9F9F9F" stroke-width="6"/>
<rect x="40.4643" y="48.0979" width="3.61165" height="5.83965" transform="rotate(-62.8142 40.4643 48.0979)" fill="#8D8D8D"/>
<rect width="3.61165" height="5.83965" transform="matrix(-0.644199 0.764858 0.764858 0.644199 35.3267 48)" fill="#8D8D8D"/>
<rect x="22" y="14" width="16" height="31" fill="#999999"/>
<circle cx="30.5" cy="7.5" r="7.5" fill="#8D8D8D"/>
<rect x="27" y="6" width="8" height="2" fill="black"/>
</svg>
