<svg width="90" height="108" viewBox="0 0 90 108" fill="none" xmlns="http://www.w3.org/2000/svg">
<rect x="13.4789" y="64.7913" width="57" height="22" fill="#F4F4F4"/>
<rect x="14.4789" y="86.7913" width="7" height="21" fill="#F4F4F4"/>
<rect x="23.4789" y="86.7913" width="7" height="21" fill="#F4F4F4"/>
<rect x="62.4789" y="86.7913" width="7" height="21" fill="#F4F4F4"/>
<rect x="53.4789" y="86.7913" width="7" height="21" fill="#F4F4F4"/>
<rect x="13.6868" y="63.7913" width="5" height="21" transform="rotate(40.6737 13.6868 63.7913)" fill="#FFBF00"/>
<rect x="69.941" y="45.7913" width="9.18603" height="25.6464" transform="rotate(21.6504 69.941 45.7913)" fill="#F4F4F4"/>
<rect x="69.4789" y="37.7913" width="20" height="12" fill="#F4F4F4"/>
<rect x="83.4789" y="41.7913" width="2" height="2" fill="black"/>
<path d="M79.4789 36.4101C78.5252 36.4192 76.6258 36.4975 76.2346 36.6556C75.8844 36.7971 75.503 37.0803 74.1839 38.4875C73.6689 39.0369 73.3132 39.3454 72.939 39.5639C72.7027 39.7018 72.4518 39.9054 71.9544 40.5413C70.865 41.9339 70.2483 43.1287 70.0534 43.5133C69.4801 44.6443 68.891 46.2288 68.6383 47.3908C68.5413 47.8366 68.1994 49.0749 67.6481 50.6589C67.3194 51.6032 67.3099 52.1797 67.1361 52.802C66.8807 53.7161 67.0367 49.1474 67.2182 48.5398C67.3505 48.0971 67.614 47.1612 68.3806 45.3195C68.8017 44.3077 69.0911 43.5988 69.3848 43.1286C69.84 42.3996 70.632 41.4098 71.4348 40.4402C72.504 39.1489 73.9713 38.3871 74.5636 37.8602C75.1857 37.3069 75.1936 36.7255 75.3945 36.3877C75.4436 36.3052 75.4772 36.2155 75.4491 36.1582C75.2924 35.839 74.628 36.144 73.9223 36.4348C73.3463 36.6721 73.024 36.8515 72.5912 37.2623C72.3119 37.5275 71.8073 38.2847 70.8908 39.4357C69.8843 40.6996 69.0844 41.4346 68.8091 41.8588C68.0978 42.955 68.0121 43.7385 67.9613 44.1485C67.9314 44.3893 67.8293 44.8863 67.6954 45.3865C67.5198 46.0426 67.7893 43.3152 68.1613 41.761C68.3987 40.7688 68.8627 40.3906 69.1248 39.896C69.6284 38.9461 70.5938 38.2718 70.9696 38.059C71.3341 37.8526 71.6154 37.5998 71.6971 37.5459C72.1216 37.2665 70.8684 38.3022 70.4878 38.5574C69.9028 38.9498 69.258 39.1517 68.7197 39.3484C68.6201 39.3938 68.5377 39.4338 68.4503 39.4743C68.363 39.5149 68.2731 39.5548 67.986 39.6623" stroke="#FFBF00" stroke-width="2" stroke-linecap="round"/>
<line x1="53.0712" y1="80.7125" x2="31.2965" y2="62.3137" stroke="white" stroke-width="6"/>
<line y1="-3" x2="28.5071" y2="-3" transform="matrix(-0.817047 -0.576571 -0.576571 0.817047 63.8422 79.8043)" stroke="white" stroke-width="6"/>
<line x1="62.0699" y1="54.7416" x2="44.07" y2="35.7416" stroke="#020048" stroke-width="5"/>
<line y1="-2.5" x2="26.1725" y2="-2.5" transform="matrix(0.466696 -0.884418 -0.884418 -0.466696 17.8848 57.1697)" stroke="#020048" stroke-width="5"/>
<rect x="29.8848" y="34.0222" width="16" height="31" fill="white"/>
<circle cx="38.3848" cy="27.5222" r="7.5" fill="#EFE9C9"/>
<rect x="31.8848" y="9.02222" width="13" height="14" fill="#020048"/>
<path d="M41.5469 14.058C41.4452 14.0107 41.236 13.8039 41.016 13.2109C40.8857 12.8597 40.8151 12.5472 40.6434 12.147C40.4946 11.8 40.2811 11.3309 40.2049 10.4881C40.164 10.0351 40.0121 9.71843 39.8171 9.17216C39.6711 8.76336 39.6314 8.42339 39.5488 7.82051C39.4686 7.23601 39.3241 6.10122 39.1212 4.85011C38.9827 3.99596 38.8318 3.60536 38.9031 3.20093C39.0016 2.64301 39.2278 2.39501 39.496 1.92868C39.6816 1.60577 39.8941 1.36941 40.184 1.14473C40.4321 0.952465 41.0038 1.0293 41.4358 1.08903C41.5147 1.09995 41.5741 1.14091 41.6126 1.19515C41.8016 1.46139 41.7296 1.88009 41.9197 2.13389C42.1469 2.43726 42.5268 2.72174 42.761 2.97573C42.971 3.20351 42.9699 4.02278 43.1437 4.54272C43.2515 4.86503 43.4277 5.41206 43.3998 6.78313C43.3924 7.14584 43.1835 7.74608 42.9395 8.69635C42.6074 9.99 42.7776 10.9238 42.8171 11.8097C42.8353 12.2174 42.7162 12.7413 42.493 13.5359C42.3882 13.9092 42.1882 14.0585 42.0984 14.1687C42.0516 14.2261 41.964 14.2493 41.8912 14.2383C41.8185 14.2274 41.7536 14.172 41.696 14.1182C41.6384 14.0643 41.5902 14.0136 41.4227 13.8674" stroke="#FF0000" stroke-linecap="round"/>
<path d="M41.9075 13.4694C41.9045 13.2634 41.8688 12.6185 41.4626 11.395C41.2095 10.6327 40.8946 9.53181 40.7923 8.94378C40.6509 8.13046 40.2802 7.36522 40.1261 6.77746C39.9791 6.21689 40.1306 5.27317 40.1324 4.64426C40.1336 4.21111 39.937 3.08722 40.0213 2.46452C40.0595 2.18182 40.3751 2.01325 40.6657 1.8639C40.7355 1.82803 40.8102 1.82628 40.8702 1.84749C41.1314 1.93988 41.2394 2.29759 41.4381 2.52421C41.7026 2.82584 41.9668 3.18968 42.1672 3.45615C42.374 3.73115 42.4035 4.11139 42.5357 4.39205C42.6899 4.7193 42.6854 5.1737 42.7288 7.13101C42.7503 8.09869 42.7071 8.90195 42.6254 9.30295C42.5424 9.71051 42.5 10.3427 42.4637 10.8149C42.4336 11.2061 42.3607 11.6252 42.2994 12.0951C42.2378 12.5671 42.1718 12.8035 42.0768 12.8871C42.0324 12.9262 41.9516 12.8844 41.8969 12.8299C41.5329 12.467 41.364 11.7874 41.1794 11.5055C41.0101 11.2469 40.8449 10.9858 40.7712 10.6685C40.6461 10.1298 40.6543 9.12523 40.5066 8.69485C40.2972 8.08447 40.111 6.72235 40.0809 5.92267C40.0588 5.33516 39.9141 4.99419 39.8265 4.58066C39.6675 3.82965 39.6915 3.4645 39.7008 3.28167C39.7181 2.9382 40.2571 2.80445 40.5351 2.59284C40.5933 2.54853 40.6467 2.50545 40.7213 2.5889C41.1619 3.08169 41.3289 3.80181 41.6138 4.26516C41.9551 4.82023 42.1246 5.19261 42.1919 5.53603C42.2652 5.91048 42.3119 6.38593 42.359 8.62576C42.3779 9.52171 42.0309 10.153 41.7421 10.7108C41.6829 10.825 41.6258 10.9062 41.6143 10.8519C41.5628 10.6072 41.6639 9.88837 41.6266 8.89223C41.592 7.96646 41.4451 6.9329 41.437 5.97949C41.4305 5.22932 41.3445 4.79579 41.2529 4.43846C41.0958 3.82593 41.092 3.54793 41.0147 3.40666C40.8243 3.05907 40.6947 5.2755 40.6526 6.31797C40.6406 6.61618 40.5934 6.90968 40.6077 7.1813C40.6179 7.37635 40.7777 7.57868 40.9529 7.74726C41.0299 7.78516 41.0831 7.72631 41.1104 7.61382C41.1378 7.50134 41.1378 7.33699 41.1378 7.16767" stroke="#FF0000" stroke-linecap="round"/>
<path d="M63.8848 53.0222L60.3848 56.5222L57.8848 54.0222L61.3848 50.5222L63.8848 53.0222Z" fill="#EFE9C9" stroke="#EFE9C9" stroke-width="0.2"/>
<path d="M17.6755 57.3089L22.2158 59.5718L23.8777 56.3518L19.3373 54.0889L17.6755 57.3089Z" fill="#EFE9C9" stroke="#EFE9C9" stroke-width="0.2"/>
<path d="M32.5515 38.5222L29.8848 34.0222V58.0222L33.8848 54.0222V49.0222V45.0222L32.5515 38.5222Z" fill="#020048" stroke="#020048" stroke-width="0.2"/>
<path d="M43.2182 38.5222L45.8848 34.0222V58.0222L41.8848 54.0222V49.0222V45.0222L43.2182 38.5222Z" fill="#020048" stroke="#020048" stroke-width="0.2"/>
<path d="M43.4073 68.4493L39.5929 73.1874L51.193 83.1592L55.0075 78.4211L43.4073 68.4493Z" fill="black" stroke="#020048" stroke-width="0.2"/>
<path d="M67.5438 74.9421L63.8427 79.7694L51.7506 71.2236L55.4517 66.3963L67.5438 74.9421Z" fill="black" stroke="#020048" stroke-width="0.2"/>
<rect width="3.7779" height="47.0118" transform="matrix(-0.987994 0.154492 0.154492 0.987994 18.036 26.0837)" fill="#8A0D0D"/>
<path d="M18 26.3794L15 27.0222L12 0.0222168L18 26.3794Z" fill="#D9D9D9" stroke="#D9D9D9" stroke-width="0.2"/>
<path d="M76.1917 37.6288C76.7147 37.6657 77.9869 37.6153 78.4255 37.5496C78.9306 37.4739 79.4685 37.3307 79.9276 37.2751C80.1527 37.2479 80.3832 37.2998 80.5358 37.2963C80.4496 36.9575 80.3102 36.6388 80.2095 36.4622C80.1418 36.3911 80.0404 36.3576 79.6446 36.323" stroke="#FFBF00" stroke-linecap="round"/>
<rect x="60.0145" y="43.91" width="4" height="11.6602" transform="rotate(4.99153 60.0145 43.91)" fill="#8A0D0D"/>
<rect x="59.2502" y="43.7943" width="16" height="3" transform="rotate(-29.5301 59.2502 43.7943)" fill="#8A0D0D"/>
<rect x="73.1718" y="35.9083" width="16" height="1" transform="rotate(-29.5301 73.1718 35.9083)" fill="#D9D9D9"/>
<rect x="73.6647" y="36.7786" width="14" height="1" transform="rotate(-29.5301 73.6647 36.7786)" fill="#D9D9D9"/>
</svg>
