<svg width="90" height="108" viewBox="0 0 90 108" fill="none" xmlns="http://www.w3.org/2000/svg">
<rect width="57" height="22" transform="matrix(-1 0 0 1 76 64.7913)" fill="#F4F4F4"/>
<rect width="7" height="21" transform="matrix(-1 0 0 1 75 86.7913)" fill="#F4F4F4"/>
<rect width="7" height="21" transform="matrix(-1 0 0 1 66 86.7913)" fill="#F4F4F4"/>
<rect width="7" height="21" transform="matrix(-1 0 0 1 27 86.7913)" fill="#F4F4F4"/>
<rect width="7" height="21" transform="matrix(-1 0 0 1 36 86.7913)" fill="#F4F4F4"/>
<rect width="5" height="21" transform="matrix(-0.758434 0.65175 0.65175 0.758434 75.7922 63.7913)" fill="#FFBF00"/>
<rect width="9.18603" height="25.6464" transform="matrix(-0.929452 0.368942 0.368942 0.929452 19.538 45.7913)" fill="#F4F4F4"/>
<rect width="20" height="12" transform="matrix(-1 0 0 1 20 37.7913)" fill="#F4F4F4"/>
<rect width="2" height="2" transform="matrix(-1 0 0 1 6 41.7913)" fill="black"/>
<path d="M10 36.4101C10.9537 36.4192 12.8532 36.4975 13.2444 36.6556C13.5945 36.7971 13.9759 37.0803 15.2951 38.4875C15.8101 39.0369 16.1657 39.3454 16.54 39.5639C16.7762 39.7018 17.0271 39.9054 17.5246 40.5413C18.6139 41.9339 19.2306 43.1287 19.4255 43.5133C19.9988 44.6443 20.5879 46.2288 20.8407 47.3908C20.9376 47.8366 21.2795 49.0749 21.8309 50.6589C22.1596 51.6032 22.169 52.1797 22.3429 52.802C22.5982 53.7161 22.4423 49.1474 22.2607 48.5398C22.1285 48.0971 21.8649 47.1612 21.0983 45.3195C20.6772 44.3077 20.3878 43.5988 20.0941 43.1286C19.6389 42.3996 18.8469 41.4098 18.0441 40.4402C16.9749 39.1489 15.5077 38.3871 14.9153 37.8602C14.2932 37.3069 14.2853 36.7255 14.0844 36.3877C14.0353 36.3052 14.0017 36.2155 14.0298 36.1582C14.1865 35.839 14.851 36.144 15.5567 36.4348C16.1327 36.6721 16.4549 36.8515 16.8877 37.2623C17.1671 37.5275 17.6716 38.2847 18.5882 39.4357C19.5946 40.6996 20.3945 41.4346 20.6698 41.8588C21.3811 42.955 21.4668 43.7385 21.5176 44.1485C21.5475 44.3893 21.6496 44.8863 21.7835 45.3865C21.9591 46.0426 21.6897 43.3152 21.3177 41.761C21.0802 40.7688 20.6163 40.3906 20.3541 39.896C19.8506 38.9461 18.8851 38.2718 18.5094 38.059C18.1449 37.8526 17.8636 37.5998 17.7818 37.5459C17.3573 37.2665 18.6106 38.3022 18.9911 38.5574C19.5761 38.9498 20.221 39.1517 20.7593 39.3484C20.8589 39.3938 20.9412 39.4338 21.0286 39.4743C21.116 39.5149 21.2058 39.5548 21.493 39.6623" stroke="#FFBF00" stroke-width="2" stroke-linecap="round"/>
<line y1="-3" x2="28.5071" y2="-3" transform="matrix(0.763835 -0.645411 -0.645411 -0.763835 34.4715 78.421)" stroke="white" stroke-width="6"/>
<line x1="23.907" y1="77.3532" x2="47.1986" y2="60.9168" stroke="white" stroke-width="6"/>
<line y1="-2.5" x2="26.1725" y2="-2.5" transform="matrix(0.687744 -0.725953 -0.725953 -0.687744 25.5941 53.0222)" stroke="#020048" stroke-width="5"/>
<line x1="69.3831" y1="58.3364" x2="57.1685" y2="35.189" stroke="#020048" stroke-width="5"/>
<rect width="16" height="31" transform="matrix(-1 0 0 1 59.5941 34.0222)" fill="white"/>
<circle cx="7.5" cy="7.5" r="7.5" transform="matrix(-1 0 0 1 58.5941 20.0222)" fill="#EFE9C9"/>
<rect width="13" height="14" transform="matrix(-1 0 0 1 57.5941 9.02222)" fill="#020048"/>
<path d="M47.932 14.058C48.0338 14.0107 48.2429 13.8039 48.4629 13.2109C48.5932 12.8597 48.6638 12.5472 48.8355 12.147C48.9844 11.8 49.1979 11.3309 49.274 10.4881C49.3149 10.0351 49.4668 9.71843 49.6619 9.17216C49.8079 8.76336 49.8475 8.42339 49.9302 7.82051C50.0103 7.23601 50.1549 6.10122 50.3578 4.85011C50.4963 3.99596 50.6472 3.60536 50.5758 3.20093C50.4774 2.64301 50.2511 2.39501 49.983 1.92868C49.7973 1.60577 49.5849 1.36941 49.2949 1.14473C49.0468 0.952465 48.4752 1.0293 48.0431 1.08903C47.9642 1.09995 47.9048 1.14091 47.8663 1.19515C47.6774 1.46139 47.7493 1.88009 47.5592 2.13389C47.3321 2.43726 46.9521 2.72174 46.7179 2.97573C46.5079 3.20351 46.5091 4.02278 46.3352 4.54272C46.2275 4.86503 46.0512 5.41206 46.0792 6.78313C46.0866 7.14584 46.2954 7.74608 46.5394 8.69635C46.8716 9.99 46.7014 10.9238 46.6618 11.8097C46.6437 12.2174 46.7628 12.7413 46.9859 13.5359C47.0907 13.9092 47.2908 14.0585 47.3806 14.1687C47.4274 14.2261 47.515 14.2493 47.5877 14.2383C47.6604 14.2274 47.7254 14.172 47.7829 14.1182C47.8405 14.0643 47.8888 14.0136 48.0563 13.8674" stroke="#FF0000" stroke-linecap="round"/>
<path d="M47.5714 13.4694C47.5744 13.2634 47.6102 12.6185 48.0164 11.395C48.2695 10.6327 48.5844 9.53181 48.6866 8.94378C48.828 8.13046 49.1987 7.36522 49.3528 6.77746C49.4998 6.21689 49.3483 5.27317 49.3465 4.64426C49.3453 4.21111 49.542 3.08722 49.4577 2.46452C49.4194 2.18182 49.1039 2.01325 48.8132 1.8639C48.7434 1.82803 48.6687 1.82628 48.6088 1.84749C48.3476 1.93988 48.2396 2.29759 48.0409 2.52421C47.7764 2.82584 47.5122 3.18968 47.3117 3.45615C47.1049 3.73115 47.0755 4.11139 46.9433 4.39205C46.7891 4.7193 46.7935 5.1737 46.7501 7.13101C46.7287 8.09869 46.7719 8.90195 46.8536 9.30295C46.9366 9.71051 46.9789 10.3427 47.0152 10.8149C47.0453 11.2061 47.1182 11.6252 47.1795 12.0951C47.2412 12.5671 47.3072 12.8035 47.4022 12.8871C47.4465 12.9262 47.5273 12.8844 47.582 12.8299C47.9461 12.467 48.115 11.7874 48.2996 11.5055C48.4689 11.2469 48.6341 10.9858 48.7078 10.6685C48.8329 10.1298 48.8246 9.12523 48.9723 8.69485C49.1818 8.08447 49.3679 6.72235 49.398 5.92267C49.4202 5.33516 49.5648 4.99419 49.6524 4.58066C49.8115 3.82965 49.7874 3.4645 49.7782 3.28167C49.7608 2.9382 49.2219 2.80445 48.9438 2.59284C48.8856 2.54853 48.8323 2.50545 48.7577 2.5889C48.3171 3.08169 48.15 3.80181 47.8651 4.26516C47.5238 4.82023 47.3543 5.19261 47.2871 5.53603C47.2137 5.91048 47.1671 6.38593 47.1199 8.62576C47.101 9.52171 47.448 10.153 47.7369 10.7108C47.796 10.825 47.8532 10.9062 47.8646 10.8519C47.9162 10.6072 47.815 9.88837 47.8523 8.89223C47.8869 7.96646 48.0338 6.9329 48.042 5.97949C48.0484 5.22932 48.1344 4.79579 48.2261 4.43846C48.3831 3.82593 48.3869 3.54793 48.4643 3.40666C48.6546 3.05907 48.7842 5.2755 48.8263 6.31797C48.8384 6.61618 48.8855 6.90968 48.8713 7.1813C48.8611 7.37635 48.7012 7.57868 48.5261 7.74726C48.449 7.78516 48.3959 7.72631 48.3685 7.61382C48.3412 7.50134 48.3412 7.33699 48.3412 7.16767" stroke="#FF0000" stroke-linecap="round"/>
<path d="M25.5941 53.0222L29.0941 56.5222L31.5941 54.0222L28.0941 50.5222L25.5941 53.0222Z" fill="#EFE9C9" stroke="#EFE9C9" stroke-width="0.2"/>
<path d="M71.8035 57.3089L67.2631 59.5718L65.6012 56.3518L70.1416 54.0889L71.8035 57.3089Z" fill="#EFE9C9" stroke="#EFE9C9" stroke-width="0.2"/>
<path d="M56.9274 38.5222L59.5941 34.0222V58.0222L55.5941 54.0222V49.0222V45.0222L56.9274 38.5222Z" fill="#020048" stroke="#020048" stroke-width="0.2"/>
<path d="M46.2608 38.5222L43.5941 34.0222V58.0222L47.5941 54.0222V49.0222V45.0222L46.2608 38.5222Z" fill="#020048" stroke="#020048" stroke-width="0.2"/>
<path d="M46.0716 68.4493L49.8861 73.1874L38.2859 83.1592L34.4715 78.4211L46.0716 68.4493Z" fill="black" stroke="#020048" stroke-width="0.2"/>
<path d="M21.9352 74.9421L25.6362 79.7694L37.7283 71.2236L34.0273 66.3963L21.9352 74.9421Z" fill="black" stroke="#020048" stroke-width="0.2"/>
<rect x="71.4429" y="26.0837" width="3.7779" height="47.0118" transform="rotate(8.88732 71.4429 26.0837)" fill="#8A0D0D"/>
<path d="M71.4789 26.3794L74.4789 27.0222L77.4789 0.0222168L71.4789 26.3794Z" fill="#D9D9D9" stroke="#D9D9D9" stroke-width="0.2"/>
<path d="M13.2872 37.6288C12.7642 37.6657 11.4921 37.6153 11.0535 37.5496C10.5484 37.4739 10.0104 37.3307 9.5513 37.2751C9.32623 37.2479 9.09576 37.2998 8.94312 37.2963C9.02938 36.9575 9.16878 36.6388 9.26948 36.4622C9.33716 36.3911 9.4385 36.3576 9.8343 36.323" stroke="#FFBF00" stroke-linecap="round"/>
<rect width="4" height="11.6602" transform="matrix(-0.996208 0.0870085 0.0870085 0.996208 29.4644 43.91)" fill="#8A0D0D"/>
<rect width="16" height="3" transform="matrix(-0.870097 -0.49288 -0.49288 0.870097 30.2287 43.7943)" fill="#8A0D0D"/>
<rect width="16" height="1" transform="matrix(-0.870097 -0.49288 -0.49288 0.870097 16.3071 35.9083)" fill="#D9D9D9"/>
<rect width="14" height="1" transform="matrix(-0.870097 -0.49288 -0.49288 0.870097 15.8142 36.7786)" fill="#D9D9D9"/>
</svg>
