<svg width="57" height="32" viewBox="0 0 57 32" fill="none" xmlns="http://www.w3.org/2000/svg">
<rect x="0.600006" y="8.6499" width="39" height="11" fill="#00229C" stroke="#00229C"/>
<rect x="6.60001" y="0.649902" width="27" height="8" fill="#00229C" stroke="#00229C"/>
<path d="M40.1 8.1499L34.1 0.149902V8.1499H40.1Z" fill="#00229C" stroke="#00229C" stroke-width="0.1"/>
<path d="M0.100006 8.1499L6.10001 0.149902V8.1499H0.100006Z" fill="#00229C" stroke="#00229C" stroke-width="0.1"/>
<rect x="6.10001" y="20.1499" width="7" height="7" fill="#011A74"/>
<rect x="27.1" y="20.1499" width="7" height="7" fill="#011A74"/>
<path d="M6.30562 27.0457C6.30988 27.3944 6.38612 28.1314 6.50897 28.4882C6.56692 28.6565 6.59082 29.2001 6.6178 29.8546C6.62596 30.0527 6.69639 29.972 6.77174 29.8805C7.1218 29.4557 7.38461 29.0811 7.49948 28.9176C7.55859 28.8334 7.55505 29.7042 7.56689 30.5634C7.57063 30.8346 7.64728 30.7671 7.70906 30.6871C7.83916 30.5187 7.94815 30.3539 8.04428 30.2878C8.28422 30.123 8.37563 30.7904 8.49899 30.9946C8.63294 31.2164 8.69329 30.45 8.84764 30.0533C8.88663 29.9531 8.94762 29.8781 9.0034 29.8688C9.26953 29.8244 9.3488 30.5726 9.46398 31.0483C9.49658 31.183 9.48556 31.3823 9.5135 31.4482C9.63115 31.7257 9.83778 30.6126 9.95899 30.3226C10.0105 30.1993 10.227 30.4532 10.3578 30.538C10.4237 30.5808 10.5298 30.5303 10.6173 30.3964C10.7048 30.2625 10.7809 30.023 10.8469 29.9391C10.9207 29.8451 11.0808 30.0736 11.2011 30.0674C11.4826 30.0528 11.4221 29.5145 11.5179 29.3575C11.5949 29.2312 11.8105 29.3273 11.9553 29.2949C12.4355 29.1877 12.237 28.5276 12.3906 28.2503C12.4298 28.1795 12.4897 28.1224 12.5344 28.1351C12.6608 28.171 12.6641 28.4061 12.7037 28.4817C12.8618 28.2521 12.9222 27.892 12.9426 27.5395C12.9601 27.3968 12.9918 27.3275 13.0612 27.1307" stroke="#00D0FF" stroke-width="0.5" stroke-linecap="round"/>
<path d="M27.1 27.1499C27.1043 27.4986 27.1805 28.2356 27.3034 28.5924C27.3613 28.7607 27.3852 29.3043 27.4122 29.9589C27.4204 30.1569 27.4908 30.0762 27.5661 29.9848C27.9162 29.5599 28.179 29.1853 28.2939 29.0218C28.353 28.9377 28.3494 29.8085 28.3613 30.6677C28.365 30.9388 28.4417 30.8713 28.5034 30.7914C28.6335 30.6229 28.7425 30.4581 28.8387 30.3921C29.0786 30.2272 29.17 30.8946 29.2934 31.0989C29.4273 31.3207 29.4877 30.5542 29.642 30.1575C29.681 30.0573 29.742 29.9824 29.7978 29.9731C30.0639 29.9286 30.1432 30.6768 30.2584 31.1526C30.291 31.2872 30.2799 31.4865 30.3079 31.5524C30.4255 31.8299 30.6322 30.7168 30.7534 30.4268C30.8049 30.3035 31.0214 30.5574 31.1521 30.6423C31.2181 30.6851 31.3242 30.6345 31.4117 30.5006C31.4992 30.3667 31.5753 30.1273 31.6412 30.0433C31.715 29.9493 31.8751 30.1779 31.9955 30.1717C32.277 30.1571 32.2165 29.6188 32.3123 29.4618C32.3893 29.3354 32.6048 29.4315 32.7497 29.3992C33.2299 29.2919 33.0314 28.6319 33.185 28.3546C33.2242 28.2838 33.2841 28.2267 33.3288 28.2394C33.4552 28.2753 33.4585 28.5104 33.4981 28.586C33.6562 28.3563 33.7166 27.9962 33.737 27.6438C33.7544 27.5011 33.7862 27.4317 33.8556 27.235" stroke="#00D0FF" stroke-width="0.5" stroke-linecap="round"/>
<rect x="40.1" y="8.1499" width="12" height="8" fill="#011A74"/>
<circle cx="52.1" cy="12.1499" r="4" fill="#000C35"/>
<path d="M6.83154 27.8266C6.85769 27.8266 7.1978 27.8356 7.73369 27.8549C8.14448 27.8698 8.47033 28.0715 8.73679 28.2611C8.83625 28.3319 8.90697 28.447 8.95403 28.527C8.97198 28.5575 8.63667 28.5193 8.2188 28.4603C7.73013 28.3914 7.18875 27.9691 7.08274 27.9148C7.05884 27.9026 7.03238 27.8991 7.00746 27.907C6.86641 27.9515 6.86118 28.2166 6.84981 28.5941C6.84048 28.904 6.84012 29.0827 6.86719 29.1377C6.98678 29.3807 7.23316 28.2382 7.29134 28.2552C7.48049 28.3103 7.5294 28.5862 7.63498 28.7045C7.76751 28.853 8.01131 28.96 8.08542 29.0804C8.2301 29.3153 7.97638 29.6096 7.95814 30.0026C7.95518 30.0663 7.93486 30.0407 7.92695 29.9869C7.87655 29.6438 7.78326 29.122 7.6836 28.7329C7.65179 28.6087 7.68071 28.6281 7.70798 28.6632C7.96892 28.9988 8.15125 29.6034 8.28232 29.7522C8.36476 29.8457 8.45559 30.1342 8.54171 30.33C8.55497 30.3601 8.58438 30.3842 8.59909 30.3843C8.63264 30.3843 8.61832 30.1289 8.60799 29.8096C8.59581 29.4332 8.10995 29.101 8.02468 28.9853C7.98935 28.9374 7.99889 28.8351 8.01464 28.7361C8.05227 28.4996 8.62016 29.0686 8.70924 29.1983C8.82886 29.3725 8.90193 29.4902 9.28662 29.6941C9.41901 29.7643 9.47145 29.8421 9.50102 29.9366C9.58623 30.2086 9.55757 30.4462 9.57049 30.4794C9.62734 30.6253 9.44405 29.9489 9.14806 29.5295C8.69869 28.8927 8.30944 28.7619 8.30499 28.7003C8.3017 28.6549 8.4357 28.6723 8.66171 28.7339C9.44231 28.9464 9.59684 29.2493 9.70194 29.3985C9.85772 29.6196 9.93479 29.7019 10.0399 29.8215C10.1662 29.9653 10.2826 30.0551 10.3425 30.1246C10.4484 30.2472 9.95899 29.9418 9.75598 29.791C9.10005 29.3039 9.04514 29.1111 8.94653 28.9917C8.92258 28.9627 8.89367 28.9361 8.6799 28.7705C8.46613 28.605 8.06645 28.303 7.83545 28.134C7.38673 27.8057 6.98106 27.717 6.72833 27.5911C6.56702 27.5108 6.54739 27.3731 6.48969 27.2677C6.47484 27.2405 6.4646 27.2115 6.46908 27.1888C6.47799 27.1437 6.55269 27.125 6.62949 27.1109C6.85934 27.0686 7.12534 27.2097 7.45158 27.2147C7.74176 27.2191 8.28513 27.2106 8.58696 27.2061C8.93275 27.2009 9.27131 27.1906 9.73739 27.1844C9.95329 27.1816 10.1046 27.133 10.3919 27.0852C10.8153 27.0148 11.1613 27.0911 11.3777 27.1081C11.9383 27.1522 12.2768 27.1672 12.5903 27.2257C12.7005 27.2463 12.7029 27.2856 12.6972 27.3264C12.673 27.4999 12.6489 27.6324 12.6341 27.7608C12.6262 27.8289 12.4643 27.8174 12.3016 27.8109C12.1948 27.8066 11.8566 27.6774 11.367 27.4921C11.1776 27.4204 11.1037 27.4064 10.7758 27.3915C10.4479 27.3766 9.86715 27.3642 9.42835 27.3797C8.98954 27.3952 8.71029 27.4389 8.46208 27.4617C8.00649 27.5035 7.6187 27.4786 7.29844 27.4502C7.14868 27.4369 7.02864 27.3931 7.00845 27.3778C6.95682 27.3388 7.37868 27.4194 7.75277 27.5015C8.19858 27.5993 8.52032 27.6799 8.67324 27.7061C8.89505 27.744 8.93575 28.1504 9.26643 28.4812C9.65024 28.8652 10.0804 29.1061 10.2964 29.2398C10.4289 29.3218 10.4761 29.392 10.5012 29.4376C10.5953 29.6083 10.5672 29.9307 10.5619 30.0401C10.2187 29.8068 9.73225 29.3879 9.63348 29.2318C9.61683 29.1955 9.60847 29.1656 9.59986 29.0639" stroke="#00D0FF" stroke-width="0.5" stroke-linecap="round"/>
<path d="M9.80547 29.2022C9.80781 29.2058 9.81015 29.2093 9.81874 29.2222C9.93166 29.3915 10.4294 29.3027 10.7848 29.3223C10.8587 29.3264 10.8869 29.346 10.9133 29.3734C11.0216 29.4857 11.0524 29.6094 11.1708 29.6798C11.3196 29.7683 11.1629 29.2359 11.2276 29.102C11.2881 28.9767 11.4222 28.9199 11.5984 28.817C11.7501 28.7284 11.7882 28.6035 11.8619 28.4566C11.9637 28.2537 12.0154 28.008 12.1586 27.7746C12.2034 27.7017 12.3295 27.6713 12.4388 27.6396C12.4676 27.6313 12.4368 27.6236 12.2217 27.6184C12.0066 27.6132 11.6069 27.6069 11.0982 27.6305C10.5895 27.6541 9.98405 27.7078 9.63026 27.7456C9.27647 27.7833 9.19274 27.8033 9.16882 27.8229C9.13726 27.8488 9.44488 27.9025 10.0357 27.9333C10.4041 27.9525 10.9135 27.9356 11.2063 27.9342C11.5604 27.9325 11.6543 27.9636 11.7121 28.011C11.8099 28.0912 11.835 28.2118 11.8998 28.3473C11.974 28.5025 11.9925 28.6249 12.0617 28.7392C12.1096 28.8183 12.1376 28.8993 12.1448 28.9608C12.1513 29.0159 12.1157 29.0616 12.0762 29.098C11.9923 29.1752 11.8022 29.1629 11.576 29.1233C11.4589 29.1029 11.2605 29.0406 11.011 28.9979C10.7614 28.9553 10.4686 28.9254 10.1494 28.8692C9.48957 28.753 9.12005 28.6353 9.0687 28.6061C8.9655 28.5475 8.95391 28.4194 8.95748 28.3455C8.95922 28.3096 9.02604 28.2963 9.33529 28.3288C9.64454 28.3613 10.2109 28.445 10.6144 28.5207C11.2463 28.6393 11.4931 28.7097 11.5223 28.6648C11.5911 28.5594 11.3877 28.3975 11.2722 28.3041C10.9395 28.2826 10.2232 28.2628 10.0533 28.2327C10.1196 28.2224 10.4958 28.2224 10.9426 28.205" stroke="#00D0FF" stroke-width="0.5" stroke-linecap="round"/>
<path d="M27.1243 27.1612C27.1243 27.1595 27.1561 27.154 27.4423 27.1475C27.6966 27.1417 28.1726 27.1467 28.4852 27.1561C28.7977 27.1654 28.9324 27.1829 29.3066 27.1969C29.6809 27.2108 30.2906 27.2207 30.7047 27.2241C31.1187 27.2275 31.3186 27.224 31.7259 27.2341C32.1332 27.2442 32.7419 27.2678 33.0808 27.2756C33.4705 27.2846 33.5999 27.2604 33.704 27.2597C33.7881 27.2592 33.5418 27.4282 33.4696 27.5631C33.3931 27.7061 33.3879 27.8789 33.3559 27.9725C33.304 28.1244 33.178 27.7817 32.7165 27.5881C32.5743 27.5284 32.4253 27.522 31.8521 27.49C31.2789 27.4581 30.2801 27.4171 29.6743 27.3948C29.0686 27.3726 28.886 27.3704 28.7384 27.3754C28.2672 27.3912 28.0091 27.4104 27.7503 27.4431C27.6523 27.4555 27.5251 27.4493 27.4554 27.4599C27.3857 27.4705 27.3767 27.4916 27.3723 27.5338C27.3615 27.638 27.3736 27.737 27.391 27.8356C27.4191 27.9954 27.4602 28.2536 27.5094 28.5875C27.5957 29.1744 27.6785 29.3816 27.6765 29.484C27.6743 29.6032 27.8009 29.0721 27.8495 28.7919C27.8893 28.5629 27.8023 28.4147 27.7599 28.234C27.6944 27.9553 27.6413 27.8623 27.642 27.8308C27.6486 27.5702 28.0829 28.4267 28.2031 28.5827C28.338 28.7576 28.5578 29.1199 28.6358 29.2674C28.7818 29.5434 28.7326 29.9444 28.7342 30.0706C28.7347 30.1039 28.7224 30.1329 28.7177 30.1613C28.713 30.1898 28.7118 30.2164 28.7628 30.2333C29.0689 30.3346 29.2461 30.3345 29.3225 30.3557C29.3525 30.364 29.3692 30.337 29.3813 30.3158C29.4293 30.2315 29.4249 30.099 29.5019 29.9809C29.6294 29.7854 29.9551 29.9476 30.0659 29.9716C30.1886 29.9983 30.2526 30.1232 30.3039 30.2023C30.3646 30.2961 30.4124 30.3876 30.4321 30.4106C30.4814 30.4684 30.4193 30.2056 30.3011 29.9633C30.2053 29.767 30.0789 29.7102 29.8703 29.6438C29.4739 29.5175 29.2713 29.7276 29.2257 29.7658C29.18 29.8041 29.1744 29.9204 29.1715 30.0096C29.1699 30.059 29.1655 29.8749 29.1271 29.7573C29.0417 29.4954 28.9262 29.1731 28.8365 28.8684C28.7515 28.5798 28.6028 28.3899 28.4973 28.2726C28.312 28.0666 28.0737 27.9447 27.9656 27.8702C27.9413 27.8534 27.923 27.8304 27.9291 27.8191C27.9353 27.8077 27.9684 27.8062 28.296 27.8895C28.6236 27.9728 29.2446 28.1411 29.635 28.2626C30.1742 28.4305 30.3403 28.545 30.3962 28.5857C30.4517 28.6261 30.4776 28.677 30.4788 28.723C30.4802 28.7736 30.4418 28.8142 30.399 28.8526C30.3342 28.9108 30.2485 28.9421 30.1747 28.964C29.784 29.0802 29.1797 29.0566 29.1462 29.0599C29.0146 29.0728 29.1442 29.3824 29.1951 29.4739C29.2062 29.4939 29.2249 29.5068 29.234 29.5022C29.2621 29.4878 29.2574 29.4236 29.2804 29.3787C29.3033 29.3342 29.3628 29.3012 29.4379 29.2701C29.7456 29.1424 30.2406 29.2654 30.3248 29.3052C30.332 29.3085 30.301 29.3169 30.2873 29.3313C30.1851 29.4388 30.4999 29.7166 30.5782 29.8603C30.6146 29.9271 30.7854 30.0265 30.9942 30.1253C31.0617 30.1572 31.0623 30.1246 30.9814 30.015C30.9004 29.9055 30.7408 29.7129 30.5954 29.5625C30.3375 29.2957 30.1176 29.1631 29.8293 29.0337C29.2804 28.7874 28.8927 28.6603 28.8495 28.6323C28.7393 28.5606 28.6557 28.4082 28.5473 28.2709C28.5263 28.2443 28.9002 28.4187 29.4 28.658C29.7557 28.8283 30.0399 28.9047 30.076 28.895C30.5021 28.7803 29.2754 28.5212 29.1275 28.4266C28.863 28.2576 28.7324 28.0729 28.6206 28.0326C28.5401 28.0036 28.4658 27.9516 28.428 27.9072C28.3673 27.8358 28.7364 27.8332 29.3286 27.7884C29.7693 27.7552 30.4984 27.7699 31.0366 27.7922C31.5749 27.8145 31.9011 27.8617 32.1092 27.8859C32.4988 27.9312 32.722 27.9001 32.942 27.8629C33.0616 27.8427 33.145 27.7533 33.21 27.6913C33.2971 27.608 33.2731 27.4494 33.4367 27.3046C33.4885 27.2587 33.5389 27.2559 33.5559 27.2565C33.7089 27.2615 33.2923 27.5241 33.0018 27.6966C32.8596 27.7809 32.5789 27.8776 32.189 28.0965C31.8838 28.2681 31.7381 28.2831 31.3606 28.3116C31.0209 28.3372 30.3796 28.3692 30.0324 28.3856C29.6514 28.4035 29.5355 28.3633 29.3874 28.3051C29.3191 28.2782 29.2682 28.2489 29.4092 28.235C29.5502 28.2211 29.8856 28.2215 30.2195 28.2472C30.5535 28.2729 30.876 28.3239 31.0573 28.3502C31.3249 28.3889 31.4594 28.3449 31.588 28.3357C31.7004 28.3276 31.8003 28.3078 31.8442 28.2865C31.8615 28.2781 31.8508 28.2507 31.8251 28.2278C31.4811 27.9216 30.7934 27.844 30.8291 27.8879C30.8485 27.9117 30.8794 27.9304 30.8886 27.9533C30.8977 27.9762 30.8864 28.0006 30.8688 28.0187C30.7221 28.1694 30.3724 28.2331 30.283 28.3045C30.2632 28.3203 30.2579 28.343 30.2599 28.3643C30.2904 28.6909 30.9263 28.9384 30.9393 28.9826C30.9703 29.0884 30.8036 29.314 30.731 29.488C30.6734 29.6259 30.8058 29.7167 30.9346 29.8603C31.0075 29.9415 31.0704 29.9891 31.0936 30.0597C31.1391 30.1979 31.1037 30.3197 31.1183 30.3409C31.246 30.5265 31.1569 29.6836 31.0706 29.4724C31.016 29.3386 30.8401 29.2618 30.6035 29.1763C30.4045 29.1044 30.2295 29.0831 30.152 29.041C30.0861 29.0052 30.0553 28.9527 30.0488 28.9211C30.028 28.8204 30.3434 28.9786 30.5257 29.1404C30.8864 29.4606 31.0555 29.6408 31.1339 29.7104C31.2113 29.7789 31.3812 29.7756 31.5501 29.7886C31.6427 29.7958 31.7547 29.8151 31.8568 29.8042C31.8968 29.7999 31.9073 29.7699 31.9068 29.7411C31.9035 29.5796 31.6533 29.3083 31.3507 28.979C30.9658 28.5602 30.6984 28.4896 30.6414 28.4741C30.6257 28.4698 30.636 28.5045 30.7606 28.6792C30.8853 28.8539 31.1238 29.1757 31.2631 29.3575C31.4023 29.5394 31.4352 29.5714 31.4552 29.569C31.5745 29.5545 31.6994 29.3356 31.8968 29.2464C32.0616 29.172 32.1722 29.1252 32.4763 29.1097C32.5723 29.1048 32.6187 29.0648 32.6548 29.0253C32.7371 28.9352 32.764 28.7097 32.7812 28.4304C32.7857 28.3566 32.8132 28.3161 32.8472 28.285C32.8797 28.2554 32.931 28.239 32.9623 28.2187C33.0723 28.1471 32.4846 28.39 32.1001 28.5054C31.8802 28.5714 31.6062 28.6399 31.4691 28.6868C31.3321 28.7336 31.3392 28.7535 31.3892 28.7795C31.6405 28.91 31.76 28.9179 31.9481 28.888C32.2084 28.8465 32.3835 28.8141 32.488 28.7782C32.588 28.7438 32.6434 28.5388 32.719 28.412C32.7897 28.2934 32.9529 28.269 33.035 28.2296C33.0563 28.2209 33.0794 28.2144 33.1247 28.2101C33.17 28.2057 33.2368 28.2036 33.3045 28.1975" stroke="#00D0FF" stroke-width="0.5" stroke-linecap="round"/>
<rect x="26.1" y="3.1499" width="7" height="3" fill="#00D0FF"/>
</svg>
