<svg width="57" height="32" viewBox="0 0 57 32" fill="none" xmlns="http://www.w3.org/2000/svg">
<rect x="-0.5" y="0.5" width="39" height="11" transform="matrix(-1 0 0 1 55 8.1499)" fill="#00229C" stroke="#00229C"/>
<rect x="-0.5" y="0.5" width="27" height="8" transform="matrix(-1 0 0 1 49 0.149902)" fill="#00229C" stroke="#00229C"/>
<path d="M16 8.1499L22 0.149902V8.1499H16Z" fill="#00229C" stroke="#00229C" stroke-width="0.1"/>
<path d="M56 8.1499L50 0.149902V8.1499H56Z" fill="#00229C" stroke="#00229C" stroke-width="0.1"/>
<rect width="7" height="7" transform="matrix(-1 0 0 1 50 20.1499)" fill="#011A74"/>
<rect width="7" height="7" transform="matrix(-1 0 0 1 29 20.1499)" fill="#011A74"/>
<path d="M49.7944 27.0457C49.7901 27.3944 49.7139 28.1314 49.591 28.4882C49.5331 28.6565 49.5092 29.2001 49.4822 29.8546C49.474 30.0527 49.4036 29.972 49.3283 29.8805C48.9782 29.4557 48.7154 29.0811 48.6005 28.9176C48.5414 28.8334 48.5449 29.7042 48.5331 30.5634C48.5294 30.8346 48.4527 30.7671 48.3909 30.6871C48.2608 30.5187 48.1518 30.3539 48.0557 30.2878C47.8158 30.123 47.7244 30.7904 47.601 30.9946C47.4671 31.2164 47.4067 30.45 47.2524 30.0533C47.2134 29.9531 47.1524 29.8781 47.0966 29.8688C46.8305 29.8244 46.7512 30.5726 46.636 31.0483C46.6034 31.183 46.6144 31.3823 46.5865 31.4482C46.4688 31.7257 46.2622 30.6126 46.141 30.3226C46.0895 30.1993 45.873 30.4532 45.7422 30.538C45.6763 30.5808 45.5702 30.5303 45.4827 30.3964C45.3952 30.2625 45.3191 30.023 45.2531 29.9391C45.1793 29.8451 45.0192 30.0736 44.8989 30.0674C44.6174 30.0528 44.6778 29.5145 44.5821 29.3575C44.5051 29.2312 44.2895 29.3273 44.1447 29.2949C43.6645 29.1877 43.863 28.5276 43.7094 28.2503C43.6702 28.1795 43.6103 28.1224 43.5656 28.1351C43.4392 28.171 43.4359 28.4061 43.3963 28.4817C43.2382 28.2521 43.1778 27.892 43.1574 27.5395C43.1399 27.3968 43.1082 27.3275 43.0388 27.1307" stroke="#00D0FF" stroke-width="0.5" stroke-linecap="round"/>
<path d="M29 27.1499C28.9957 27.4986 28.9195 28.2356 28.7966 28.5924C28.7387 28.7607 28.7148 29.3043 28.6878 29.9589C28.6797 30.1569 28.6092 30.0762 28.5339 29.9848C28.1838 29.5599 27.921 29.1853 27.8061 29.0218C27.747 28.9377 27.7506 29.8085 27.7387 30.6677C27.735 30.9388 27.6583 30.8713 27.5966 30.7914C27.4665 30.6229 27.3575 30.4581 27.2613 30.3921C27.0214 30.2272 26.93 30.8946 26.8066 31.0989C26.6727 31.3207 26.6123 30.5542 26.458 30.1575C26.419 30.0573 26.358 29.9824 26.3022 29.9731C26.0361 29.9286 25.9568 30.6768 25.8416 31.1526C25.809 31.2872 25.8201 31.4865 25.7921 31.5524C25.6745 31.8299 25.4678 30.7168 25.3466 30.4268C25.2951 30.3035 25.0786 30.5574 24.9479 30.6423C24.8819 30.6851 24.7758 30.6345 24.6883 30.5006C24.6008 30.3667 24.5247 30.1273 24.4588 30.0433C24.385 29.9493 24.2249 30.1779 24.1045 30.1717C23.823 30.1571 23.8835 29.6188 23.7877 29.4618C23.7107 29.3354 23.4952 29.4315 23.3503 29.3992C22.8701 29.2919 23.0686 28.6319 22.915 28.3546C22.8758 28.2838 22.8159 28.2267 22.7712 28.2394C22.6448 28.2753 22.6415 28.5104 22.6019 28.586C22.4438 28.3563 22.3834 27.9962 22.363 27.6438C22.3456 27.5011 22.3138 27.4317 22.2444 27.235" stroke="#00D0FF" stroke-width="0.5" stroke-linecap="round"/>
<rect width="12" height="8" transform="matrix(-1 0 0 1 16 8.1499)" fill="#011A74"/>
<circle cx="4" cy="4" r="4" transform="matrix(-1 0 0 1 8 8.1499)" fill="#000C35"/>
<path d="M49.2685 27.8266C49.2423 27.8266 48.9022 27.8356 48.3663 27.8549C47.9556 27.8698 47.6297 28.0715 47.3633 28.2611C47.2638 28.3319 47.1931 28.447 47.146 28.527C47.1281 28.5575 47.4634 28.5193 47.8812 28.4603C48.3699 28.3914 48.9113 27.9691 49.0173 27.9148C49.0412 27.9026 49.0677 27.8991 49.0926 27.907C49.2336 27.9515 49.2389 28.2166 49.2502 28.5941C49.2596 28.904 49.2599 29.0827 49.2329 29.1377C49.1133 29.3807 48.8669 28.2382 48.8087 28.2552C48.6195 28.3103 48.5706 28.5862 48.4651 28.7045C48.3325 28.853 48.0887 28.96 48.0146 29.0804C47.8699 29.3153 48.1237 29.6096 48.1419 30.0026C48.1449 30.0663 48.1652 30.0407 48.1731 29.9869C48.2235 29.6438 48.3168 29.122 48.4164 28.7329C48.4482 28.6087 48.4193 28.6281 48.3921 28.6632C48.1311 28.9988 47.9488 29.6034 47.8177 29.7522C47.7353 29.8457 47.6444 30.1342 47.5583 30.33C47.5451 30.3601 47.5157 30.3842 47.5009 30.3843C47.4674 30.3843 47.4817 30.1289 47.492 29.8096C47.5042 29.4332 47.9901 29.101 48.0754 28.9853C48.1107 28.9374 48.1011 28.8351 48.0854 28.7361C48.0478 28.4996 47.4799 29.0686 47.3908 29.1983C47.2712 29.3725 47.1981 29.4902 46.8134 29.6941C46.681 29.7643 46.6286 29.8421 46.599 29.9366C46.5138 30.2086 46.5425 30.4462 46.5295 30.4794C46.4727 30.6253 46.656 29.9489 46.952 29.5295C47.4013 28.8927 47.7906 28.7619 47.7951 28.7003C47.7983 28.6549 47.6643 28.6723 47.4383 28.7339C46.6577 28.9464 46.5032 29.2493 46.3981 29.3985C46.2423 29.6196 46.1652 29.7019 46.0602 29.8215C45.9339 29.9653 45.8174 30.0551 45.7575 30.1246C45.6516 30.2472 46.141 29.9418 46.3441 29.791C47 29.3039 47.0549 29.1111 47.1535 28.9917C47.1775 28.9627 47.2064 28.9361 47.4201 28.7705C47.6339 28.605 48.0336 28.303 48.2646 28.134C48.7133 27.8057 49.119 27.717 49.3717 27.5911C49.533 27.5108 49.5526 27.3731 49.6103 27.2677C49.6252 27.2405 49.6354 27.2115 49.631 27.1888C49.622 27.1437 49.5473 27.125 49.4705 27.1109C49.2407 27.0686 48.9747 27.2097 48.6485 27.2147C48.3583 27.2191 47.8149 27.2106 47.5131 27.2061C47.1673 27.2009 46.8287 27.1906 46.3626 27.1844C46.1467 27.1816 45.9954 27.133 45.7082 27.0852C45.2848 27.0148 44.9388 27.0911 44.7224 27.1081C44.1618 27.1522 43.8232 27.1672 43.5098 27.2257C43.3996 27.2463 43.3971 27.2856 43.4028 27.3264C43.427 27.4999 43.4512 27.6324 43.466 27.7608C43.4738 27.8289 43.6357 27.8174 43.7985 27.8109C43.9052 27.8066 44.2434 27.6774 44.7331 27.4921C44.9225 27.4204 44.9964 27.4064 45.3243 27.3915C45.6521 27.3766 46.2329 27.3642 46.6717 27.3797C47.1105 27.3952 47.3897 27.4389 47.638 27.4617C48.0935 27.5035 48.4813 27.4786 48.8016 27.4502C48.9514 27.4369 49.0714 27.3931 49.0916 27.3778C49.1432 27.3388 48.7214 27.4194 48.3473 27.5015C47.9015 27.5993 47.5797 27.6799 47.4268 27.7061C47.205 27.744 47.1643 28.1504 46.8336 28.4812C46.4498 28.8652 46.0197 29.1061 45.8037 29.2398C45.6712 29.3218 45.6239 29.392 45.5988 29.4376C45.5048 29.6083 45.5329 29.9307 45.5382 30.0401C45.8814 29.8068 46.3678 29.3879 46.4666 29.2318C46.4832 29.1955 46.4916 29.1656 46.5002 29.0639" stroke="#00D0FF" stroke-width="0.5" stroke-linecap="round"/>
<path d="M46.2945 29.2022C46.2922 29.2058 46.2899 29.2093 46.2813 29.2222C46.1684 29.3915 45.6706 29.3027 45.3152 29.3223C45.2413 29.3264 45.2132 29.346 45.1867 29.3734C45.0784 29.4857 45.0476 29.6094 44.9292 29.6798C44.7804 29.7683 44.9371 29.2359 44.8724 29.102C44.8119 28.9767 44.6778 28.9199 44.5016 28.817C44.3499 28.7284 44.3118 28.6035 44.2381 28.4566C44.1364 28.2537 44.0846 28.008 43.9414 27.7746C43.8966 27.7017 43.7705 27.6713 43.6612 27.6396C43.6324 27.6313 43.6632 27.6236 43.8783 27.6184C44.0934 27.6132 44.4931 27.6069 45.0018 27.6305C45.5105 27.6541 46.116 27.7078 46.4697 27.7456C46.8235 27.7833 46.9073 27.8033 46.9312 27.8229C46.9627 27.8488 46.6551 27.9025 46.0643 27.9333C45.6959 27.9525 45.1865 27.9356 44.8937 27.9342C44.5396 27.9325 44.4457 27.9636 44.3879 28.011C44.2902 28.0912 44.265 28.2118 44.2002 28.3473C44.126 28.5025 44.1075 28.6249 44.0383 28.7392C43.9904 28.8183 43.9624 28.8993 43.9552 28.9608C43.9487 29.0159 43.9843 29.0616 44.0238 29.098C44.1077 29.1752 44.2978 29.1629 44.524 29.1233C44.6411 29.1029 44.8395 29.0406 45.089 28.9979C45.3386 28.9553 45.6314 28.9254 45.9506 28.8692C46.6104 28.753 46.98 28.6353 47.0313 28.6061C47.1345 28.5475 47.1461 28.4194 47.1425 28.3455C47.1408 28.3096 47.074 28.2963 46.7647 28.3288C46.4555 28.3613 45.8891 28.445 45.4856 28.5207C44.8537 28.6393 44.6069 28.7097 44.5777 28.6648C44.509 28.5594 44.7123 28.3975 44.8278 28.3041C45.1605 28.2826 45.8768 28.2628 46.0468 28.2327C45.9804 28.2224 45.6042 28.2224 45.1574 28.205" stroke="#00D0FF" stroke-width="0.5" stroke-linecap="round"/>
<path d="M28.9757 27.1612C28.9757 27.1595 28.9439 27.154 28.6577 27.1475C28.4034 27.1417 27.9274 27.1467 27.6148 27.1561C27.3023 27.1654 27.1676 27.1829 26.7934 27.1969C26.4191 27.2108 25.8094 27.2207 25.3953 27.2241C24.9813 27.2275 24.7814 27.224 24.3741 27.2341C23.9668 27.2442 23.3581 27.2678 23.0192 27.2756C22.6295 27.2846 22.5001 27.2604 22.396 27.2597C22.3119 27.2592 22.5582 27.4282 22.6304 27.5631C22.7069 27.7061 22.7121 27.8789 22.7441 27.9725C22.796 28.1244 22.922 27.7817 23.3835 27.5881C23.5257 27.5284 23.6747 27.522 24.2479 27.49C24.8211 27.4581 25.8199 27.4171 26.4257 27.3948C27.0314 27.3726 27.214 27.3704 27.3616 27.3754C27.8327 27.3912 28.0909 27.4104 28.3497 27.4431C28.4477 27.4555 28.5749 27.4493 28.6446 27.4599C28.7143 27.4705 28.7233 27.4916 28.7277 27.5338C28.7385 27.638 28.7264 27.737 28.709 27.8356C28.6809 27.9954 28.6398 28.2536 28.5906 28.5875C28.5043 29.1744 28.4215 29.3816 28.4235 29.484C28.4257 29.6032 28.2991 29.0721 28.2505 28.7919C28.2107 28.5629 28.2977 28.4147 28.3401 28.234C28.4056 27.9553 28.4587 27.8623 28.4579 27.8308C28.4514 27.5702 28.0171 28.4267 27.8969 28.5827C27.762 28.7576 27.5422 29.1199 27.4642 29.2674C27.3182 29.5434 27.3674 29.9444 27.3658 30.0706C27.3653 30.1039 27.3776 30.1329 27.3823 30.1613C27.387 30.1898 27.3882 30.2164 27.3372 30.2333C27.0311 30.3346 26.8539 30.3345 26.7775 30.3557C26.7475 30.364 26.7308 30.337 26.7187 30.3158C26.6707 30.2315 26.6751 30.099 26.5981 29.9809C26.4706 29.7854 26.1449 29.9476 26.034 29.9716C25.9114 29.9983 25.8474 30.1232 25.7961 30.2023C25.7354 30.2961 25.6876 30.3876 25.6679 30.4106C25.6186 30.4684 25.6807 30.2056 25.7989 29.9633C25.8947 29.767 26.0211 29.7102 26.2297 29.6438C26.6261 29.5175 26.8287 29.7276 26.8743 29.7658C26.92 29.8041 26.9256 29.9204 26.9285 30.0096C26.9301 30.059 26.9345 29.8749 26.9729 29.7573C27.0583 29.4954 27.1738 29.1731 27.2635 28.8684C27.3485 28.5798 27.4972 28.3899 27.6027 28.2726C27.788 28.0666 28.0263 27.9447 28.1343 27.8702C28.1587 27.8534 28.177 27.8304 28.1708 27.8191C28.1647 27.8077 28.1316 27.8062 27.804 27.8895C27.4764 27.9728 26.8554 28.1411 26.465 28.2626C25.9258 28.4305 25.7597 28.545 25.7038 28.5857C25.6483 28.6261 25.6224 28.677 25.6212 28.723C25.6198 28.7736 25.6582 28.8142 25.701 28.8526C25.7658 28.9108 25.8514 28.9421 25.9252 28.964C26.316 29.0802 26.9203 29.0566 26.9538 29.0599C27.0854 29.0728 26.9558 29.3824 26.9049 29.4739C26.8938 29.4939 26.8751 29.5068 26.866 29.5022C26.8379 29.4878 26.8426 29.4236 26.8196 29.3787C26.7967 29.3342 26.7372 29.3012 26.6621 29.2701C26.3544 29.1424 25.8594 29.2654 25.7752 29.3052C25.768 29.3085 25.799 29.3169 25.8127 29.3313C25.9149 29.4388 25.6001 29.7166 25.5218 29.8603C25.4854 29.9271 25.3146 30.0265 25.1058 30.1253C25.0383 30.1572 25.0377 30.1246 25.1186 30.015C25.1996 29.9055 25.3592 29.7129 25.5046 29.5625C25.7625 29.2957 25.9824 29.1631 26.2707 29.0337C26.8196 28.7874 27.2072 28.6603 27.2505 28.6323C27.3607 28.5606 27.4443 28.4082 27.5527 28.2709C27.5737 28.2443 27.1998 28.4187 26.7 28.658C26.3443 28.8283 26.0601 28.9047 26.024 28.895C25.5979 28.7803 26.8246 28.5212 26.9725 28.4266C27.237 28.2576 27.3676 28.0729 27.4794 28.0326C27.5599 28.0036 27.6342 27.9516 27.6719 27.9072C27.7327 27.8358 27.3636 27.8332 26.7714 27.7884C26.3307 27.7552 25.6016 27.7699 25.0634 27.7922C24.5251 27.8145 24.1989 27.8617 23.9908 27.8859C23.6012 27.9312 23.378 27.9001 23.158 27.8629C23.0384 27.8427 22.955 27.7533 22.89 27.6913C22.8029 27.608 22.8269 27.4494 22.6633 27.3046C22.6114 27.2587 22.5611 27.2559 22.5441 27.2565C22.3911 27.2615 22.8077 27.5241 23.0982 27.6966C23.2404 27.7809 23.5211 27.8776 23.911 28.0965C24.2162 28.2681 24.3619 28.2831 24.7394 28.3116C25.079 28.3372 25.7204 28.3692 26.0676 28.3856C26.4486 28.4035 26.5645 28.3633 26.7126 28.3051C26.7809 28.2782 26.8318 28.2489 26.6908 28.235C26.5498 28.2211 26.2144 28.2215 25.8804 28.2472C25.5465 28.2729 25.224 28.3239 25.0427 28.3502C24.7751 28.3889 24.6405 28.3449 24.512 28.3357C24.3996 28.3276 24.2997 28.3078 24.2558 28.2865C24.2385 28.2781 24.2492 28.2507 24.2749 28.2278C24.6189 27.9216 25.3066 27.844 25.2709 27.8879C25.2515 27.9117 25.2206 27.9304 25.2114 27.9533C25.2023 27.9762 25.2136 28.0006 25.2312 28.0187C25.3779 28.1694 25.7276 28.2331 25.817 28.3045C25.8368 28.3203 25.842 28.343 25.8401 28.3643C25.8096 28.6909 25.1737 28.9384 25.1607 28.9826C25.1297 29.0884 25.2964 29.314 25.369 29.488C25.4266 29.6259 25.2942 29.7167 25.1654 29.8603C25.0925 29.9415 25.0296 29.9891 25.0064 30.0597C24.9609 30.1979 24.9963 30.3197 24.9817 30.3409C24.854 30.5265 24.9431 29.6836 25.0294 29.4724C25.084 29.3386 25.2598 29.2618 25.4965 29.1763C25.6955 29.1044 25.8705 29.0831 25.9479 29.041C26.0139 29.0052 26.0447 28.9527 26.0512 28.9211C26.072 28.8204 25.7566 28.9786 25.5743 29.1404C25.2136 29.4606 25.0445 29.6408 24.9661 29.7104C24.8887 29.7789 24.7188 29.7756 24.5499 29.7886C24.4572 29.7958 24.3453 29.8151 24.2432 29.8042C24.2032 29.7999 24.1927 29.7699 24.1932 29.7411C24.1964 29.5796 24.4467 29.3083 24.7493 28.979C25.1342 28.5602 25.4016 28.4896 25.4586 28.4741C25.4743 28.4698 25.464 28.5045 25.3394 28.6792C25.2147 28.8539 24.9762 29.1757 24.8369 29.3575C24.6976 29.5394 24.6648 29.5714 24.6448 29.569C24.5255 29.5545 24.4006 29.3356 24.2032 29.2464C24.0384 29.172 23.9278 29.1252 23.6237 29.1097C23.5277 29.1048 23.4813 29.0648 23.4452 29.0253C23.3629 28.9352 23.336 28.7097 23.3188 28.4304C23.3143 28.3566 23.2868 28.3161 23.2528 28.285C23.2203 28.2554 23.169 28.239 23.1377 28.2187C23.0277 28.1471 23.6154 28.39 23.9999 28.5054C24.2198 28.5714 24.4938 28.6399 24.6308 28.6868C24.7679 28.7336 24.7608 28.7535 24.7108 28.7795C24.4595 28.91 24.3399 28.9179 24.1519 28.888C23.8916 28.8465 23.7165 28.8141 23.612 28.7782C23.5119 28.7438 23.4566 28.5388 23.381 28.412C23.3103 28.2934 23.1471 28.269 23.065 28.2296C23.0437 28.2209 23.0206 28.2144 22.9753 28.2101C22.93 28.2057 22.8632 28.2036 22.7955 28.1975" stroke="#00D0FF" stroke-width="0.5" stroke-linecap="round"/>
<rect width="7" height="3" transform="matrix(-1 0 0 1 30 3.1499)" fill="#00D0FF"/>
</svg>
