<svg width="61" height="76" viewBox="0 0 61 76" fill="none" xmlns="http://www.w3.org/2000/svg">
<rect x="54.8842" y="15.2202" width="6" height="2" transform="rotate(-3.33663 54.8842 15.2202)" fill="#141414"/>
<line x1="5.05336" y1="70.6425" x2="10.4064" y2="42.6425" stroke="#0DA000" stroke-width="6"/>
<line y1="-3" x2="28.5071" y2="-3" transform="matrix(-0.18778 -0.982211 -0.982211 0.18778 22.3531 71.2058)" stroke="#0DA000" stroke-width="6"/>
<line x1="44.7469" y1="25.3843" x2="20.1466" y2="16.4499" stroke="#0DA000" stroke-width="5"/>
<rect x="6.99999" y="14.2058" width="16" height="31" fill="#0DA000"/>
<path d="M45.6003 23.0346L44.0369 27.7309L40.6824 26.6142L42.2457 21.9179L45.6003 23.0346Z" fill="#0F9400" stroke="#0F9400" stroke-width="0.2"/>
<path d="M1.96443 69.9419L8.96442 71.5015L10.0356 66.4921L3.03558 64.9326L1.96443 69.9419Z" fill="#0F9400" stroke="#0F9400" stroke-width="0.2"/>
<rect x="7.00001" y="14.2058" width="16" height="24" fill="#0E8C00"/>
<circle cx="15.5" cy="7.70581" r="7.5" fill="#EFE9C9"/>
<path d="M8.00001 6.20374C9.49495 -1.94043 21.4945 -1.92844 23 6.20374" stroke="#0E8C00" stroke-width="0.2"/>
<path d="M8.00001 6.20581H23" stroke="#0E8C00" stroke-width="0.2"/>
<path d="M14.0087 4.16954C14.8813 4.16388 16.3504 4.1323 16.4379 4.08619C16.5263 4.03962 16.5862 3.92666 16.6264 3.7746C16.6712 3.6047 16.6125 3.46052 16.5472 3.37702C16.3909 3.17719 15.8322 3.06389 15.0789 2.94715C14.1785 2.80759 13.6854 3.12465 13.0519 3.43833C12.5047 3.70932 12.2777 3.72278 11.1602 4.35964C10.7099 4.61628 10.2519 4.7638 10.0624 4.81258C9.85551 4.86583 10.4747 4.48467 11.0373 4.21098C11.3965 4.03625 12.1849 4.0552 13.0725 4.04325C13.8196 4.0332 14.4019 4.34325 14.9872 4.52618C15.1651 4.5818 15.4048 4.57458 15.7942 4.55838C16.2584 4.53906 16.9035 4.39324 17.6729 4.26275C18.3935 4.14053 19.0247 4.25232 19.5624 4.33937C20.1175 4.42922 20.4722 4.37061 20.5682 4.32619C20.6141 4.30494 20.6313 4.24798 20.6155 4.20293C20.5787 4.09754 20.3704 4.00648 19.8213 3.74829C19.3944 3.54755 18.6477 3.24662 18.0714 3.04947C17.4951 2.85231 17.1071 2.77862 16.6889 2.66175C15.8244 2.42009 15.3234 2.21581 15.1241 2.20372C14.7732 2.18245 14.4631 2.2275 14.1024 2.37093C13.3637 2.6647 12.865 2.97224 12.6874 3.12435C12.0934 3.63306 11.8562 3.82299 11.6466 3.96439C11.5924 4.00094 11.5318 4.03012 11.5274 4.05424C11.5231 4.07836 11.5749 4.09322 12.2504 4.13022C12.9259 4.16723 14.2236 4.22594 14.9491 4.26827C15.6745 4.3106 15.7884 4.33477 16.2931 4.37053C16.7977 4.4063 17.6896 4.45293 18.2991 4.50505C19.6225 4.61821 20.0549 4.83625 20.4797 4.96672C20.7394 5.04648 20.9359 5.05704 20.9901 5.04024C21.007 5.035 20.9119 4.98983 20.399 4.88445C19.8861 4.77907 18.9353 4.60293 18.0808 4.51902C17.2264 4.43511 16.4971 4.44876 16.0142 4.48777C15.3113 4.54452 14.8819 4.73908 14.4785 4.8762C13.884 5.07827 13.3031 5.00422 12.6671 4.95504C12.4723 4.94434 12.2182 4.94434 12.0032 4.94104C11.7881 4.93773 11.6198 4.93113 11.3888 4.90735" stroke="#0E8C00" stroke-width="2" stroke-linecap="round"/>
<path d="M12.8871 5.94876C12.8855 5.95037 12.8838 5.95197 13.0463 5.95153C13.2087 5.95109 13.5353 5.94855 13.7894 5.9327C14.0434 5.91685 14.215 5.88777 14.9136 5.86602C15.6121 5.84427 16.8324 5.83073 17.8207 5.83752C18.8089 5.84431 19.5281 5.87183 20.0258 5.88265C20.5235 5.89346 20.778 5.88674 20.9547 5.88674C21.1315 5.88674 21.2228 5.89368 20.2338 5.7432C19.2448 5.59272 17.1727 5.28463 15.9462 5.12431C14.7197 4.96399 14.4015 4.9608 14.1723 4.96863C13.943 4.97647 13.8123 4.99543 13.7489 5.01136C13.6855 5.02728 13.6935 5.03959 13.7421 5.05771C13.7906 5.07583 13.8794 5.09937 14.5001 5.19794C15.1207 5.29651 16.2704 5.46939 16.3638 5.51843C16.4572 5.56747 15.4594 5.48744 14.9499 5.45576C14.4403 5.42409 14.4493 5.44319 14.4612 5.45703C14.4836 5.48304 14.5244 5.49171 14.951 5.50494C15.3557 5.51749 16.1432 5.52595 16.6351 5.54338C17.127 5.56082 17.2996 5.58289 17.3953 5.59562C17.4911 5.60834 17.5047 5.61104 17.5069 5.62072C17.5129 5.64736 17.4806 5.67497 17.4552 5.69619C17.4205 5.72513 17.2887 5.75877 17.1036 5.82127C16.9545 5.87162 16.8381 5.91469 16.6979 5.93585C16.6109 5.94897 16.4899 5.95125 16.3552 5.95301C16.0755 5.95665 15.9039 5.9447 15.8322 5.92906C15.7056 5.90149 15.5108 5.87762 15.3486 5.87766C15.303 5.87768 15.332 5.88936 15.4814 5.894C15.6307 5.89863 15.8996 5.89886 16.0523 5.90098C16.2336 5.9035 16.3702 5.91124 16.5847 5.9105C16.7957 5.90977 16.9625 5.91606 17.0757 5.93027C17.1735 5.94256 17.2576 5.92769 17.3966 5.91404C17.663 5.88788 17.8811 5.89377 17.9755 5.87398C18.074 5.85333 18.2183 5.82453 18.3898 5.81614C18.6255 5.8046 18.7785 5.79664 18.8517 5.82812C18.8671 5.83478 18.8655 5.85406 18.8597 5.86869C18.8341 5.93332 18.7706 5.96835 18.7064 6.00758C18.6795 6.02403 18.5035 6.02184 18.256 6.01913C18.1032 5.9876 17.9204 5.91562 17.8155 5.88776C17.7998 5.884 17.7847 5.87938 17.7692 5.87462" stroke="#0E8C00" stroke-width="0.5" stroke-linecap="round"/>
<path d="M12.8772 5.94476C12.877 5.94476 12.8767 5.94476 12.68 5.94384C12.4833 5.94291 12.0903 5.94106 11.6812 5.93403C11.2722 5.92699 10.859 5.91481 10.6019 5.90006C10.3448 5.8853 10.2562 5.86832 10.0508 5.85654C9.84545 5.84476 9.526 5.83869 9.33215 5.83231C9.07955 5.824 8.95627 5.81274 8.84476 5.81778C8.7095 5.82391 8.54857 5.90997 8.42927 5.94525C8.36093 5.96546 8.32397 5.99511 8.30839 5.99899C8.28835 6.00398 8.3749 5.99484 8.69064 5.97862C8.98027 5.96373 9.53348 5.9551 9.5819 5.94891C9.63031 5.94272 9.15738 5.9443 8.90541 5.94621C8.60043 5.94853 8.51605 5.96001 8.42552 5.92685C8.36662 5.90528 8.32563 5.88008 8.30925 5.85952C8.29238 5.83832 8.29328 5.80638 8.29529 5.77721C8.30497 5.63638 8.57976 5.53921 8.6989 5.49485C8.73819 5.48022 8.794 5.47427 8.96674 5.47146C9.13948 5.46864 9.42889 5.47374 9.59089 5.4782C9.77883 5.48338 9.81872 5.49562 9.84547 5.50878C9.90661 5.53884 10.1069 5.77916 10.2094 5.91867C10.2392 5.95926 10.0918 5.97982 9.92077 6.01057C9.87389 6.019 9.82747 6.01647 9.67478 5.95355C9.52208 5.89063 9.26402 5.76393 9.06679 5.67245C8.74367 5.52257 8.58912 5.46899 8.55758 5.45027C8.52508 5.43098 8.55506 5.3614 8.60511 5.22604C8.70278 4.96187 8.73907 4.74997 8.81052 4.62844C8.86552 4.53489 8.97393 4.38608 9.05896 4.27703C9.144 4.16798 9.20629 4.10561 9.35486 3.99652C9.50343 3.88743 9.73638 3.73351 10.1054 3.43874C10.4744 3.14398 10.9723 2.71304 11.2552 2.4748C11.5381 2.23656 11.5909 2.20407 11.7361 2.14235C11.8812 2.08064 12.1172 1.99068 12.6219 1.90146C13.1266 1.81223 13.8929 1.72646 14.4532 1.68505C15.0135 1.64365 15.3446 1.64922 15.7229 1.67129C16.1013 1.69335 16.517 1.73175 16.745 1.74905C17.0002 1.76842 17.0538 1.74822 17.2612 1.67918C17.444 1.61831 17.7842 1.50451 18.0376 1.43503C18.291 1.36555 18.4472 1.34372 18.5451 1.33247C18.6772 1.31727 18.7349 1.3262 18.7664 1.34251C18.7798 1.34945 18.7743 1.37137 18.7605 1.38949C18.672 1.50561 18.4512 1.53111 18.1908 1.54164C18.1251 1.54429 18.0753 1.53243 17.7748 1.43161C17.4744 1.33079 16.9249 1.13651 16.6085 1.0305C16.2922 0.924484 16.2256 0.912624 16.0959 0.907154C15.9663 0.901683 15.7755 0.902963 15.3044 0.958654C14.8332 1.01435 14.0875 1.12441 13.6625 1.19333C13.2376 1.26226 13.1561 1.2867 12.8346 1.45082C12.513 1.61494 11.9539 1.91799 11.5984 2.12381C11.243 2.32963 11.108 2.42905 11.0237 2.49504C10.8348 2.64293 10.7688 2.77365 10.7131 2.92327C10.6909 2.98296 10.6933 3.03437 10.6988 3.0754C10.7012 3.09343 10.7142 3.10331 10.7261 3.11077C10.7905 3.15125 11.1301 3.05258 11.3457 2.97712C11.3807 2.96486 11.3853 2.90043 11.4004 2.8178C11.4107 2.76175 11.4549 2.7143 11.492 2.67978C11.5564 2.61983 11.792 2.5537 12.1029 2.43842C12.2644 2.37853 12.4248 2.29313 12.5299 2.23623C12.6814 2.1542 12.7923 2.03247 12.9381 1.87189C13.0816 1.71386 13.2527 1.60251 13.3814 1.52644C13.4784 1.46915 13.559 1.45253 14.0362 1.45392C14.4906 1.45524 15.3757 1.47341 15.9168 1.46957C16.458 1.46573 16.6283 1.44332 16.7516 1.43187C16.9454 1.41386 17.0322 1.42284 17.0378 1.42543C17.0447 1.42862 17.0016 1.42484 16.74 1.38148C16.4785 1.33813 15.9848 1.25257 15.7685 1.20995C15.5522 1.16733 15.6282 1.17025 15.8947 1.22056C16.1612 1.27088 16.6158 1.36849 16.9339 1.45332C17.2521 1.53814 17.4201 1.60721 17.5356 1.65676C17.6511 1.70631 17.7091 1.73425 17.8534 1.80125C17.9977 1.86825 18.2266 1.97345 18.3359 2.02692C18.4453 2.08039 18.4283 2.07894 17.942 1.93439C17.4557 1.78984 16.5006 1.50223 15.9958 1.35203C15.491 1.20184 15.4654 1.19778 15.4314 1.19568C15.3558 1.19103 15.2989 1.19566 15.2134 1.19615C15.1417 1.19656 15.0125 1.18926 15.3675 1.23701C15.7225 1.28476 16.5656 1.38573 17.1446 1.48279C17.7235 1.57984 18.0127 1.66992 18.2196 1.74342C18.4264 1.81693 18.5422 1.87113 18.6191 1.90842C18.696 1.94572 18.7307 1.96446 19.0156 2.13781C19.3005 2.31116 19.8345 2.63855 20.1536 2.84605C20.4726 3.05354 20.5605 3.13123 20.6139 3.18009C20.6851 3.24516 20.7352 3.31927 20.797 3.42964C20.843 3.54146 20.8778 3.74044 20.9013 3.97424C20.9093 4.06662 20.9093 4.10566 20.9093 4.14588" stroke="#0E8C00" stroke-width="0.5" stroke-linecap="round"/>
<path d="M21.1487 6.00705C21.148 6.00705 21.1474 6.00705 21.4008 6.00705C21.6543 6.00705 22.1618 6.00706 22.431 6.00642C22.7002 6.00579 22.7157 6.00453 22.6609 5.962C22.487 5.82701 22.3371 5.73886 22.3059 5.71366C22.2676 5.68272 22.1897 5.6053 22.0509 5.49094C21.8882 5.3569 21.7611 5.3072 21.7347 5.3037C21.6628 5.29419 21.7362 5.55375 21.758 5.67508C21.7615 5.69461 21.7583 5.70956 21.7514 5.72142C21.7445 5.73329 21.7315 5.74192 21.716 5.74939C21.7005 5.75686 21.6829 5.76291 21.7343 5.76724C21.9061 5.78175 22.0629 5.77159 22.135 5.76395C22.3352 5.74272 22.5252 5.78701 22.6121 5.78039C22.6414 5.77815 22.6862 5.7791 22.7069 5.77151C22.7276 5.76392 22.7229 5.74874 22.7033 5.72832C22.6063 5.62695 22.5012 5.52503 22.4113 5.33634C22.3729 5.25578 22.3338 5.11885 22.2673 4.98454C22.2008 4.85023 22.1156 4.71951 21.9469 4.51646C21.7781 4.31341 21.5284 4.042 21.3608 3.84383C21.1931 3.64567 21.115 3.52896 21.109 3.54729C21.1031 3.56562 21.1716 3.72253 21.2677 3.90683C21.3638 4.09113 21.4854 4.29809 21.5804 4.44571C21.6753 4.59333 21.7401 4.67536 21.8085 4.75839C22.0341 5.03236 22.0913 5.10918 22.1272 5.18544C22.1921 5.32298 22.2221 5.4768 22.2411 5.50064C22.3009 5.57539 22.4666 5.55787 22.5498 5.55598C22.5805 5.55528 22.5862 5.53921 22.5864 5.52452C22.5876 5.45128 22.4742 5.27851 22.291 4.9501C22.1805 4.75209 22.0024 4.50916 21.9083 4.36734C21.797 4.19966 21.7826 4.14924 21.7549 4.08493C21.6926 3.96587 21.6218 3.85366 21.5579 3.7799C21.5239 3.74305 21.4865 3.70738 21.4147 3.65575" stroke="#0E8C00" stroke-width="0.5" stroke-linecap="round"/>
<path d="M8.81576 5.28837C8.82043 5.28595 8.95812 5.11592 9.07108 4.99465C9.08589 4.97875 9.09692 4.96116 9.104 4.9456C9.11107 4.93004 9.11325 4.9165 9.09982 4.91014C9.08639 4.90378 9.0573 4.90501 9.0405 4.89868C8.90387 4.84722 9.00565 4.48363 8.97551 4.39319C8.96499 4.36164 8.94382 4.34179 8.92249 4.33081C8.91244 4.32563 8.89942 4.33528 8.8931 4.3311C8.85276 4.30441 8.91687 4.18292 8.93996 4.09297C8.95762 4.0242 9.04003 3.91562 9.17079 3.76825C9.24616 3.68332 9.28225 3.62287 9.30306 3.56926C9.33012 3.49956 9.40348 3.44201 9.43944 3.38846C9.4784 3.33044 9.62642 3.12517 9.71704 2.99394C9.75397 2.94048 9.83193 2.90102 9.89394 2.84274C9.99098 2.75154 10.0516 2.69987 10.1539 2.5764C10.21 2.50867 10.2961 2.4387 10.4268 2.36711C10.4937 2.33043 10.5438 2.3192 10.5696 2.32618C10.6321 2.34307 10.6314 2.47607 10.6325 2.54386C10.6335 2.60217 10.5621 2.64287 10.4318 2.78917C10.2482 2.99521 10.1578 3.08412 10.0967 3.15196C10.0302 3.22586 9.93297 3.2685 9.86233 3.34652C9.84345 3.36826 9.8254 3.38777 9.80844 3.40568C9.79147 3.42359 9.77613 3.43933 9.74446 3.48514" stroke="#0E8C00" stroke-width="0.5" stroke-linecap="round"/>
<path d="M10.3823 2.32193C10.3902 2.31962 10.4178 2.22901 10.4618 2.15203C10.5111 2.06579 10.6473 2.03452 10.7596 1.98378C10.8235 1.95494 10.8559 1.8916 10.9184 1.81989C10.9711 1.75935 11.0433 1.73008 11.1032 1.67607C11.1553 1.62902 11.2419 1.57489 11.3685 1.47285C11.3933 1.45282 11.4053 1.44515 11.4118 1.45076C11.4314 1.46768 11.391 1.54354 11.2973 1.68112C11.1432 1.90745 10.985 2.07208 10.9047 2.13887C10.8081 2.20729 10.7707 2.22988 10.7574 2.24233C10.7572 2.24801 10.7703 2.25242 10.797 2.25859" stroke="#0E8C00" stroke-width="0.5" stroke-linecap="round"/>
<path d="M11.1706 2.04621C11.1706 2.04965 11.1706 2.05309 11.4248 1.92003C11.6791 1.78697 12.1876 1.51731 12.4908 1.36904C12.7941 1.22078 12.8767 1.20209 13.0211 1.19219C13.1655 1.18228 13.3691 1.18173 13.5208 1.1729C13.6724 1.16406 13.7659 1.14696 13.9761 1.07872C14.1863 1.01048 14.5103 0.891616 14.7351 0.821989C14.9598 0.752361 15.0755 0.735573 15.2116 0.726925C15.3478 0.718277 15.5009 0.718277 15.6957 0.731806C15.8906 0.745335 16.1226 0.772392 16.3106 0.78902C16.4985 0.805647 16.6355 0.811024 16.796 0.831697C16.9565 0.85237 17.1364 0.888177 17.464 1.01517C17.7916 1.14217 18.2615 1.35927 18.5526 1.50526C18.8438 1.65125 18.942 1.71954 19.0313 1.7873C19.2014 1.9162 19.2891 1.99544 19.2894 2.00823C19.2896 2.01985 19.2462 2.01384 19.2683 2.01625C19.3676 2.02709 19.5534 2.06031 19.7746 2.14339C20.0218 2.23626 20.1629 2.3384 20.2039 2.36851C20.235 2.39136 20.4084 2.49002 20.6681 2.63621C20.9366 2.78732 21.11 3.00447 21.1646 3.06593C21.2088 3.11569 21.2456 3.18048 21.2841 3.26506C21.3288 3.36339 21.4282 3.413 21.5059 3.45943C21.5737 3.49991 21.6726 3.54871 21.7469 3.59682C21.7731 3.62032 21.7922 3.64368 21.8057 3.66767C21.8117 3.6801 21.8159 3.69303 21.8371 3.72741" stroke="#0E8C00" stroke-width="0.5" stroke-linecap="round"/>
<path d="M21.8371 3.72729C21.8431 3.74613 21.8754 3.80193 21.934 3.89837C21.9776 3.97015 22.0275 4.04414 22.1332 4.20014C22.1888 4.28233 22.2277 4.36401 22.2719 4.44878C22.3032 4.50863 22.3347 4.59256 22.3475 4.66394C22.3507 4.69923 22.3535 4.74075 22.3584 4.7848C22.3618 4.80623 22.3671 4.82581 22.3973 4.86452" stroke="#0E8C00" stroke-width="0.5" stroke-linecap="round"/>
<path d="M21.7619 3.50335C21.7653 3.50335 21.7687 3.50335 21.7694 3.49485C21.7783 3.37292 21.6018 3.22538 21.5621 3.14907C21.4788 2.98871 21.3085 2.8258 21.2182 2.72991C21.1483 2.65559 21.0427 2.59027 20.9902 2.55309C20.9352 2.51407 20.8836 2.4665 20.8287 2.42105C20.785 2.38476 20.6666 2.3189 20.4856 2.2275C20.3954 2.18191 20.3042 2.14618 20.1719 2.07663C20.0396 2.00708 19.8677 1.90691 19.7695 1.85022C19.6713 1.79353 19.6518 1.78337 19.5 1.71131C19.3482 1.63926 19.0645 1.50563 18.7641 1.38522C18.4637 1.26481 18.1551 1.16166 17.9224 1.0957C17.6896 1.02974 17.5419 1.0041 17.401 0.986157C17.2601 0.968211 17.1304 0.958736 16.9968 0.948975" stroke="#0E8C00" stroke-width="0.5" stroke-linecap="round"/>
<path d="M11.5497 1.36729C11.6557 1.31872 11.9028 1.20953 11.9805 1.19201C12.0363 1.17941 12.2176 1.10181 12.5169 0.971153C12.666 0.906034 12.8056 0.834084 12.9145 0.787592C13.0931 0.711374 13.2257 0.689972 13.352 0.673002C13.4242 0.663293 13.5135 0.654561 13.7251 0.624999C13.9367 0.595437 14.2681 0.546128 14.5076 0.501595C14.747 0.457063 14.8845 0.418801 15.0357 0.394691C15.3453 0.345305 15.5645 0.357416 15.6618 0.368751C15.8137 0.386447 15.9327 0.455329 16.0828 0.526391C16.1121 0.540268 16.1266 0.548531 16.1075 0.553313C16.0372 0.57093 15.8709 0.547897 15.6456 0.529386C15.4121 0.5102 15.2678 0.53034 15.183 0.549565C15.1194 0.564007 15.0151 0.593653 14.6893 0.713818C14.3635 0.833983 13.8196 1.04522 13.5149 1.15822C13.1643 1.28825 13.0928 1.28817 13.0569 1.28486C13.0387 1.28318 13.0214 1.27493 13.0128 1.26461C12.9967 1.24514 13.0747 1.17201 13.1928 1.08114C13.2683 1.02302 13.3271 1.00192 13.6054 0.90731C13.8582 0.821403 14.3352 0.652735 14.6091 0.561325C14.883 0.469916 14.9388 0.459386 15.2588 0.460247C15.5789 0.461107 16.1614 0.473677 16.593 0.505982C17.0245 0.538288 17.2874 0.589948 17.4392 0.621446C17.6718 0.669727 17.7135 0.693887 17.8673 0.775386C18.0046 0.848103 18.2586 0.990757 18.4432 1.09714C18.8555 1.34777 18.8906 1.3716 18.9154 1.39167C18.9278 1.40298 18.9398 1.41657 18.9587 1.44807" stroke="#0E8C00" stroke-width="0.5" stroke-linecap="round"/>
<path d="M15.8 0.375366C15.817 0.377293 15.8799 0.373781 15.9885 0.373793C16.0888 0.373803 16.1852 0.370103 16.2548 0.351154C16.2911 0.341273 16.3736 0.346964 16.6222 0.386944C16.8111 0.417309 17.1189 0.51197 17.305 0.558996C17.6159 0.637527 17.7653 0.64087 17.8739 0.671412C17.9874 0.703324 18.1523 0.776264 18.2468 0.820413C18.3086 0.84929 18.4328 0.926182 18.5472 0.981819C18.6742 1.04358 18.8447 1.14851 19.0007 1.24868C19.2266 1.39371 19.2907 1.42739 19.3785 1.47351C19.556 1.56677 19.7144 1.67617 19.9358 1.79032C20.0303 1.83901 20.0871 1.85169 20.1599 1.89789C20.2153 1.9416 20.2623 1.9788 20.3082 2.0162C20.3197 2.02621 20.3308 2.03776 20.364 2.05044" stroke="#0E8C00" stroke-width="0.5" stroke-linecap="round"/>
<rect x="33.2097" y="20.4907" width="3" height="7" transform="rotate(13.7396 33.2097 20.4907)" fill="#141414"/>
<rect x="42.1481" y="20.127" width="3" height="8" transform="rotate(-6.33564 42.1481 20.127)" fill="#141414"/>
<rect x="30.9249" y="16.6172" width="16" height="5" transform="rotate(-3.33663 30.9249 16.6172)" fill="#141414"/>
<path d="M35.264 22.3176L38.6442 19.7536" stroke="#141414" stroke-width="0.2"/>
<rect x="21" y="18.1973" width="10" height="3" transform="rotate(-3.33663 21 18.1973)" fill="#141414"/>
<path d="M21.3492 24.1875L25.1678 20.9598L21.1746 21.1926L21.3492 24.1875Z" fill="#141414"/>
<rect x="36.7983" y="14.2715" width="2" height="2" transform="rotate(-3.33663 36.7983 14.2715)" fill="#141414"/>
<rect x="35.6836" y="12.333" width="4" height="2" transform="rotate(-3.33663 35.6836 12.333)" fill="#141414"/>
<rect x="46.8977" y="15.686" width="8" height="3" transform="rotate(-3.33663 46.8977 15.686)" fill="#141414"/>
<line y1="-2.5" x2="26.1725" y2="-2.5" transform="matrix(-0.948681 -0.316234 -0.316234 0.948681 33.152 30.1379)" stroke="#0DA000" stroke-width="5"/>
<path d="M33.3236 30.3217L34.8158 25.4731L31.3679 24.3586L29.8756 29.2072L33.3236 30.3217Z" fill="#0F9400" stroke="#0F9400" stroke-width="0.2"/>
<path d="M22.2315 72.3047L29.7104 70.3057L28.5894 64.8909L21.1105 66.8899L22.2315 72.3047Z" fill="#0F9400"/>
</svg>
