<svg width="61" height="75" viewBox="0 0 61 75" fill="none" xmlns="http://www.w3.org/2000/svg">
<line y1="-3" x2="28.5071" y2="-3" transform="matrix(-0.18778 -0.982211 -0.982211 0.18778 52.9904 71.2058)" stroke="#0DA000" stroke-width="6"/>
<line x1="35.6906" y1="70.6425" x2="41.0437" y2="42.6425" stroke="#0DA000" stroke-width="6"/>
<line y1="-2.5" x2="26.1725" y2="-2.5" transform="matrix(0.939931 -0.341365 -0.341365 -0.939931 15.3901 23.0344)" stroke="#0DA000" stroke-width="5"/>
<rect width="16" height="31" transform="matrix(-1 0 0 1 53.9904 14.2058)" fill="#0DA000"/>
<path d="M15.3902 23.0346L16.9535 27.7309L20.3081 26.6142L18.7447 21.9179L15.3902 23.0346Z" fill="#0F9400" stroke="#0F9400" stroke-width="0.2"/>
<path d="M59.026 69.9419L52.026 71.5015L50.9548 66.4921L57.9548 64.9326L59.026 69.9419Z" fill="#0F9400" stroke="#0F9400" stroke-width="0.2"/>
<rect width="16" height="24" transform="matrix(-1 0 0 1 53.9904 14.2058)" fill="#0E8C00"/>
<circle cx="7.5" cy="7.5" r="7.5" transform="matrix(-1 0 0 1 52.9904 0.205811)" fill="#EFE9C9"/>
<path d="M52.9904 6.20374C51.4955 -1.94043 39.4959 -1.92844 37.9904 6.20374" stroke="#0E8C00" stroke-width="0.2"/>
<path d="M52.9904 6.20581H37.9904" stroke="#0E8C00" stroke-width="0.2"/>
<path d="M46.9817 4.16954C46.1091 4.16388 44.6401 4.1323 44.5525 4.08619C44.4641 4.03962 44.4042 3.92666 44.364 3.7746C44.3192 3.6047 44.3779 3.46052 44.4432 3.37702C44.5995 3.17719 45.1582 3.06389 45.9115 2.94715C46.8119 2.80759 47.305 3.12465 47.9385 3.43833C48.4857 3.70932 48.7127 3.72278 49.8302 4.35964C50.2805 4.61628 50.7385 4.7638 50.928 4.81258C51.1349 4.86583 50.5157 4.48467 49.9531 4.21098C49.594 4.03625 48.8055 4.0552 47.9179 4.04325C47.1708 4.0332 46.5885 4.34325 46.0032 4.52618C45.8253 4.5818 45.5856 4.57458 45.1962 4.55838C44.732 4.53906 44.0869 4.39324 43.3175 4.26275C42.5969 4.14053 41.9657 4.25232 41.428 4.33937C40.8729 4.42922 40.5183 4.37061 40.4222 4.32619C40.3763 4.30494 40.3591 4.24798 40.3749 4.20293C40.4117 4.09754 40.62 4.00648 41.1691 3.74829C41.596 3.54755 42.3427 3.24662 42.919 3.04947C43.4953 2.85231 43.8833 2.77862 44.3015 2.66175C45.166 2.42009 45.667 2.21581 45.8663 2.20372C46.2172 2.18245 46.5274 2.2275 46.888 2.37093C47.6267 2.6647 48.1254 2.97224 48.303 3.12435C48.897 3.63306 49.1343 3.82299 49.3438 3.96439C49.398 4.00094 49.4587 4.03012 49.463 4.05424C49.4673 4.07836 49.4155 4.09322 48.74 4.13022C48.0645 4.16723 46.7668 4.22594 46.0413 4.26827C45.3159 4.3106 45.202 4.33477 44.6973 4.37053C44.1927 4.4063 43.3008 4.45293 42.6913 4.50505C41.368 4.61821 40.9355 4.83625 40.5107 4.96672C40.251 5.04648 40.0545 5.05704 40.0003 5.04024C39.9834 5.035 40.0785 4.98983 40.5914 4.88445C41.1043 4.77907 42.0551 4.60293 42.9096 4.51902C43.7641 4.43511 44.4933 4.44876 44.9762 4.48777C45.6791 4.54452 46.1085 4.73908 46.5119 4.8762C47.1064 5.07827 47.6873 5.00422 48.3233 4.95504C48.5182 4.94434 48.7722 4.94434 48.9872 4.94104C49.2023 4.93773 49.3706 4.93113 49.6017 4.90735" stroke="#0E8C00" stroke-width="2" stroke-linecap="round"/>
<path d="M48.1032 5.94876C48.1049 5.95037 48.1065 5.95197 47.9441 5.95153C47.7816 5.95109 47.455 5.94855 47.201 5.9327C46.9469 5.91685 46.7753 5.88777 46.0768 5.86602C45.3782 5.84427 44.1579 5.83073 43.1697 5.83752C42.1814 5.84431 41.4622 5.87183 40.9645 5.88265C40.4668 5.89346 40.2124 5.88674 40.0356 5.88674C39.8589 5.88674 39.7676 5.89368 40.7566 5.7432C41.7456 5.59272 43.8177 5.28463 45.0442 5.12431C46.2707 4.96399 46.5888 4.9608 46.8181 4.96863C47.0473 4.97647 47.1781 4.99543 47.2414 5.01136C47.3048 5.02728 47.2968 5.03959 47.2483 5.05771C47.1997 5.07583 47.1109 5.09937 46.4903 5.19794C45.8697 5.29651 44.7199 5.46939 44.6265 5.51843C44.5331 5.56747 45.531 5.48744 46.0405 5.45576C46.55 5.42409 46.5411 5.44319 46.5292 5.45703C46.5068 5.48304 46.4659 5.49171 46.0394 5.50494C45.6346 5.51749 44.8471 5.52595 44.3552 5.54338C43.8633 5.56082 43.6907 5.58289 43.595 5.59562C43.4993 5.60834 43.4857 5.61104 43.4835 5.62072C43.4774 5.64736 43.5097 5.67497 43.5352 5.69619C43.5699 5.72513 43.7017 5.75877 43.8868 5.82127C44.0358 5.87162 44.1523 5.91469 44.2925 5.93585C44.3794 5.94897 44.5005 5.95125 44.6351 5.95301C44.9148 5.95665 45.0864 5.9447 45.1582 5.92906C45.2847 5.90149 45.4796 5.87762 45.6417 5.87766C45.6874 5.87768 45.6583 5.88936 45.509 5.894C45.3596 5.89863 45.0907 5.89886 44.938 5.90098C44.7567 5.9035 44.6202 5.91124 44.4057 5.9105C44.1946 5.90977 44.0278 5.91606 43.9147 5.93027C43.8169 5.94256 43.7327 5.92769 43.5937 5.91404C43.3274 5.88788 43.1093 5.89377 43.0148 5.87398C42.9163 5.85333 42.772 5.82453 42.6006 5.81614C42.3649 5.8046 42.2118 5.79664 42.1387 5.82812C42.1232 5.83478 42.1249 5.85406 42.1307 5.86869C42.1562 5.93332 42.2197 5.96835 42.2839 6.00758C42.3108 6.02403 42.4869 6.02184 42.7343 6.01913C42.8871 5.9876 43.0699 5.91562 43.1749 5.88776C43.1906 5.884 43.2056 5.87938 43.2212 5.87462" stroke="#0E8C00" stroke-width="0.5" stroke-linecap="round"/>
<path d="M48.1131 5.94476C48.1134 5.94476 48.1136 5.94476 48.3103 5.94384C48.507 5.94291 48.9001 5.94106 49.3091 5.93403C49.7182 5.92699 50.1313 5.91481 50.3884 5.90006C50.6455 5.8853 50.7341 5.86832 50.9395 5.85654C51.1449 5.84476 51.4643 5.83869 51.6582 5.83231C51.9108 5.824 52.0341 5.81274 52.1456 5.81778C52.2808 5.82391 52.4418 5.90997 52.5611 5.94525C52.6294 5.96546 52.6664 5.99511 52.6819 5.99899C52.702 6.00398 52.6154 5.99484 52.2997 5.97862C52.0101 5.96373 51.4568 5.9551 51.4084 5.94891C51.36 5.94272 51.833 5.9443 52.0849 5.94621C52.3899 5.94853 52.4743 5.96001 52.5648 5.92685C52.6237 5.90528 52.6647 5.88008 52.6811 5.85952C52.698 5.83832 52.6971 5.80638 52.695 5.77721C52.6854 5.63638 52.4106 5.53921 52.2914 5.49485C52.2521 5.48022 52.1963 5.47427 52.0236 5.47146C51.8508 5.46864 51.5614 5.47374 51.3994 5.4782C51.2115 5.48338 51.1716 5.49562 51.1449 5.50878C51.0837 5.53884 50.8834 5.77916 50.7809 5.91867C50.7511 5.95926 50.8985 5.97982 51.0696 6.01057C51.1164 6.019 51.1629 6.01647 51.3156 5.95355C51.4683 5.89063 51.7263 5.76393 51.9235 5.67245C52.2467 5.52257 52.4012 5.46899 52.4328 5.45027C52.4653 5.43098 52.4353 5.3614 52.3852 5.22604C52.2876 4.96187 52.2513 4.74997 52.1798 4.62844C52.1248 4.53489 52.0164 4.38608 51.9314 4.27703C51.8463 4.16798 51.784 4.10561 51.6355 3.99652C51.4869 3.88743 51.2539 3.73351 50.885 3.43874C50.516 3.14398 50.018 2.71304 49.7351 2.4748C49.4522 2.23656 49.3994 2.20407 49.2543 2.14235C49.1091 2.08064 48.8731 1.99068 48.3684 1.90146C47.8637 1.81223 47.0974 1.72646 46.5371 1.68505C45.9768 1.64365 45.6458 1.64922 45.2674 1.67129C44.889 1.69335 44.4734 1.73175 44.2454 1.74905C43.9901 1.76842 43.9366 1.74822 43.7291 1.67918C43.5463 1.61831 43.2061 1.50451 42.9527 1.43503C42.6994 1.36555 42.5431 1.34372 42.4453 1.33247C42.3131 1.31727 42.2554 1.3262 42.2239 1.34251C42.2105 1.34945 42.2161 1.37137 42.2299 1.38949C42.3183 1.50561 42.5391 1.53111 42.7995 1.54164C42.8652 1.54429 42.9151 1.53243 43.2155 1.43161C43.5159 1.33079 44.0654 1.13651 44.3818 1.0305C44.6981 0.924484 44.7647 0.912624 44.8944 0.907154C45.0241 0.901683 45.2148 0.902963 45.686 0.958654C46.1571 1.01435 46.9029 1.12441 47.3278 1.19333C47.7527 1.26226 47.8342 1.2867 48.1558 1.45082C48.4773 1.61494 49.0364 1.91799 49.3919 2.12381C49.7474 2.32963 49.8823 2.42905 49.9666 2.49504C50.1555 2.64293 50.2215 2.77365 50.2772 2.92327C50.2994 2.98296 50.2971 3.03437 50.2916 3.0754C50.2891 3.09343 50.2761 3.10331 50.2642 3.11077C50.1998 3.15125 49.8602 3.05258 49.6447 2.97712C49.6096 2.96486 49.6051 2.90043 49.5899 2.8178C49.5796 2.76175 49.5354 2.7143 49.4983 2.67978C49.4339 2.61983 49.1983 2.5537 48.8874 2.43842C48.7259 2.37853 48.5656 2.29313 48.4605 2.23623C48.3089 2.1542 48.1981 2.03247 48.0522 1.87189C47.9087 1.71386 47.7377 1.60251 47.6089 1.52644C47.5119 1.46915 47.4313 1.45253 46.9541 1.45392C46.4998 1.45524 45.6146 1.47341 45.0735 1.46957C44.5323 1.46573 44.362 1.44332 44.2387 1.43187C44.0449 1.41386 43.9581 1.42284 43.9525 1.42543C43.9457 1.42862 43.9887 1.42484 44.2503 1.38148C44.5119 1.33813 45.0055 1.25257 45.2218 1.20995C45.4381 1.16733 45.3621 1.17025 45.0956 1.22056C44.8292 1.27088 44.3746 1.36849 44.0564 1.45332C43.7382 1.53814 43.5702 1.60721 43.4547 1.65676C43.3392 1.70631 43.2812 1.73425 43.1369 1.80125C42.9926 1.86825 42.7638 1.97345 42.6544 2.02692C42.545 2.08039 42.562 2.07894 43.0483 1.93439C43.5346 1.78984 44.4897 1.50223 44.9945 1.35203C45.4993 1.20184 45.5249 1.19778 45.559 1.19568C45.6346 1.19103 45.6915 1.19566 45.777 1.19615C45.8487 1.19656 45.9778 1.18926 45.6228 1.23701C45.2678 1.28476 44.4247 1.38573 43.8458 1.48279C43.2668 1.57984 42.9776 1.66992 42.7708 1.74342C42.5639 1.81693 42.4482 1.87113 42.3712 1.90842C42.2943 1.94572 42.2596 1.96446 41.9747 2.13781C41.6899 2.31116 41.1558 2.63855 40.8368 2.84605C40.5177 3.05354 40.4298 3.13123 40.3764 3.18009C40.3052 3.24516 40.2552 3.31927 40.1933 3.42964C40.1474 3.54146 40.1125 3.74044 40.0891 3.97424C40.0811 4.06662 40.0811 4.10566 40.0811 4.14588" stroke="#0E8C00" stroke-width="0.5" stroke-linecap="round"/>
<path d="M39.8416 6.00705C39.8423 6.00705 39.843 6.00705 39.5895 6.00705C39.3361 6.00705 38.8285 6.00706 38.5593 6.00642C38.2901 6.00579 38.2746 6.00453 38.3294 5.962C38.5034 5.82701 38.6533 5.73886 38.6845 5.71366C38.7228 5.68272 38.8006 5.6053 38.9394 5.49094C39.1021 5.3569 39.2292 5.3072 39.2556 5.3037C39.3276 5.29419 39.2542 5.55375 39.2323 5.67508C39.2288 5.69461 39.232 5.70956 39.2389 5.72142C39.2458 5.73329 39.2588 5.74192 39.2743 5.74939C39.2898 5.75686 39.3075 5.76291 39.2561 5.76724C39.0843 5.78175 38.9274 5.77159 38.8553 5.76395C38.6551 5.74272 38.4652 5.78701 38.3782 5.78039C38.3489 5.77815 38.3041 5.7791 38.2835 5.77151C38.2628 5.76392 38.2675 5.74874 38.287 5.72832C38.384 5.62695 38.4892 5.52503 38.579 5.33634C38.6174 5.25578 38.6565 5.11885 38.723 4.98454C38.7895 4.85023 38.8747 4.71951 39.0435 4.51646C39.2122 4.31341 39.4619 4.042 39.6296 3.84383C39.7972 3.64567 39.8753 3.52896 39.8813 3.54729C39.8872 3.56562 39.8187 3.72253 39.7226 3.90683C39.6265 4.09113 39.505 4.29809 39.41 4.44571C39.315 4.59333 39.2502 4.67536 39.1818 4.75839C38.9562 5.03236 38.8991 5.10918 38.8631 5.18544C38.7982 5.32298 38.7683 5.4768 38.7492 5.50064C38.6894 5.57539 38.5238 5.55787 38.4405 5.55598C38.4099 5.55528 38.4042 5.53921 38.4039 5.52452C38.4028 5.45128 38.5161 5.27851 38.6994 4.9501C38.8099 4.75209 38.9879 4.50916 39.082 4.36734C39.1933 4.19966 39.2077 4.14924 39.2354 4.08493C39.2977 3.96587 39.3685 3.85366 39.4324 3.7799C39.4665 3.74305 39.5039 3.70738 39.5756 3.65575" stroke="#0E8C00" stroke-width="0.5" stroke-linecap="round"/>
<path d="M52.1746 5.28837C52.17 5.28595 52.0323 5.11592 51.9193 4.99465C51.9045 4.97875 51.8935 4.96116 51.8864 4.9456C51.8793 4.93004 51.8771 4.9165 51.8906 4.91014C51.904 4.90378 51.9331 4.90501 51.9499 4.89868C52.0865 4.84722 51.9847 4.48363 52.0149 4.39319C52.0254 4.36164 52.0466 4.34179 52.0679 4.33081C52.0779 4.32563 52.091 4.33528 52.0973 4.3311C52.1376 4.30441 52.0735 4.18292 52.0504 4.09297C52.0328 4.0242 51.9503 3.91562 51.8196 3.76825C51.7442 3.68332 51.7081 3.62287 51.6873 3.56926C51.6603 3.49956 51.5869 3.44201 51.5509 3.38846C51.512 3.33044 51.364 3.12517 51.2733 2.99394C51.2364 2.94048 51.1584 2.90102 51.0964 2.84274C50.9994 2.75154 50.9388 2.69987 50.8365 2.5764C50.7803 2.50867 50.6943 2.4387 50.5636 2.36711C50.4966 2.33043 50.4466 2.3192 50.4208 2.32618C50.3583 2.34307 50.3589 2.47607 50.3578 2.54386C50.3569 2.60217 50.4282 2.64287 50.5586 2.78917C50.7422 2.99521 50.8326 3.08412 50.8937 3.15196C50.9602 3.22586 51.0574 3.2685 51.1281 3.34652C51.1469 3.36826 51.165 3.38777 51.1819 3.40568C51.1989 3.42359 51.2142 3.43933 51.2459 3.48514" stroke="#0E8C00" stroke-width="0.5" stroke-linecap="round"/>
<path d="M50.6081 2.32193C50.6001 2.31962 50.5726 2.22901 50.5286 2.15203C50.4792 2.06579 50.343 2.03452 50.2307 1.98378C50.1669 1.95494 50.1344 1.8916 50.072 1.81989C50.0193 1.75935 49.9471 1.73008 49.8872 1.67607C49.8351 1.62902 49.7484 1.57489 49.6219 1.47285C49.597 1.45282 49.5851 1.44515 49.5786 1.45076C49.5589 1.46768 49.5994 1.54354 49.6931 1.68112C49.8472 1.90745 50.0054 2.07208 50.0856 2.13887C50.1823 2.20729 50.2197 2.22988 50.233 2.24233C50.2332 2.24801 50.2201 2.25242 50.1934 2.25859" stroke="#0E8C00" stroke-width="0.5" stroke-linecap="round"/>
<path d="M49.8198 2.04621C49.8198 2.04965 49.8198 2.05309 49.5655 1.92003C49.3113 1.78697 48.8028 1.51731 48.4995 1.36904C48.1962 1.22078 48.1136 1.20209 47.9692 1.19219C47.8249 1.18228 47.6212 1.18173 47.4696 1.1729C47.3179 1.16406 47.2244 1.14696 47.0142 1.07872C46.804 1.01048 46.48 0.891616 46.2553 0.821989C46.0305 0.752361 45.9149 0.735573 45.7787 0.726925C45.6426 0.718277 45.4895 0.718277 45.2946 0.731806C45.0997 0.745335 44.8678 0.772392 44.6798 0.78902C44.4918 0.805647 44.3548 0.811024 44.1943 0.831697C44.0338 0.85237 43.8539 0.888177 43.5263 1.01517C43.1987 1.14217 42.7289 1.35927 42.4377 1.50526C42.1466 1.65125 42.0484 1.71954 41.959 1.7873C41.789 1.9162 41.7012 1.99544 41.701 2.00823C41.7007 2.01985 41.7441 2.01384 41.7221 2.01625C41.6227 2.02709 41.4369 2.06031 41.2158 2.14339C40.9685 2.23626 40.8274 2.3384 40.7864 2.36851C40.7553 2.39136 40.5819 2.49002 40.3222 2.63621C40.0537 2.78732 39.8803 3.00447 39.8257 3.06593C39.7816 3.11569 39.7447 3.18048 39.7063 3.26506C39.6615 3.36339 39.5621 3.413 39.4844 3.45943C39.4166 3.49991 39.3178 3.54871 39.2435 3.59682C39.2173 3.62032 39.1982 3.64368 39.1847 3.66767C39.1787 3.6801 39.1744 3.69303 39.1532 3.72741" stroke="#0E8C00" stroke-width="0.5" stroke-linecap="round"/>
<path d="M39.1533 3.72729C39.1473 3.74613 39.115 3.80193 39.0564 3.89837C39.0128 3.97015 38.9629 4.04414 38.8572 4.20014C38.8016 4.28233 38.7627 4.36401 38.7185 4.44878C38.6872 4.50863 38.6557 4.59256 38.6429 4.66394C38.6397 4.69923 38.6369 4.74075 38.632 4.7848C38.6286 4.80623 38.6233 4.82581 38.5931 4.86452" stroke="#0E8C00" stroke-width="0.5" stroke-linecap="round"/>
<path d="M39.2285 3.50335C39.2251 3.50335 39.2217 3.50335 39.2211 3.49485C39.2121 3.37292 39.3886 3.22538 39.4283 3.14907C39.5117 2.98871 39.6819 2.8258 39.7722 2.72991C39.8421 2.65559 39.9477 2.59027 40.0002 2.55309C40.0553 2.51407 40.1069 2.4665 40.1617 2.42105C40.2054 2.38476 40.3238 2.3189 40.5048 2.2275C40.5951 2.18191 40.6862 2.14618 40.8185 2.07663C40.9509 2.00708 41.1227 1.90691 41.2209 1.85022C41.3192 1.79353 41.3386 1.78337 41.4904 1.71131C41.6423 1.63926 41.926 1.50563 42.2264 1.38522C42.5268 1.26481 42.8353 1.16166 43.0681 1.0957C43.3009 1.02974 43.4485 1.0041 43.5894 0.986157C43.7304 0.968211 43.86 0.958736 43.9936 0.948975" stroke="#0E8C00" stroke-width="0.5" stroke-linecap="round"/>
<path d="M49.4406 1.36729C49.3347 1.31872 49.0876 1.20953 49.0099 1.19201C48.954 1.17941 48.7728 1.10181 48.4735 0.971153C48.3243 0.906034 48.1848 0.834084 48.0759 0.787592C47.8973 0.711374 47.7647 0.689972 47.6384 0.673002C47.5661 0.663293 47.4769 0.654561 47.2653 0.624999C47.0537 0.595437 46.7223 0.546128 46.4828 0.501595C46.2433 0.457063 46.1058 0.418801 45.9547 0.394691C45.645 0.345305 45.4258 0.357416 45.3285 0.368751C45.1766 0.386447 45.0577 0.455329 44.9076 0.526391C44.8782 0.540268 44.8638 0.548531 44.8829 0.553313C44.9532 0.57093 45.1194 0.547897 45.3447 0.529386C45.5783 0.5102 45.7226 0.53034 45.8073 0.549565C45.871 0.564007 45.9752 0.593653 46.301 0.713818C46.6269 0.833983 47.1708 1.04522 47.4755 1.15822C47.8261 1.28825 47.8976 1.28817 47.9334 1.28486C47.9516 1.28318 47.9689 1.27493 47.9775 1.26461C47.9937 1.24514 47.9157 1.17201 47.7976 1.08114C47.722 1.02302 47.6632 1.00192 47.3849 0.90731C47.1322 0.821403 46.6551 0.652735 46.3812 0.561325C46.1073 0.469916 46.0515 0.459386 45.7315 0.460247C45.4115 0.461107 44.8289 0.473677 44.3974 0.505982C43.9658 0.538288 43.7029 0.589948 43.5512 0.621446C43.3185 0.669727 43.2768 0.693887 43.123 0.775386C42.9858 0.848103 42.7318 0.990757 42.5471 1.09714C42.1349 1.34777 42.0998 1.3716 42.075 1.39167C42.0626 1.40298 42.0506 1.41657 42.0316 1.44807" stroke="#0E8C00" stroke-width="0.5" stroke-linecap="round"/>
<path d="M45.1904 0.375366C45.1735 0.377293 45.1105 0.373781 45.0019 0.373793C44.9016 0.373803 44.8053 0.370103 44.7356 0.351154C44.6993 0.341273 44.6168 0.346964 44.3682 0.386944C44.1793 0.417309 43.8715 0.51197 43.6854 0.558996C43.3745 0.637527 43.2251 0.64087 43.1165 0.671412C43.003 0.703324 42.8382 0.776264 42.7436 0.820413C42.6818 0.84929 42.5576 0.926182 42.4432 0.981819C42.3162 1.04358 42.1457 1.14851 41.9897 1.24868C41.7638 1.39371 41.6997 1.42739 41.6119 1.47351C41.4345 1.56677 41.276 1.67617 41.0546 1.79032C40.9601 1.83901 40.9033 1.85169 40.8305 1.89789C40.7751 1.9416 40.7281 1.9788 40.6822 2.0162C40.6707 2.02621 40.6596 2.03776 40.6264 2.05044" stroke="#0E8C00" stroke-width="0.5" stroke-linecap="round"/>
<rect width="3" height="7" transform="matrix(-0.971385 0.23751 0.23751 0.971385 27.7807 20.4907)" fill="#141414"/>
<rect width="3" height="8" transform="matrix(-0.993893 -0.110353 -0.110353 0.993893 18.8423 20.127)" fill="#141414"/>
<rect width="16" height="5" transform="matrix(-0.998305 -0.0582022 -0.0582022 0.998305 30.0656 16.6172)" fill="#141414"/>
<path d="M25.7264 22.3176L22.3462 19.7536" stroke="#141414" stroke-width="0.2"/>
<rect width="10" height="3" transform="matrix(-0.998305 -0.0582022 -0.0582022 0.998305 39.9904 18.1973)" fill="#141414"/>
<path d="M39.6411 24.1875L35.8225 20.9598L39.8157 21.1926L39.6411 24.1875Z" fill="#141414"/>
<rect width="2" height="2" transform="matrix(-0.998305 -0.0582022 -0.0582022 0.998305 24.1921 14.2715)" fill="#141414"/>
<rect width="4" height="2" transform="matrix(-0.998305 -0.0582022 -0.0582022 0.998305 25.3068 12.333)" fill="#141414"/>
<rect width="8" height="3" transform="matrix(-0.998305 -0.0582022 -0.0582022 0.998305 14.0927 15.686)" fill="#141414"/>
<rect width="6" height="2" transform="matrix(-0.998305 -0.0582022 -0.0582022 0.998305 6.10626 15.2202)" fill="#141414"/>
<line x1="27.0478" y1="27.7662" x2="51.8772" y2="19.4896" stroke="#0DA000" stroke-width="5"/>
<path d="M27.6668 30.3217L26.1746 25.4731L29.6225 24.3586L31.1147 29.2072L27.6668 30.3217Z" fill="#0F9400" stroke="#0F9400" stroke-width="0.2"/>
<path d="M38.5798 72.199L31.1009 70.1999L32.222 64.7852L39.7008 66.7842L38.5798 72.199Z" fill="#0F9400"/>
</svg>
