<svg width="49" height="83" viewBox="0 0 49 83" fill="none" xmlns="http://www.w3.org/2000/svg">
<line x1="13.6825" y1="81.9657" x2="21.0356" y2="50.321" stroke="#EFE9C9" stroke-width="6"/>
<line y1="-3.5" x2="32.4877" y2="-3.5" transform="matrix(-0.226334 -0.97405 -0.97405 0.226334 33.6046 82.8402)" stroke="#EFE9C9" stroke-width="7"/>
<line x1="46.86" y1="44.7056" x2="31.5753" y2="23.46" stroke="#EFE9C9" stroke-width="5"/>
<line y1="-2.5" x2="26.1725" y2="-2.5" transform="matrix(0.693011 0.720927 0.720927 -0.693011 3.60464 6)" stroke="#EFE9C9" stroke-width="5"/>
<rect x="17.6046" y="22" width="16" height="31" fill="#EFE9C9"/>
<path d="M17.6046 49L13.1046 58.5L16.6046 56.5L17.6046 60L19.6046 56.5L22.1046 61.5L24.1046 56.5L26.6046 61.5L28.6046 57L31.6046 62L32.6046 57L37.1046 61.5L34.1046 49H17.6046Z" fill="#009A0A" stroke="#009A0A"/>
<circle cx="26.1046" cy="15.5" r="7.5" fill="#EFE9C9"/>
<circle cx="8.10464" cy="6.5" r="6.5" fill="#A5A5A5"/>
<line x1="13.6825" y1="81.9657" x2="21.0356" y2="50.321" stroke="#EFE9C9" stroke-width="6"/>
<line y1="-3.5" x2="32.4877" y2="-3.5" transform="matrix(-0.226334 -0.97405 -0.97405 0.226334 33.6046 82.8402)" stroke="#EFE9C9" stroke-width="7"/>
<line x1="46.86" y1="44.7056" x2="31.5753" y2="23.46" stroke="#EFE9C9" stroke-width="5"/>
<line y1="-2.5" x2="26.1725" y2="-2.5" transform="matrix(0.693011 0.720927 0.720927 -0.693011 3.60464 6)" stroke="#EFE9C9" stroke-width="5"/>
<rect x="17.6046" y="22" width="16" height="31" fill="#EFE9C9"/>
<path d="M17.6046 49L13.1046 58.5L16.6046 56.5L17.6046 60L19.6046 56.5L22.1046 61.5L24.1046 56.5L26.6046 61.5L28.6046 57L31.6046 62L32.6046 57L37.1046 61.5L34.1046 49H17.6046Z" fill="#009A0A" stroke="#009A0A"/>
<circle cx="26.1046" cy="15.5" r="7.5" fill="#EFE9C9"/>
<circle cx="8.10464" cy="6.5" r="6.5" fill="#A5A5A5"/>
</svg>
