<svg width="49" height="83" viewBox="0 0 49 83" fill="none" xmlns="http://www.w3.org/2000/svg">
<line y1="-3" x2="32.4877" y2="-3" transform="matrix(-0.226334 -0.97405 -0.97405 0.226334 32.2847 82.6447)" stroke="#EFE9C9" stroke-width="6"/>
<line x1="11.8756" y1="82.048" x2="19.2286" y2="50.4034" stroke="#EFE9C9" stroke-width="7"/>
<line y1="-2.5" x2="26.1725" y2="-2.5" transform="matrix(0.583999 -0.811755 -0.811755 -0.583999 0 43.2456)" stroke="#EFE9C9" stroke-width="5"/>
<line x1="47.087" y1="7.73253" x2="28.9492" y2="26.601" stroke="#EFE9C9" stroke-width="5"/>
<rect width="16" height="31" transform="matrix(-1 0 0 1 31.2847 22)" fill="#EFE9C9"/>
<path d="M31.2847 49L35.7847 58.5L32.2847 56.5L31.2847 60L29.2847 56.5L26.7847 61.5L24.7847 56.5L22.2847 61.5L20.2847 57L17.2847 62L16.2847 57L11.7847 61.5L14.7847 49H31.2847Z" fill="#009A0A" stroke="#009A0A"/>
<circle cx="7.5" cy="7.5" r="7.5" transform="matrix(-1 0 0 1 30.2847 8)" fill="#EFE9C9"/>
<circle cx="6.5" cy="6.5" r="6.5" transform="matrix(-1 0 0 1 47.2847 0)" fill="#A5A5A5"/>
<line y1="-3" x2="32.4877" y2="-3" transform="matrix(-0.226334 -0.97405 -0.97405 0.226334 32.2847 82.6447)" stroke="#EFE9C9" stroke-width="6"/>
<line x1="11.8756" y1="82.048" x2="19.2286" y2="50.4034" stroke="#EFE9C9" stroke-width="7"/>
<line y1="-2.5" x2="26.1725" y2="-2.5" transform="matrix(0.583999 -0.811755 -0.811755 -0.583999 0 43.2456)" stroke="#EFE9C9" stroke-width="5"/>
<line x1="47.087" y1="7.73253" x2="28.9492" y2="26.601" stroke="#EFE9C9" stroke-width="5"/>
<rect width="16" height="31" transform="matrix(-1 0 0 1 31.2847 22)" fill="#EFE9C9"/>
<path d="M31.2847 49L35.7847 58.5L32.2847 56.5L31.2847 60L29.2847 56.5L26.7847 61.5L24.7847 56.5L22.2847 61.5L20.2847 57L17.2847 62L16.2847 57L11.7847 61.5L14.7847 49H31.2847Z" fill="#009A0A" stroke="#009A0A"/>
<circle cx="7.5" cy="7.5" r="7.5" transform="matrix(-1 0 0 1 30.2847 8)" fill="#EFE9C9"/>
<circle cx="6.5" cy="6.5" r="6.5" transform="matrix(-1 0 0 1 47.2847 0)" fill="#A5A5A5"/>
</svg>
