<svg width="48" height="78" viewBox="0 0 48 78" fill="none" xmlns="http://www.w3.org/2000/svg">
<line y1="-2.5" x2="26.1725" y2="-2.5" transform="matrix(0.687744 -0.725953 -0.725953 -0.687744 0.960266 40)" stroke="#BCBC05" stroke-width="5"/>
<line x1="44.7492" y1="45.3142" x2="32.5346" y2="22.1668" stroke="#BCBC05" stroke-width="5"/>
<rect width="16" height="31" transform="matrix(-1 0 0 1 34.9603 21)" fill="#C3C300"/>
<path d="M26.6966 27L20.6966 21H31.1966L26.6966 27Z" fill="white" stroke="white"/>
<line y1="-3" x2="28.5071" y2="-3" transform="matrix(-0.18778 -0.982211 -0.982211 0.18778 33.9603 78)" stroke="#BCBC05" stroke-width="6"/>
<line x1="16.6606" y1="77.4367" x2="22.0137" y2="49.4367" stroke="#BCBC05" stroke-width="6"/>
<circle cx="7.5" cy="7.5" r="7.5" transform="matrix(-1 0 0 1 33.9603 7)" fill="#EFE9C9"/>
<rect x="21.9491" y="4.99268" width="13.4273" height="4" transform="rotate(18.2481 21.9491 4.99268)" fill="#3D0000"/>
<path d="M26.1245 1.73451L21.924 4.99121L34.6937 9.25578L34.9012 5.76193L34.0511 3.20704L31.7037 0.563225L29.2081 0.415008L26.1245 1.73451Z" fill="#3D0000"/>
<path d="M22.3915 23.5285L22.1681 20L28.648 20.5108L29.1072 21.0485L29.527 22.0847L29.3699 24.0785L28.95 23.0423L28.8321 24.5377L27.8745 23.9607L27.2975 24.9183L26.8383 24.3805L26.2613 25.3381L25.8021 24.8004L25.1858 26.2565L25.3037 24.7611L24.7266 25.7187L24.346 24.1841L23.2706 25.1024L22.9686 22.5708L22.3915 23.5285Z" fill="#6B2929"/>
<path d="M40.6966 43L42.6966 46.5L47.1966 44.5L45.1966 41L40.6966 43Z" fill="black"/>
<path d="M7.69659 40.5L4.69659 43.5L0.696594 40L3.19659 37L7.69659 40.5Z" fill="black"/>
<path d="M40.6966 43L42.6966 46.5L47.1966 44.5L45.1966 41L40.6966 43Z" stroke="black"/>
<path d="M7.69659 40.5L4.69659 43.5L0.696594 40L3.19659 37L7.69659 40.5Z" stroke="black"/>
<rect x="2.69659" y="25" width="2" height="42" fill="#E1FF00"/>
<ellipse cx="3.69659" cy="23.5" rx="2" ry="2.5" fill="#FF0000"/>
<path d="M3.69659 22V19" stroke="#E1FF00" stroke-width="0.5"/>
<path d="M3.69659 20H4.69659H2.69659" stroke="#E1FF00" stroke-width="0.5"/>
</svg>
