<svg width="53" height="75" viewBox="0 0 53 75" fill="none" xmlns="http://www.w3.org/2000/svg">
<line x1="11.0534" y1="70.5424" x2="16.4064" y2="42.5424" stroke="#3C0000" stroke-width="6"/>
<line y1="-3" x2="28.5071" y2="-3" transform="matrix(-0.18778 -0.982211 -0.982211 0.18778 28.353 71.1057)" stroke="#3C0000" stroke-width="6"/>
<line x1="42.3384" y1="36.6569" x2="26.976" y2="15.4674" stroke="white" stroke-width="5"/>
<line y1="-2.5" x2="26.1725" y2="-2.5" transform="matrix(0.466696 -0.884418 -0.884418 -0.466696 0.999985 37.2532)" stroke="white" stroke-width="5"/>
<rect x="13" y="14.1057" width="16" height="31" fill="#3C0000"/>
<path d="M44.3625 35.1895L40.4351 38.202L38.2832 35.3967L42.2106 32.3842L44.3625 35.1895Z" fill="#EFE9C9" stroke="#EFE9C9" stroke-width="0.2"/>
<path d="M0.790632 37.3924L5.331 39.6553L6.99286 36.4353L2.45249 34.1724L0.790632 37.3924Z" fill="#EFE9C9" stroke="#EFE9C9" stroke-width="0.2"/>
<path d="M7.96442 69.8418L14.9644 71.4014L16.0356 66.392L9.03557 64.8325L7.96442 69.8418Z" fill="black"/>
<path d="M28.3856 72.0039L35.8645 70.0049L34.7434 64.5901L27.2646 66.5891L28.3856 72.0039Z" fill="black"/>
<circle cx="21.5" cy="7.60571" r="7.5" fill="#EFE9C9"/>
<rect x="40.4744" y="29.8052" width="4" height="9" transform="rotate(15.9582 40.4744 29.8052)" fill="#003C56"/>
<rect x="48.9975" width="4" height="31" transform="rotate(15.9582 48.9975 0)" fill="#00B7FF"/>
<rect x="49.684" y="1.23608" width="2" height="30" transform="rotate(15.9582 49.684 1.23608)" fill="#58D0FF"/>
<rect x="13" y="14" width="6" height="32" fill="white"/>
<rect x="23" y="14" width="6" height="32" fill="white"/>
</svg>
