<svg width="67" height="90" viewBox="0 0 67 90" fill="none" xmlns="http://www.w3.org/2000/svg">
<rect width="8.28399" height="60.1364" transform="matrix(-0.847276 0.531153 0.531153 0.847276 31.0584 20.5618)" fill="#632323"/>
<path d="M17.7353 7.27371L18.4828 31.1758L38.8089 18.5774L17.7353 7.27371Z" fill="#9D9D9D"/>
<line y1="-4" x2="32.4877" y2="-4" transform="matrix(-0.226334 -0.97405 -0.97405 0.226334 47.9703 89.6447)" stroke="#EFE9C9" stroke-width="8"/>
<line x1="29.721" y1="88.7393" x2="37.0741" y2="57.0947" stroke="#EFE9C9" stroke-width="8"/>
<line y1="-3" x2="26.1725" y2="-3" transform="matrix(0.687744 -0.725953 -0.725953 -0.687744 14.9703 48)" stroke="#EFE9C9" stroke-width="6"/>
<line x1="58.317" y1="53.5475" x2="46.1024" y2="30.4001" stroke="#EFE9C9" stroke-width="6"/>
<rect width="16" height="31" transform="matrix(-1 0 0 1 48.9703 29)" fill="#EFE9C9"/>
<path d="M48.9703 56L53.4703 65.5L49.9703 63.5L48.9703 67L46.9703 63.5L44.4703 68.5L42.4703 63.5L39.9703 68.5L37.9703 64L34.9703 69L33.9703 64L29.4703 68.5L32.4703 56H48.9703Z" fill="#009A0A" stroke="#009A0A"/>
<path d="M18.8484 43.4124L21.4527 47.1538L18.469 49.0952L15.8648 45.3537L10.4665 40.7123L3.83732 33.1346L1.42275 26.5517L1.5176 25.131L2.27537 24.4681L3.03314 23.8052L5.2116 23.2371L11.3202 27.926L17.7597 38.3451L18.8484 43.4124Z" fill="#632323" stroke="#632323"/>
<circle cx="7.5" cy="7.5" r="7.5" transform="matrix(-1 0 0 1 47.9703 15)" fill="#EFE9C9"/>
<circle cx="6.5" cy="6.5" r="6.5" transform="matrix(-1 0 0 1 67 41)" fill="#A5A5A5"/>
</svg>
