<svg width="58" height="75" viewBox="0 0 58 75" fill="none" xmlns="http://www.w3.org/2000/svg">
<line y1="-3" x2="28.5071" y2="-3" transform="matrix(-0.18778 -0.982211 -0.982211 0.18778 44.2637 74.5)" stroke="#EFE9C9" stroke-width="6"/>
<line x1="26.964" y1="73.9367" x2="32.3171" y2="45.9367" stroke="#EFE9C9" stroke-width="6"/>
<line y1="-2.5" x2="26.1725" y2="-2.5" transform="matrix(0.687744 -0.725953 -0.725953 -0.687744 11.2637 37.5)" stroke="#EFE9C9" stroke-width="5"/>
<rect width="16" height="31" transform="matrix(-1 0 0 1 45.2637 17.5)" fill="#FF2020"/>
<rect width="4" height="7" transform="matrix(-0.910852 0.412734 0.412734 0.910852 14.3745 31.1821)" fill="#632323"/>
<rect width="8" height="2" transform="matrix(-0.910852 0.412734 0.412734 0.910852 15.3708 28.535)" fill="#632323"/>
<rect width="4" height="18" transform="matrix(-0.910852 0.412734 0.412734 0.910852 6.11987 12.9651)" fill="#D5D5D5"/>
<path d="M2.47643 14.616L6.11983 12.9651L1.82173 8.32546L2.47643 14.616Z" fill="#D5D5D5"/>
<line y1="-3" x2="9.89949" y2="-3" transform="matrix(0.691044 -0.722813 -0.722813 -0.691044 22.4227 24.6555)" stroke="#9F9F9F" stroke-width="6"/>
<line y1="-2.5" x2="26.1725" y2="-2.5" transform="matrix(-0.493425 -0.869788 -0.869788 0.493425 53.2637 44.2546)" stroke="#EFE9C9" stroke-width="5"/>
<line y1="-3" x2="9.89949" y2="-3" transform="matrix(-0.489458 -0.872027 -0.872027 0.489458 44.2313 29.1326)" stroke="#9F9F9F" stroke-width="6"/>
<path d="M43.2637 70.5L50.1208 69.5L51.2637 73.5L44.4065 74.5L43.2637 70.5Z" fill="#632323" stroke="#632323" stroke-width="0.1"/>
<path d="M31.2637 70.5L24.4065 69.5L23.2637 73.5L30.1208 74.5L31.2637 70.5Z" fill="#632323" stroke="#632323" stroke-width="0.1"/>
<path d="M39.2637 48.5L40.7637 56H44.2637H46.7637L45.7637 48.5H39.2637Z" fill="#FF2020" stroke="#FF2020" stroke-width="0.1"/>
<path d="M35.2637 48.5L33.6637 56.5H29.9303H27.2637L28.3303 48.5H35.2637Z" fill="#FF2020"/>
<path d="M29.2637 45.5L28.2637 48.5H29.2637V45.5Z" fill="#FF2020"/>
<path d="M45.2637 47.5L45.7637 48.5H45.2637V47.5Z" fill="#FF2020" stroke="#FF2020" stroke-width="0.1"/>
<rect width="16" height="23" transform="matrix(-1 0 0 1 45.2637 17.5)" fill="#9F9F9F"/>
<circle cx="7.5" cy="7.5" r="7.5" transform="matrix(-1 0 0 1 44.2637 3.49999)" fill="#EFE9C9"/>
<path d="M43.2637 6.49999C41.222 -0.511012 32.7397 -2.43158 30.2637 6.49999" stroke="#747474"/>
<path d="M30.7637 9.99999L30.2637 6.49999L29.2637 10.5L29.7637 14L31.7637 11.5L30.7637 9.99999Z" fill="#747474"/>
<path d="M42.2637 6.49999H30.2637M30.2637 6.49999L30.7637 9.99999L31.7637 11.5L29.7637 14L29.2637 10.5L30.2637 6.49999Z" stroke="#747474"/>
<path d="M42.6483 9.76666L43.1867 6.49999L44.2637 10.2333L43.7252 13.5L41.5714 11.1667L42.6483 9.76666Z" fill="#747474"/>
<path d="M30.2637 6.49999H43.1867M43.1867 6.49999L42.6483 9.76666L41.5714 11.1667L43.7252 13.5L44.2637 10.2333L43.1867 6.49999Z" stroke="#747474"/>
<path d="M42.5491 5.83961C42.3694 5.83324 41.8682 5.78624 41.2936 5.74815C41.1304 5.73732 40.982 5.68995 40.4337 5.66332C39.8853 5.63669 38.9423 5.62324 38.4342 5.61294C37.8812 5.60174 37.7364 5.58246 37.457 5.55469C37.2762 5.53671 37.0175 5.49767 36.4024 5.50119C35.7873 5.50472 34.8239 5.54863 34.027 5.63367C33.2301 5.71871 32.6288 5.84355 32.2967 5.91105C31.9205 5.98752 31.8421 5.99654 31.7819 5.99098C31.7516 5.98819 31.7294 5.95383 31.7528 5.85363C31.8722 5.34363 32.0329 5.18296 32.1198 5.00304C32.2783 4.67472 32.3511 4.45185 32.4707 4.19678C32.5209 4.08976 32.6245 3.9021 32.8341 3.60999C33.254 3.02504 33.5831 2.79408 33.7877 2.62647C34.0631 2.40082 34.5844 2.17139 34.7411 2.08753C34.9364 1.98304 35.1399 1.90029 35.2921 1.83794C35.5639 1.72658 35.7544 1.74662 36.0749 1.72385C36.3306 1.70568 36.6347 1.65713 37.0482 1.65564C37.2346 1.65497 37.3685 1.70874 37.6063 1.79138C38.0259 1.93719 38.1773 2.01573 38.3275 2.06681C38.5553 2.1443 38.7681 2.29022 39.0986 2.50923C39.2809 2.63006 39.4477 2.72355 39.6296 2.8231C40.0339 3.04445 40.1847 3.12909 40.3779 3.32434C40.4957 3.44345 40.6014 3.57853 40.7301 3.6995C40.8648 3.82604 41.0113 3.94417 41.1361 4.05574C41.2534 4.16066 41.3488 4.21724 41.3819 4.28513C41.4017 4.32572 41.3971 4.3904 41.3757 4.42534C41.3347 4.49248 41.036 4.47456 40.6171 4.47801C40.2695 4.48087 40.0702 4.48965 39.7784 4.4997C39.0655 4.52423 38.5492 4.51082 38.4632 4.522C38.3674 4.53445 38.1081 4.56641 37.4744 4.64484C37.0485 4.69756 36.4108 4.77818 35.804 4.85048C35.1973 4.92278 34.6409 4.98473 34.3078 5.02505C33.881 5.0767 33.6977 5.10253 33.5668 5.08721C33.5206 5.0818 33.5294 5.02891 33.549 4.98393C33.63 4.79829 34.0118 4.52679 34.5729 4.10688C34.8258 3.91764 35.0351 3.80574 35.2946 3.68002C35.8552 3.40852 36.2347 3.2776 36.4762 3.24747C36.9831 3.18426 37.36 3.21556 37.442 3.23527C37.7626 3.3123 38.511 3.57023 38.7839 3.6774C38.9331 3.73598 39.0758 3.89258 39.2729 4.0493C39.5334 4.2565 39.8224 4.43817 39.9907 4.51687C40.0265 4.53483 40.0592 4.55626 40.0891 4.57632C40.1189 4.59639 40.1449 4.61443 40.2357 4.63742" stroke="#747474" stroke-width="2" stroke-linecap="round"/>
</svg>
