<svg width="58" height="75" viewBox="0 0 58 75" fill="none" xmlns="http://www.w3.org/2000/svg">
<line x1="10.4023" y1="73.9367" x2="15.7554" y2="45.9367" stroke="#EFE9C9" stroke-width="6"/>
<line y1="-3" x2="28.5071" y2="-3" transform="matrix(-0.18778 -0.982211 -0.982211 0.18778 27.702 74.5)" stroke="#EFE9C9" stroke-width="6"/>
<line x1="44.5341" y1="39.2194" x2="26.5341" y2="20.2193" stroke="#EFE9C9" stroke-width="5"/>
<rect x="12.3489" y="17.5" width="16" height="31" fill="#FF2020"/>
<rect x="43.2381" y="31.1821" width="4" height="7" transform="rotate(24.3767 43.2381 31.1821)" fill="#632323"/>
<rect x="42.2418" y="28.535" width="8" height="2" transform="rotate(24.3767 42.2418 28.535)" fill="#632323"/>
<rect x="51.4927" y="12.9651" width="4" height="18" transform="rotate(24.3767 51.4927 12.9651)" fill="#D5D5D5"/>
<path d="M55.1362 14.616L51.4927 12.9651L55.7909 8.32546L55.1362 14.616Z" fill="#D5D5D5"/>
<line x1="33.0215" y1="26.7286" x2="26.1805" y2="19.5731" stroke="#9F9F9F" stroke-width="6"/>
<line x1="2.17447" y1="43.021" x2="15.0886" y2="20.2565" stroke="#EFE9C9" stroke-width="5"/>
<line x1="10.7653" y1="27.6642" x2="15.6107" y2="19.0316" stroke="#9F9F9F" stroke-width="6"/>
<path d="M14.3489 70.5L7.4918 69.5L6.34894 73.5L13.2061 74.5L14.3489 70.5Z" fill="#632323" stroke="#632323" stroke-width="0.1"/>
<path d="M26.3489 70.5L33.2061 69.5L34.3489 73.5L27.4918 74.5L26.3489 70.5Z" fill="#632323" stroke="#632323" stroke-width="0.1"/>
<path d="M18.3489 48.5L16.8489 56H13.3489H10.8489L11.8489 48.5H18.3489Z" fill="#FF2020" stroke="#FF2020" stroke-width="0.1"/>
<path d="M22.3489 48.5L23.9489 56.5H27.6823H30.3489L29.2823 48.5H22.3489Z" fill="#FF2020"/>
<path d="M28.3489 45.5L29.3489 48.5H28.3489V45.5Z" fill="#FF2020"/>
<path d="M12.3489 47.5L11.8489 48.5H12.3489V47.5Z" fill="#FF2020" stroke="#FF2020" stroke-width="0.1"/>
<rect x="12.3489" y="17.5" width="16" height="23" fill="#9F9F9F"/>
<circle cx="20.8489" cy="11" r="7.5" fill="#EFE9C9"/>
<path d="M14.3489 6.49999C16.3906 -0.511012 24.8729 -2.43158 27.3489 6.49999" stroke="#747474"/>
<path d="M26.8489 9.99999L27.3489 6.49999L28.3489 10.5L27.8489 14L25.8489 11.5L26.8489 9.99999Z" fill="#747474"/>
<path d="M15.3489 6.49999H27.3489M27.3489 6.49999L26.8489 9.99999L25.8489 11.5L27.8489 14L28.3489 10.5L27.3489 6.49999Z" stroke="#747474"/>
<path d="M14.9643 9.76666L14.4259 6.49999L13.3489 10.2333L13.8874 13.5L16.0412 11.1667L14.9643 9.76666Z" fill="#747474"/>
<path d="M27.3489 6.49999H14.4259M14.4259 6.49999L14.9643 9.76666L16.0412 11.1667L13.8874 13.5L13.3489 10.2333L14.4259 6.49999Z" stroke="#747474"/>
<path d="M15.0636 5.83961C15.2433 5.83324 15.7444 5.78624 16.319 5.74815C16.4823 5.73732 16.6306 5.68995 17.179 5.66332C17.7273 5.63669 18.6703 5.62324 19.1785 5.61294C19.7314 5.60174 19.8763 5.58246 20.1557 5.55469C20.3365 5.53671 20.5951 5.49767 21.2102 5.50119C21.8253 5.50472 22.7887 5.54863 23.5857 5.63367C24.3826 5.71871 24.9838 5.84355 25.3159 5.91105C25.6921 5.98752 25.7705 5.99654 25.8308 5.99098C25.861 5.98819 25.8833 5.95383 25.8598 5.85363C25.7404 5.34363 25.5797 5.18296 25.4928 5.00304C25.3343 4.67472 25.2616 4.45185 25.1419 4.19678C25.0917 4.08976 24.9882 3.9021 24.7785 3.60999C24.3586 3.02504 24.0295 2.79408 23.8249 2.62647C23.5495 2.40082 23.0283 2.17139 22.8715 2.08753C22.6762 1.98304 22.4727 1.90029 22.3205 1.83794C22.0487 1.72658 21.8582 1.74662 21.5377 1.72385C21.282 1.70568 20.9779 1.65713 20.5645 1.65564C20.378 1.65497 20.2441 1.70874 20.0063 1.79138C19.5867 1.93719 19.4353 2.01573 19.2851 2.06681C19.0573 2.1443 18.8446 2.29022 18.514 2.50923C18.3317 2.63006 18.1649 2.72355 17.983 2.8231C17.5787 3.04445 17.428 3.12909 17.2348 3.32434C17.1169 3.44345 17.0112 3.57853 16.8825 3.6995C16.7478 3.82604 16.6013 3.94417 16.4765 4.05574C16.3592 4.16066 16.2638 4.21724 16.2307 4.28513C16.2109 4.32572 16.2156 4.3904 16.2369 4.42534C16.2779 4.49248 16.5766 4.47456 16.9955 4.47801C17.3432 4.48087 17.5424 4.48965 17.8343 4.4997C18.5471 4.52423 19.0634 4.51082 19.1494 4.522C19.2452 4.53445 19.5046 4.56641 20.1382 4.64484C20.5642 4.69756 21.2019 4.77818 21.8086 4.85048C22.4153 4.92278 22.9717 4.98473 23.3049 5.02505C23.7317 5.0767 23.9149 5.10253 24.0459 5.08721C24.0921 5.0818 24.0833 5.02891 24.0636 4.98393C23.9827 4.79829 23.6009 4.52679 23.0397 4.10688C22.7868 3.91764 22.5776 3.80574 22.318 3.68002C21.7574 3.40852 21.3779 3.2776 21.1364 3.24747C20.6296 3.18426 20.2527 3.21556 20.1707 3.23527C19.8501 3.3123 19.1017 3.57023 18.8287 3.6774C18.6795 3.73598 18.5368 3.89258 18.3397 4.0493C18.0792 4.2565 17.7903 4.43817 17.6219 4.51687C17.5862 4.53483 17.5534 4.55626 17.5236 4.57632C17.4937 4.59639 17.4677 4.61443 17.377 4.63742" stroke="#747474" stroke-width="2" stroke-linecap="round"/>
</svg>
