<svg width="54" height="91" viewBox="0 0 54 91" fill="none" xmlns="http://www.w3.org/2000/svg">
<line y1="-3" x2="28.5071" y2="-3" transform="matrix(-0.18778 -0.982211 -0.982211 0.18778 39.1411 90.5)" stroke="white" stroke-width="6"/>
<line x1="21.8414" y1="89.9367" x2="27.1945" y2="61.9367" stroke="white" stroke-width="6"/>
<line y1="-2.5" x2="26.1725" y2="-2.5" transform="matrix(0.687744 -0.725953 -0.725953 -0.687744 6.14105 52.5)" stroke="#020048" stroke-width="5"/>
<line x1="49.93" y1="57.8142" x2="37.7154" y2="34.6668" stroke="#020048" stroke-width="5"/>
<rect width="16" height="31" transform="matrix(-1 0 0 1 40.1411 33.5)" fill="white"/>
<circle cx="7.5" cy="7.5" r="7.5" transform="matrix(-1 0 0 1 39.1411 19.5)" fill="#EFE9C9"/>
<rect width="13" height="14" transform="matrix(-1 0 0 1 38.1411 8.5)" fill="#020048"/>
<path d="M28.479 13.5358C28.5807 13.4884 28.7899 13.2817 29.0099 12.6887C29.1401 12.3375 29.2107 12.025 29.3824 11.6248C29.5313 11.2778 29.7448 10.8087 29.8209 9.96589C29.8619 9.51284 30.0138 9.19621 30.2088 8.64994C30.3548 8.24114 30.3945 7.90118 30.4771 7.29829C30.5573 6.71379 30.7018 5.579 30.9047 4.32789C31.0432 3.47374 31.1941 3.08314 31.1227 2.67872C31.0243 2.12079 30.798 1.8728 30.5299 1.40647C30.3442 1.08355 30.1318 0.847191 29.8419 0.62251C29.5937 0.430248 29.0221 0.507079 28.5901 0.566818C28.5112 0.57773 28.4518 0.618693 28.4133 0.672933C28.2243 0.939171 28.2962 1.35788 28.1062 1.61167C27.879 1.91504 27.4991 2.19952 27.2649 2.45351C27.0549 2.6813 27.056 3.50056 26.8822 4.0205C26.7744 4.34281 26.5981 4.88984 26.6261 6.26092C26.6335 6.62362 26.8423 7.22387 27.0863 8.17413C27.4185 9.46779 27.2483 10.4016 27.2088 11.2875C27.1906 11.6952 27.3097 12.2191 27.5328 13.0137C27.6377 13.387 27.8377 13.5362 27.9275 13.6464C27.9743 13.7039 28.0619 13.727 28.1346 13.7161C28.2073 13.7051 28.2723 13.6498 28.3299 13.596C28.3874 13.5421 28.4357 13.4914 28.6032 13.3452" stroke="#FF0000" stroke-linecap="round"/>
<path d="M28.1183 12.9472C28.1213 12.7412 28.1571 12.0963 28.5633 10.8728C28.8164 10.1105 29.1313 9.0096 29.2335 8.42156C29.3749 7.60824 29.7456 6.843 29.8998 6.25524C30.0468 5.69468 29.8953 4.75095 29.8935 4.12205C29.8922 3.68889 30.0889 2.565 30.0046 1.9423C29.9664 1.65961 29.6508 1.49104 29.3602 1.34169C29.2903 1.30581 29.2157 1.30406 29.1557 1.32527C28.8945 1.41767 28.7865 1.77537 28.5878 2.00199C28.3233 2.30362 28.0591 2.66747 27.8587 2.93393C27.6518 3.20893 27.6224 3.58917 27.4902 3.86984C27.336 4.19709 27.3404 4.65149 27.297 6.60879C27.2756 7.57648 27.3188 8.37974 27.4005 8.78073C27.4835 9.18829 27.5259 9.82053 27.5622 10.2926C27.5923 10.6839 27.6651 11.103 27.7265 11.5729C27.7881 12.0449 27.8541 12.2813 27.9491 12.3649C27.9935 12.404 28.0743 12.3622 28.129 12.3077C28.493 11.9448 28.6619 11.2652 28.8465 10.9832C29.0158 10.7247 29.181 10.4636 29.2547 10.1463C29.3798 9.6076 29.3716 8.60301 29.5193 8.17264C29.7287 7.56225 29.9148 6.20013 29.945 5.40045C29.9671 4.81294 30.1117 4.47197 30.1993 4.05845C30.3584 3.30743 30.3344 2.94228 30.3251 2.75946C30.3078 2.41598 29.7688 2.28223 29.4908 2.07062C29.4326 2.02632 29.3792 1.98323 29.3046 2.06668C28.864 2.55948 28.697 3.27959 28.4121 3.74294C28.0708 4.29801 27.9013 4.67039 27.834 5.01381C27.7607 5.38827 27.714 5.86371 27.6668 8.10354C27.648 8.99949 27.9949 9.63078 28.2838 10.1886C28.343 10.3028 28.4001 10.384 28.4116 10.3297C28.4631 10.085 28.362 9.36615 28.3992 8.37001C28.4339 7.44424 28.5807 6.41069 28.5889 5.45727C28.5954 4.70711 28.6814 4.27357 28.773 3.91625C28.9301 3.30371 28.9338 3.02571 29.0112 2.88444C29.2015 2.53685 29.3311 4.75328 29.3733 5.79576C29.3853 6.09396 29.4325 6.38747 29.4182 6.65908C29.408 6.85413 29.2482 7.05646 29.073 7.22504C28.9959 7.26294 28.9428 7.20409 28.9155 7.09161C28.8881 6.97912 28.8881 6.81477 28.8881 6.64545" stroke="#FF0000" stroke-linecap="round"/>
<path d="M6.14105 52.5L9.64105 56L12.1411 53.5L8.64105 50L6.14105 52.5Z" fill="#EFE9C9" stroke="#EFE9C9" stroke-width="0.2"/>
<path d="M52.3504 56.7867L47.81 59.0496L46.1482 55.8296L50.6886 53.5667L52.3504 56.7867Z" fill="#EFE9C9" stroke="#EFE9C9" stroke-width="0.2"/>
<rect width="4" height="7" transform="matrix(-0.981425 0.191848 0.191848 0.981425 10.1783 48.226)" fill="#8A0D0D"/>
<rect width="8" height="2" transform="matrix(-0.981425 0.191848 0.191848 0.981425 11.7574 45.8794)" fill="#8A0D0D"/>
<rect width="4.0005" height="23.4718" transform="matrix(-0.980308 0.197473 0.187529 0.982259 5.38898 23.1852)" fill="#E2E2E2"/>
<path d="M1.46718 23.9751L5.3889 23.1851L1.96083 15.895L1.46718 23.9751Z" fill="#E2E2E2"/>
<path d="M37.4744 38L40.1411 33.5V57.5L36.1411 53.5V48.5V44.5L37.4744 38Z" fill="#020048" stroke="#020048" stroke-width="0.2"/>
<path d="M26.8077 38L24.1411 33.5V57.5L28.1411 53.5V48.5V44.5L26.8077 38Z" fill="#020048" stroke="#020048" stroke-width="0.2"/>
<path d="M36.1411 75.5L42.1411 74.5L45.1411 89.5L39.1411 90.5L36.1411 75.5Z" fill="black" stroke="#020048" stroke-width="0.2"/>
<path d="M18.7484 89.5703L24.7634 90.4753L27.5337 75.9297L21.5186 75.0247L18.7484 89.5703Z" fill="black" stroke="#020048" stroke-width="0.2"/>
</svg>
