<svg width="54" height="91" viewBox="0 0 54 91" fill="none" xmlns="http://www.w3.org/2000/svg">
<line x1="11.0534" y1="89.9367" x2="16.4064" y2="61.9367" stroke="white" stroke-width="6"/>
<line y1="-3" x2="28.5071" y2="-3" transform="matrix(-0.18778 -0.982211 -0.982211 0.18778 28.353 90.5)" stroke="white" stroke-width="6"/>
<line x1="45.1851" y1="54.2194" x2="27.1851" y2="35.2193" stroke="#020048" stroke-width="5"/>
<line y1="-2.5" x2="26.1725" y2="-2.5" transform="matrix(0.466696 -0.884418 -0.884418 -0.466696 0.999985 56.6475)" stroke="#020048" stroke-width="5"/>
<rect x="13" y="33.5" width="16" height="31" fill="white"/>
<circle cx="21.5" cy="27" r="7.5" fill="#EFE9C9"/>
<rect x="15" y="8.5" width="13" height="14" fill="#020048"/>
<path d="M24.6621 13.5358C24.5603 13.4884 24.3512 13.2817 24.1312 12.6887C24.0009 12.3375 23.9303 12.025 23.7586 11.6248C23.6097 11.2778 23.3963 10.8087 23.3201 9.96589C23.2792 9.51284 23.1273 9.19621 22.9322 8.64994C22.7863 8.24114 22.7466 7.90118 22.6639 7.29829C22.5838 6.71379 22.4392 5.579 22.2363 4.32789C22.0978 3.47374 21.9469 3.08314 22.0183 2.67872C22.1167 2.12079 22.343 1.8728 22.6111 1.40647C22.7968 1.08355 23.0092 0.847191 23.2992 0.62251C23.5473 0.430248 24.1189 0.507079 24.551 0.566818C24.6299 0.57773 24.6893 0.618693 24.7278 0.672933C24.9167 0.939171 24.8448 1.35788 25.0349 1.61167C25.262 1.91504 25.642 2.19952 25.8762 2.45351C26.0862 2.6813 26.085 3.50056 26.2589 4.0205C26.3666 4.34281 26.5429 4.88984 26.5149 6.26092C26.5075 6.62362 26.2987 7.22387 26.0547 8.17413C25.7225 9.46779 25.8927 10.4016 25.9323 11.2875C25.9504 11.6952 25.8313 12.2191 25.6082 13.0137C25.5034 13.387 25.3033 13.5362 25.2135 13.6464C25.1667 13.7039 25.0791 13.727 25.0064 13.7161C24.9337 13.7051 24.8687 13.6498 24.8112 13.596C24.7536 13.5421 24.7054 13.4914 24.5378 13.3452" stroke="#FF0000" stroke-linecap="round"/>
<path d="M25.0227 12.9472C25.0197 12.7412 24.9839 12.0963 24.5777 10.8728C24.3247 10.1105 24.0098 9.0096 23.9075 8.42156C23.7661 7.60824 23.3954 6.843 23.2413 6.25524C23.0943 5.69468 23.2458 4.75095 23.2476 4.12205C23.2488 3.68889 23.0522 2.565 23.1364 1.9423C23.1747 1.65961 23.4903 1.49104 23.7809 1.34169C23.8507 1.30581 23.9254 1.30406 23.9854 1.32527C24.2466 1.41767 24.3545 1.77537 24.5533 2.00199C24.8178 2.30362 25.082 2.66747 25.2824 2.93393C25.4892 3.20893 25.5186 3.58917 25.6509 3.86984C25.8051 4.19709 25.8006 4.65149 25.844 6.60879C25.8655 7.57648 25.8223 8.37974 25.7406 8.78073C25.6575 9.18829 25.6152 9.82053 25.5789 10.2926C25.5488 10.6839 25.4759 11.103 25.4146 11.5729C25.353 12.0449 25.287 12.2813 25.1919 12.3649C25.1476 12.404 25.0668 12.3622 25.0121 12.3077C24.6481 11.9448 24.4792 11.2652 24.2946 10.9832C24.1253 10.7247 23.96 10.4636 23.8864 10.1463C23.7613 9.6076 23.7695 8.60301 23.6218 8.17264C23.4124 7.56225 23.2262 6.20013 23.1961 5.40045C23.174 4.81294 23.0293 4.47197 22.9417 4.05845C22.7827 3.30743 22.8067 2.94228 22.8159 2.75946C22.8333 2.41598 23.3723 2.28223 23.6503 2.07062C23.7085 2.02632 23.7619 1.98323 23.8365 2.06668C24.2771 2.55948 24.4441 3.27959 24.729 3.74294C25.0703 4.29801 25.2398 4.67039 25.3071 5.01381C25.3804 5.38827 25.4271 5.86371 25.4742 8.10354C25.4931 8.99949 25.1461 9.63078 24.8573 10.1886C24.7981 10.3028 24.7409 10.384 24.7295 10.3297C24.678 10.085 24.7791 9.36615 24.7418 8.37001C24.7072 7.44424 24.5603 6.41069 24.5522 5.45727C24.5457 4.70711 24.4597 4.27357 24.3681 3.91625C24.211 3.30371 24.2072 3.02571 24.1299 2.88444C23.9395 2.53685 23.8099 4.75328 23.7678 5.79576C23.7558 6.09396 23.7086 6.38747 23.7228 6.65908C23.7331 6.85413 23.8929 7.05646 24.0681 7.22504C24.1451 7.26294 24.1982 7.20409 24.2256 7.09161C24.253 6.97912 24.253 6.81477 24.253 6.64545" stroke="#FF0000" stroke-linecap="round"/>
<path d="M47 52.5L43.5 56L41 53.5L44.5 50L47 52.5Z" fill="#EFE9C9" stroke="#EFE9C9" stroke-width="0.2"/>
<path d="M0.790625 56.7867L5.33099 59.0496L6.99285 55.8296L2.45248 53.5667L0.790625 56.7867Z" fill="#EFE9C9" stroke="#EFE9C9" stroke-width="0.2"/>
<rect x="42.9628" y="48.226" width="4" height="7" transform="rotate(11.0606 42.9628 48.226)" fill="#8A0D0D"/>
<rect x="41.3837" y="45.8794" width="8" height="2" transform="rotate(11.0606 41.3837 45.8794)" fill="#8A0D0D"/>
<rect width="4.0005" height="23.4718" transform="matrix(0.980308 0.197473 -0.187529 0.982259 47.7521 23.1852)" fill="#E2E2E2"/>
<path d="M51.6739 23.9751L47.7521 23.1851L51.1802 15.895L51.6739 23.9751Z" fill="#E2E2E2"/>
<path d="M15.6667 38L13 33.5V57.5L17 53.5V48.5V44.5L15.6667 38Z" fill="#020048" stroke="#020048" stroke-width="0.2"/>
<path d="M26.3333 38L29 33.5V57.5L25 53.5V48.5V44.5L26.3333 38Z" fill="#020048" stroke="#020048" stroke-width="0.2"/>
<path d="M17 75.5L11 74.5L7.99998 89.5L14 90.5L17 75.5Z" fill="black" stroke="#020048" stroke-width="0.2"/>
<path d="M34.3927 89.5703L28.3776 90.4753L25.6073 75.9297L31.6224 75.0247L34.3927 89.5703Z" fill="black" stroke="#020048" stroke-width="0.2"/>
</svg>
