<svg width="60" height="71" viewBox="0 0 60 71" fill="none" xmlns="http://www.w3.org/2000/svg">
<line y1="-3" x2="28.5071" y2="-3" transform="matrix(-0.18778 -0.982211 -0.982211 0.18778 46.2637 71)" stroke="#242424" stroke-width="6"/>
<line x1="28.964" y1="70.4367" x2="34.3171" y2="42.4367" stroke="#242424" stroke-width="6"/>
<line y1="-2.5" x2="26.1725" y2="-2.5" transform="matrix(0.687744 -0.725953 -0.725953 -0.687744 13.2637 34)" stroke="#6200FF" stroke-width="5"/>
<rect width="16" height="31" transform="matrix(-1 0 0 1 47.2637 14)" fill="#6200FF"/>
<line y1="-3" x2="9.89949" y2="-3" transform="matrix(0.691044 -0.722813 -0.722813 -0.691044 24.4227 21.1555)" stroke="#242424" stroke-width="6"/>
<line y1="-2.5" x2="26.1725" y2="-2.5" transform="matrix(-0.493425 -0.869788 -0.869788 0.493425 55.2637 40.7546)" stroke="#6200FF" stroke-width="5"/>
<line y1="-3" x2="9.89949" y2="-3" transform="matrix(-0.489458 -0.872027 -0.872027 0.489458 46.2313 25.6326)" stroke="#242424" stroke-width="6"/>
<path d="M45.2637 67L52.1208 66L53.2637 70L46.4065 71L45.2637 67Z" fill="#242424"/>
<path d="M33.2637 67L26.4065 66L25.2637 70L32.1208 71L33.2637 67Z" fill="#242424"/>
<path d="M42.2632 50.2138L43.7139 57.7236L47.2138 57.7466L49.7137 57.763L48.7631 50.2566L42.2632 50.2138Z" fill="#1D11F1"/>
<path d="M36 50L34.4 58H30.6667H28L29.0667 50H36Z" fill="#1D11F1"/>
<rect width="16" height="23" transform="matrix(-1 0 0 1 47.2637 14)" fill="#242424"/>
<path d="M34 18L32 14H42.5H45L44 16L43 17L41 18H37H34Z" fill="#6200FF" stroke="#6200FF"/>
<circle cx="7.5" cy="7.5" r="7.5" transform="matrix(-1 0 0 1 46.2637 0)" fill="#EFE9C9"/>
<path d="M47 8L39 2" stroke="#00D0FF"/>
<path d="M40.0895 0.720964C40.0342 0.734346 39.9328 0.794594 39.8576 1.00007C39.7838 1.2016 39.7611 1.49042 39.8385 1.81045C39.9158 2.13047 40.068 2.37703 40.2256 2.52262C40.3864 2.67106 40.5041 2.67835 40.5594 2.66497C40.6148 2.65159 40.7162 2.59134 40.7914 2.38587C40.8651 2.18434 40.8878 1.89551 40.8105 1.57549C40.7331 1.25546 40.581 1.00891 40.4233 0.863314C40.2626 0.714873 40.1449 0.707583 40.0895 0.720964Z" fill="#00D0FF" stroke="#00D0FF"/>
<path d="M46.0895 4.72096C46.0342 4.73435 45.9328 4.79459 45.8576 5.00007C45.7838 5.2016 45.7611 5.49042 45.8385 5.81045C45.9158 6.13047 46.068 6.37703 46.2256 6.52262C46.3864 6.67106 46.5041 6.67835 46.5594 6.66497C46.6148 6.65159 46.7162 6.59134 46.7914 6.38587C46.8651 6.18434 46.8878 5.89551 46.8105 5.57549C46.7331 5.25546 46.581 5.00891 46.4233 4.86331C46.2626 4.71487 46.1449 4.70758 46.0895 4.72096Z" fill="#00D0FF" stroke="#00D0FF"/>
<path d="M44.0895 3.72096C44.0342 3.73435 43.9328 3.79459 43.8576 4.00007C43.7838 4.2016 43.7611 4.49042 43.8385 4.81045C43.9158 5.13047 44.068 5.37703 44.2256 5.52262C44.3864 5.67106 44.5041 5.67835 44.5594 5.66497C44.6148 5.65159 44.7162 5.59134 44.7914 5.38587C44.8651 5.18434 44.8878 4.89551 44.8105 4.57549C44.7331 4.25546 44.581 4.00891 44.4233 3.86331C44.2626 3.71487 44.1449 3.70758 44.0895 3.72096Z" fill="#00D0FF" stroke="#00D0FF"/>
<path d="M42.0895 1.72096C42.0342 1.73435 41.9328 1.79459 41.8576 2.00007C41.7838 2.2016 41.7611 2.49042 41.8385 2.81045C41.9158 3.13047 42.068 3.37703 42.2256 3.52262C42.3864 3.67106 42.5041 3.67835 42.5594 3.66497C42.6148 3.65159 42.7162 3.59134 42.7914 3.38587C42.8651 3.18434 42.8878 2.89551 42.8105 2.57549C42.7331 2.25546 42.581 2.00891 42.4233 1.86331C42.2626 1.71487 42.1449 1.70758 42.0895 1.72096Z" fill="#00D0FF" stroke="#00D0FF"/>
<path d="M38.9114 4.05787C38.8846 4.00761 38.8623 3.89181 38.9659 3.6991C39.0676 3.51011 39.2684 3.30125 39.559 3.14647C39.8496 2.9917 40.1349 2.94163 40.3485 2.96274C40.5662 2.98428 40.6499 3.06742 40.6766 3.11768C40.7034 3.16795 40.7257 3.28375 40.6221 3.47645C40.5204 3.66545 40.3197 3.87431 40.0291 4.02909C39.7385 4.18386 39.4531 4.23393 39.2396 4.21281C39.0218 4.19127 38.9382 4.10814 38.9114 4.05787Z" fill="#00D0FF" stroke="#00D0FF"/>
<path d="M40.9114 5.05787C40.8846 5.00761 40.8623 4.89181 40.9659 4.6991C41.0676 4.51011 41.2684 4.30125 41.559 4.14647C41.8496 3.9917 42.1349 3.94163 42.3485 3.96274C42.5662 3.98428 42.6499 4.06742 42.6766 4.11768C42.7034 4.16795 42.7257 4.28375 42.6221 4.47645C42.5204 4.66545 42.3197 4.87431 42.0291 5.02909C41.7385 5.18386 41.4531 5.23393 41.2396 5.21281C41.0218 5.19127 40.9382 5.10814 40.9114 5.05787Z" fill="#00D0FF" stroke="#00D0FF"/>
<path d="M41.9114 7.05787C41.8846 7.00761 41.8623 6.89181 41.9659 6.6991C42.0676 6.51011 42.2684 6.30125 42.559 6.14647C42.8496 5.9917 43.1349 5.94163 43.3485 5.96274C43.5662 5.98428 43.6499 6.06742 43.6766 6.11768C43.7034 6.16795 43.7257 6.28375 43.6221 6.47645C43.5204 6.66545 43.3197 6.87431 43.0291 7.02909C42.7385 7.18386 42.4531 7.23393 42.2396 7.21281C42.0218 7.19127 41.9382 7.10814 41.9114 7.05787Z" fill="#00D0FF" stroke="#00D0FF"/>
<path d="M43.9114 8.05787C43.8846 8.00761 43.8623 7.89181 43.9659 7.6991C44.0676 7.51011 44.2684 7.30125 44.559 7.14647C44.8496 6.9917 45.1349 6.94163 45.3485 6.96274C45.5662 6.98428 45.6499 7.06742 45.6766 7.11768C45.7034 7.16795 45.7257 7.28375 45.6221 7.47645C45.5204 7.66545 45.3197 7.87431 45.0291 8.02909C44.7385 8.18386 44.4531 8.23393 44.2396 8.21281C44.0218 8.19127 43.9382 8.10814 43.9114 8.05787Z" fill="#00D0FF" stroke="#00D0FF"/>
<path d="M31 8L38 2" stroke="#00D0FF"/>
<path d="M33.5594 3.72096C33.6148 3.73435 33.7162 3.79459 33.7913 4.00007C33.8651 4.2016 33.8878 4.49042 33.8105 4.81045C33.7331 5.13047 33.581 5.37703 33.4233 5.52262C33.2626 5.67106 33.1449 5.67835 33.0895 5.66497C33.0341 5.65159 32.9328 5.59134 32.8576 5.38587C32.7838 5.18434 32.7611 4.89551 32.8385 4.57549C32.9158 4.25546 33.068 4.00891 33.2256 3.86331C33.3864 3.71487 33.5041 3.70758 33.5594 3.72096Z" fill="#00D0FF" stroke="#00D0FF"/>
<path d="M35.5594 1.72096C35.6148 1.73435 35.7162 1.79459 35.7913 2.00007C35.8651 2.2016 35.8878 2.49042 35.8105 2.81045C35.7331 3.13047 35.581 3.37703 35.4233 3.52262C35.2626 3.67106 35.1449 3.67835 35.0895 3.66497C35.0341 3.65159 34.9328 3.59134 34.8576 3.38587C34.7838 3.18434 34.7611 2.89551 34.8385 2.57549C34.9158 2.25546 35.068 2.00891 35.2256 1.86331C35.3864 1.71487 35.5041 1.70758 35.5594 1.72096Z" fill="#00D0FF" stroke="#00D0FF"/>
<path d="M31.5594 4.72096C31.6148 4.73435 31.7162 4.79459 31.7913 5.00007C31.8651 5.2016 31.8878 5.49042 31.8105 5.81045C31.7331 6.13047 31.581 6.37703 31.4233 6.52262C31.2626 6.67106 31.1449 6.67835 31.0895 6.66497C31.0341 6.65159 30.9328 6.59134 30.8576 6.38587C30.7838 6.18434 30.7611 5.89551 30.8385 5.57549C30.9158 5.25546 31.068 5.00891 31.2256 4.86331C31.3864 4.71487 31.5041 4.70758 31.5594 4.72096Z" fill="#00D0FF" stroke="#00D0FF"/>
<path d="M33.6232 7.36909C33.6318 7.3128 33.6147 7.19613 33.4532 7.04844C33.2949 6.9036 33.0364 6.77274 32.711 6.72257C32.3856 6.67241 32.0997 6.71936 31.9051 6.8098C31.7067 6.90201 31.6552 7.0081 31.6465 7.06438C31.6378 7.12067 31.655 7.23734 31.8164 7.38503C31.9748 7.52987 32.2333 7.66074 32.5587 7.7109C32.8841 7.76106 33.1699 7.71411 33.3646 7.62368C33.563 7.53146 33.6145 7.42538 33.6232 7.36909Z" fill="#00D0FF" stroke="#00D0FF"/>
<path d="M35.6232 6.36909C35.6318 6.3128 35.6147 6.19613 35.4532 6.04844C35.2949 5.9036 35.0364 5.77274 34.711 5.72257C34.3856 5.67241 34.0997 5.71936 33.9051 5.8098C33.7067 5.90201 33.6552 6.0081 33.6465 6.06438C33.6378 6.12067 33.655 6.23734 33.8164 6.38503C33.9748 6.52987 34.2333 6.66074 34.5587 6.7109C34.8841 6.76106 35.1699 6.71411 35.3646 6.62368C35.563 6.53146 35.6145 6.42538 35.6232 6.36909Z" fill="#00D0FF" stroke="#00D0FF"/>
<path d="M37.6232 4.36909C37.6318 4.3128 37.6147 4.19613 37.4532 4.04844C37.2949 3.9036 37.0364 3.77274 36.711 3.72257C36.3856 3.67241 36.0997 3.71936 35.9051 3.8098C35.7067 3.90201 35.6552 4.0081 35.6465 4.06438C35.6378 4.12067 35.655 4.23734 35.8164 4.38503C35.9748 4.52987 36.2333 4.66074 36.5587 4.7109C36.8841 4.76106 37.1699 4.71411 37.3646 4.62368C37.563 4.53146 37.6145 4.42538 37.6232 4.36909Z" fill="#00D0FF" stroke="#00D0FF"/>
<path d="M37.5594 0.720964C37.6148 0.734346 37.7162 0.794594 37.7913 1.00007C37.8651 1.2016 37.8878 1.49042 37.8105 1.81045C37.7331 2.13047 37.581 2.37703 37.4233 2.52262C37.2626 2.67106 37.1449 2.67835 37.0895 2.66497C37.0341 2.65159 36.9328 2.59134 36.8576 2.38587C36.7838 2.18434 36.7611 1.89551 36.8385 1.57549C36.9158 1.25546 37.068 1.00891 37.2256 0.863314C37.3864 0.714873 37.5041 0.707583 37.5594 0.720964Z" fill="#00D0FF" stroke="#00D0FF"/>
<rect x="12.5396" y="29.9685" width="4" height="9" transform="rotate(-23.8601 12.5396 29.9685)" fill="#00D0FF"/>
<rect y="1.61792" width="4" height="31" transform="rotate(-23.8601 0 1.61792)" fill="#42009E"/>
<rect x="1.31885" y="2.12769" width="2" height="30" transform="rotate(-23.8601 1.31885 2.12769)" fill="#6200FF"/>
<path d="M43.8377 30.4984L41.6469 29.9316L42.3098 29.2914L36.0519 23.2493L35.3889 23.8895L34.8019 21.7742L36.9927 22.341L36.3297 22.9811L42.5876 29.0232L43.2507 28.3831L43.8377 30.4984Z" fill="white"/>
<path d="M34.8019 30.8778L35.3889 28.7625L36.0519 29.4026L42.3098 23.3605L41.6469 22.7204L43.8377 22.1536L43.2507 24.2689L42.5876 23.6287L36.3297 29.6708L36.9927 30.311L34.8019 30.8778Z" fill="white"/>
</svg>
