<svg width="64" height="90" viewBox="0 0 64 90" fill="none" xmlns="http://www.w3.org/2000/svg">
<rect width="18.8771" height="5.41514" transform="matrix(-0.679296 0.733864 0.733864 0.679296 25.5926 22.4683)" fill="#242424"/>
<rect width="4" height="2" transform="matrix(-1 0 0 1 5 36)" fill="#00D0FF"/>
<rect width="1" height="1" transform="matrix(-1 0 0 1 1 37)" fill="#00D0FF"/>
<path d="M17 34H4V40H17V34Z" fill="#242424"/>
<rect width="5" height="12" transform="matrix(-1 0 0 1 60 57)" fill="#242424"/>
<rect width="4.30582" height="8.44811" transform="matrix(-0.809336 0.587346 0.759998 0.649925 53.4336 69.3521)" fill="#242424"/>
<rect width="3.73265" height="10.1648" transform="matrix(-0.000732809 -1 -1 0.000454786 60.0309 72.1526)" fill="#242424"/>
<rect width="5" height="13" transform="matrix(-1 0 0 1 60 74)" fill="#242424"/>
<rect width="1.87875" height="5.30828" transform="matrix(-0.186411 -0.982472 -0.993138 0.116944 57.485 86.595)" fill="#242424"/>
<rect width="2.10171" height="4.86673" transform="matrix(-0.746545 -0.665335 -0.820634 0.571454 58.6696 87.0808)" fill="#242424"/>
<rect width="1.92726" height="5.2195" transform="matrix(-0.405007 -0.914313 -0.964229 0.265072 64 85.5781)" fill="#242424"/>
<rect width="5" height="12" transform="matrix(-1 0 0 1 41 57)" fill="#242424"/>
<rect width="4.27861" height="8.40105" transform="matrix(-0.806612 0.591081 0.756869 0.653566 34.5357 69.3521)" fill="#242424"/>
<rect width="3.73265" height="10.0653" transform="matrix(-0.000725727 -1 -1 0.000459224 41.068 72.1526)" fill="#242424"/>
<rect width="5" height="13" transform="matrix(-1 0 0 1 41 74)" fill="#242424"/>
<rect width="1.87812" height="5.25768" transform="matrix(-0.184671 -0.9828 -0.993005 0.118069 38.548 86.595)" fill="#242424"/>
<rect width="2.09041" height="4.8351" transform="matrix(-0.743325 -0.66893 -0.818019 0.575192 39.7211 87.0808)" fill="#242424"/>
<rect width="1.92421" height="5.17262" transform="matrix(-0.401727 -0.915759 -0.963565 0.267475 45 85.5781)" fill="#242424"/>
<rect width="8" height="7" transform="matrix(-1 0 0 1 52 56)" fill="#242424"/>
<rect width="3" height="2" transform="matrix(-1 0 0 1 55 59)" fill="#242424"/>
<rect width="3" height="2" transform="matrix(-1 0 0 1 44 59)" fill="#242424"/>
<rect width="6" height="2" transform="matrix(-1 0 0 1 51 54)" fill="black"/>
<rect width="21" height="13" transform="matrix(-1 0 0 1 51 41)" fill="#242424"/>
<rect width="29" height="17" transform="matrix(-1 0 0 1 51 24)" fill="#909090"/>
<rect width="7" height="23" transform="matrix(-1 0 0 1 58 24)" fill="#909090"/>
<rect width="22" height="9" transform="matrix(-1 0 0 1 63 15)" fill="#909090"/>
<path d="M22 24L41 15V24H22Z" fill="#00D0FF"/>
<rect width="21.623" height="6" transform="matrix(-0.679296 0.733864 0.733864 0.679296 31.3004 28.7197)" fill="#242424"/>
<rect width="4" height="3" transform="matrix(-1 0 0 1 8 44)" fill="#00D0FF"/>
<rect width="1" height="1" transform="matrix(-1 0 0 1 4 45)" fill="#00D0FF"/>
<path d="M21.5 42.5H6.5V48.5H21.5V42.5Z" fill="#242424"/>
<rect width="5" height="9" transform="matrix(-1 0 0 1 56 6)" fill="#909090"/>
<rect width="15" height="6" transform="matrix(-1 0 0 1 61 0)" fill="#909090"/>
<rect width="2" height="6" transform="matrix(-1 0 0 1 46 0)" fill="#00D0FF"/>
</svg>
