<svg width="63" height="91" viewBox="0 0 63 91" fill="none" xmlns="http://www.w3.org/2000/svg">
<line y1="-3" x2="28.5071" y2="-3" transform="matrix(-0.18778 -0.982211 -0.982211 0.18778 56.0386 90.5)" stroke="white" stroke-width="6"/>
<line x1="38.7389" y1="89.9367" x2="44.092" y2="61.9367" stroke="white" stroke-width="6"/>
<line y1="-2.5" x2="18.1243" y2="-2.5" transform="matrix(0.904988 -0.425437 -0.425437 -0.904988 26.6363 41.2107)" stroke="#020048" stroke-width="5"/>
<rect width="16" height="31" transform="matrix(-1 0 0 1 57.0386 33.5)" fill="white"/>
<circle cx="7.5" cy="7.5" r="7.5" transform="matrix(-1 0 0 1 56.0386 19.5)" fill="#EFE9C9"/>
<rect width="13" height="14" transform="matrix(-1 0 0 1 55.0386 8.5)" fill="#020048"/>
<path d="M45.3765 13.5358C45.4782 13.4884 45.6874 13.2817 45.9074 12.6887C46.0377 12.3375 46.1083 12.025 46.28 11.6248C46.4288 11.2778 46.6423 10.8087 46.7185 9.96589C46.7594 9.51284 46.9113 9.19621 47.1063 8.64994C47.2523 8.24114 47.292 7.90118 47.3746 7.29829C47.4548 6.71379 47.5993 5.579 47.8022 4.32789C47.9407 3.47374 48.0916 3.08314 48.0203 2.67872C47.9218 2.12079 47.6956 1.8728 47.4274 1.40647C47.2418 1.08355 47.0293 0.847191 46.7394 0.62251C46.4913 0.430248 45.9196 0.507079 45.4876 0.566818C45.4087 0.57773 45.3493 0.618693 45.3108 0.672933C45.1218 0.939171 45.1938 1.35788 45.0037 1.61167C44.7765 1.91504 44.3966 2.19952 44.1624 2.45351C43.9524 2.6813 43.9535 3.50056 43.7797 4.0205C43.6719 4.34281 43.4957 4.88984 43.5236 6.26092C43.531 6.62362 43.7399 7.22387 43.9839 8.17413C44.316 9.46779 44.1458 10.4016 44.1063 11.2875C44.0881 11.6952 44.2072 12.2191 44.4304 13.0137C44.5352 13.387 44.7352 13.5362 44.825 13.6464C44.8718 13.7039 44.9595 13.727 45.0322 13.7161C45.1049 13.7051 45.1698 13.6498 45.2274 13.596C45.285 13.5421 45.3332 13.4914 45.5007 13.3452" stroke="#FF0000" stroke-linecap="round"/>
<path d="M45.0159 12.9472C45.0189 12.7412 45.0546 12.0963 45.4608 10.8728C45.7139 10.1105 46.0288 9.0096 46.1311 8.42156C46.2725 7.60824 46.6432 6.843 46.7973 6.25524C46.9443 5.69468 46.7928 4.75095 46.791 4.12205C46.7898 3.68889 46.9864 2.565 46.9021 1.9423C46.8639 1.65961 46.5483 1.49104 46.2577 1.34169C46.1879 1.30581 46.1132 1.30406 46.0532 1.32527C45.792 1.41767 45.684 1.77537 45.4853 2.00199C45.2208 2.30362 44.9566 2.66747 44.7562 2.93393C44.5494 3.20893 44.5199 3.58917 44.3877 3.86984C44.2335 4.19709 44.238 4.65149 44.1946 6.60879C44.1731 7.57648 44.2163 8.37974 44.298 8.78073C44.381 9.18829 44.4234 9.82053 44.4597 10.2926C44.4898 10.6839 44.5627 11.103 44.624 11.5729C44.6856 12.0449 44.7516 12.2813 44.8466 12.3649C44.891 12.404 44.9718 12.3622 45.0265 12.3077C45.3905 11.9448 45.5594 11.2652 45.744 10.9832C45.9133 10.7247 46.0786 10.4636 46.1522 10.1463C46.2773 9.6076 46.2691 8.60301 46.4168 8.17264C46.6262 7.56225 46.8124 6.20013 46.8425 5.40045C46.8646 4.81294 47.0093 4.47197 47.0969 4.05845C47.2559 3.30743 47.2319 2.94228 47.2226 2.75946C47.2053 2.41598 46.6663 2.28223 46.3883 2.07062C46.3301 2.02632 46.2767 1.98323 46.2021 2.06668C45.7615 2.55948 45.5945 3.27959 45.3096 3.74294C44.9683 4.29801 44.7988 4.67039 44.7315 5.01381C44.6582 5.38827 44.6115 5.86371 44.5644 8.10354C44.5455 8.99949 44.8925 9.63078 45.1813 10.1886C45.2405 10.3028 45.2976 10.384 45.3091 10.3297C45.3606 10.085 45.2595 9.36615 45.2968 8.37001C45.3314 7.44424 45.4783 6.41069 45.4864 5.45727C45.4929 4.70711 45.5789 4.27357 45.6705 3.91625C45.8276 3.30371 45.8314 3.02571 45.9087 2.88444C46.0991 2.53685 46.2287 4.75328 46.2708 5.79576C46.2828 6.09396 46.33 6.38747 46.3157 6.65908C46.3055 6.85413 46.1457 7.05646 45.9705 7.22504C45.8935 7.26294 45.8403 7.20409 45.813 7.09161C45.7856 6.97912 45.7856 6.81477 45.7856 6.64545" stroke="#FF0000" stroke-linecap="round"/>
<path d="M26.6363 41.2107L28.5392 45.7801L31.803 44.4209L29.9002 39.8516L26.6363 41.2107Z" fill="#EFE9C9" stroke="#EFE9C9" stroke-width="0.2"/>
<path d="M54.3719 38L57.0386 33.5V57.5L53.0386 53.5V48.5V44.5L54.3719 38Z" fill="#020048" stroke="#020048" stroke-width="0.2"/>
<path d="M43.7052 38L41.0386 33.5V57.5L45.0386 53.5V48.5V44.5L43.7052 38Z" fill="#020048" stroke="#020048" stroke-width="0.2"/>
<path d="M53.0386 75.5L59.0386 74.5L62.0386 89.5L56.0386 90.5L53.0386 75.5Z" fill="black" stroke="#020048" stroke-width="0.2"/>
<path d="M35.6459 89.5703L41.661 90.4753L44.4313 75.9297L38.4162 75.0247L35.6459 89.5703Z" fill="black" stroke="#020048" stroke-width="0.2"/>
<rect width="4" height="11.6602" transform="matrix(-0.897257 0.441508 0.441508 0.897257 31.1371 38.1902)" fill="#8A0D0D"/>
<rect width="16" height="3" transform="matrix(-0.989472 -0.144727 -0.144727 0.989472 31.8078 37.8058)" fill="#8A0D0D"/>
<rect width="16" height="1" transform="matrix(-0.989472 -0.144727 -0.144727 0.989472 15.9763 35.4902)" fill="#D9D9D9"/>
<rect width="14" height="1" transform="matrix(-0.989472 -0.144727 -0.144727 0.989472 15.8315 36.4797)" fill="#D9D9D9"/>
<line x1="32.764" y1="48.0467" x2="55.8632" y2="35.7412" stroke="#020048" stroke-width="5"/>
<path d="M33.8009 50.4631L31.5202 45.9317L34.7337 44.2571L37.0144 48.7886L33.8009 50.4631Z" fill="#EFE9C9" stroke="#EFE9C9" stroke-width="0.2"/>
<path d="M28.2703 41.0518L26.8397 39.9548" stroke="#8A0D0D" stroke-width="0.2"/>
</svg>
