<svg width="63" height="91" viewBox="0 0 63 91" fill="none" xmlns="http://www.w3.org/2000/svg">
<line x1="3.17168" y1="89.9367" x2="8.52475" y2="61.9367" stroke="white" stroke-width="6"/>
<line y1="-3" x2="28.5071" y2="-3" transform="matrix(-0.18778 -0.982211 -0.982211 0.18778 20.4714 90.5)" stroke="white" stroke-width="6"/>
<line x1="34.457" y1="43.4732" x2="18.0547" y2="35.7624" stroke="#020048" stroke-width="5"/>
<rect x="5.11832" y="33.5" width="16" height="31" fill="white"/>
<circle cx="13.6183" cy="27" r="7.5" fill="#EFE9C9"/>
<rect x="7.11832" y="8.5" width="13" height="14" fill="#020048"/>
<path d="M16.7804 13.5358C16.6787 13.4884 16.4695 13.2817 16.2495 12.6887C16.1192 12.3375 16.0486 12.025 15.8769 11.6248C15.7281 11.2778 15.5146 10.8087 15.4384 9.96589C15.3975 9.51284 15.2456 9.19621 15.0506 8.64994C14.9046 8.24114 14.8649 7.90118 14.7823 7.29829C14.7021 6.71379 14.5576 5.579 14.3547 4.32789C14.2162 3.47374 14.0653 3.08314 14.1366 2.67872C14.2351 2.12079 14.4613 1.8728 14.7295 1.40647C14.9151 1.08355 15.1276 0.847191 15.4175 0.62251C15.6656 0.430248 16.2372 0.507079 16.6693 0.566818C16.7482 0.57773 16.8076 0.618693 16.8461 0.672933C17.0351 0.939171 16.9631 1.35788 17.1532 1.61167C17.3804 1.91504 17.7603 2.19952 17.9945 2.45351C18.2045 2.6813 18.2034 3.50056 18.3772 4.0205C18.485 4.34281 18.6612 4.88984 18.6333 6.26092C18.6259 6.62362 18.417 7.22387 18.173 8.17413C17.8408 9.46779 18.0111 10.4016 18.0506 11.2875C18.0688 11.6952 17.9497 12.2191 17.7265 13.0137C17.6217 13.387 17.4216 13.5362 17.3319 13.6464C17.285 13.7039 17.1974 13.727 17.1247 13.7161C17.052 13.7051 16.9871 13.6498 16.9295 13.596C16.8719 13.5421 16.8237 13.4914 16.6562 13.3452" stroke="#FF0000" stroke-linecap="round"/>
<path d="M17.1411 12.9472C17.1381 12.7412 17.1023 12.0963 16.6961 10.8728C16.443 10.1105 16.1281 9.0096 16.0259 8.42156C15.8845 7.60824 15.5138 6.843 15.3596 6.25524C15.2126 5.69468 15.3641 4.75095 15.3659 4.12205C15.3672 3.68889 15.1705 2.565 15.2548 1.9423C15.293 1.65961 15.6086 1.49104 15.8992 1.34169C15.9691 1.30581 16.0437 1.30406 16.1037 1.32527C16.3649 1.41767 16.4729 1.77537 16.6716 2.00199C16.9361 2.30362 17.2003 2.66747 17.4007 2.93393C17.6076 3.20893 17.637 3.58917 17.7692 3.86984C17.9234 4.19709 17.919 4.65149 17.9624 6.60879C17.9838 7.57648 17.9406 8.37974 17.8589 8.78073C17.7759 9.18829 17.7335 9.82053 17.6972 10.2926C17.6671 10.6839 17.5942 11.103 17.5329 11.5729C17.4713 12.0449 17.4053 12.2813 17.3103 12.3649C17.2659 12.404 17.1851 12.3622 17.1304 12.3077C16.7664 11.9448 16.5975 11.2652 16.4129 10.9832C16.2436 10.7247 16.0784 10.4636 16.0047 10.1463C15.8796 9.6076 15.8878 8.60301 15.7401 8.17264C15.5307 7.56225 15.3446 6.20013 15.3144 5.40045C15.2923 4.81294 15.1477 4.47197 15.0601 4.05845C14.901 3.30743 14.925 2.94228 14.9343 2.75946C14.9516 2.41598 15.4906 2.28223 15.7686 2.07062C15.8268 2.02632 15.8802 1.98323 15.9548 2.06668C16.3954 2.55948 16.5624 3.27959 16.8473 3.74294C17.1886 4.29801 17.3581 4.67039 17.4254 5.01381C17.4987 5.38827 17.5454 5.86371 17.5926 8.10354C17.6114 8.99949 17.2645 9.63078 16.9756 10.1886C16.9164 10.3028 16.8593 10.384 16.8478 10.3297C16.7963 10.085 16.8974 9.36615 16.8602 8.37001C16.8255 7.44424 16.6787 6.41069 16.6705 5.45727C16.664 4.70711 16.578 4.27357 16.4864 3.91625C16.3293 3.30371 16.3256 3.02571 16.2482 2.88444C16.0579 2.53685 15.9283 4.75328 15.8861 5.79576C15.8741 6.09396 15.8269 6.38747 15.8412 6.65908C15.8514 6.85413 16.0112 7.05646 16.1864 7.22504C16.2635 7.26294 16.3166 7.20409 16.3439 7.09161C16.3713 6.97912 16.3713 6.81477 16.3713 6.64545" stroke="#FF0000" stroke-linecap="round"/>
<path d="M35.5206 41.2107L33.6177 45.7801L30.3539 44.4209L32.2567 39.8516L35.5206 41.2107Z" fill="#EFE9C9" stroke="#EFE9C9" stroke-width="0.2"/>
<path d="M7.78498 38L5.11832 33.5V57.5L9.11832 53.5V48.5V44.5L7.78498 38Z" fill="#020048" stroke="#020048" stroke-width="0.2"/>
<path d="M18.4516 38L21.1183 33.5V57.5L17.1183 53.5V48.5V44.5L18.4516 38Z" fill="#020048" stroke="#020048" stroke-width="0.2"/>
<path d="M9.11832 75.5L3.11832 74.5L0.118317 89.5L6.11832 90.5L9.11832 75.5Z" fill="black" stroke="#020048" stroke-width="0.2"/>
<path d="M26.511 89.5703L20.4959 90.4753L17.7256 75.9297L23.7407 75.0247L26.511 89.5703Z" fill="black" stroke="#020048" stroke-width="0.2"/>
<rect x="31.0198" y="38.1902" width="4" height="11.6602" transform="rotate(26.2001 31.0198 38.1902)" fill="#8A0D0D"/>
<rect x="30.3491" y="37.8058" width="16" height="3" transform="rotate(-8.32149 30.3491 37.8058)" fill="#8A0D0D"/>
<rect x="46.1806" y="35.4902" width="16" height="1" transform="rotate(-8.32149 46.1806 35.4902)" fill="#D9D9D9"/>
<rect x="46.3253" y="36.4797" width="14" height="1" transform="rotate(-8.32149 46.3253 36.4797)" fill="#D9D9D9"/>
<line y1="-2.5" x2="26.1725" y2="-2.5" transform="matrix(-0.882576 -0.470171 -0.470171 0.882576 28.2175 50.2532)" stroke="#020048" stroke-width="5"/>
<path d="M28.356 50.4631L30.6367 45.9317L27.4232 44.2571L25.1425 48.7886L28.356 50.4631Z" fill="#EFE9C9" stroke="#EFE9C9" stroke-width="0.2"/>
<path d="M33.8866 41.0518L35.3172 39.9548" stroke="#8A0D0D" stroke-width="0.2"/>
</svg>
