<svg width="100" height="102" viewBox="0 0 100 102" fill="none" xmlns="http://www.w3.org/2000/svg">
<rect width="57" height="22" transform="matrix(-1 0 0 1 86 59)" fill="#F4F4F4"/>
<rect width="7" height="21" transform="matrix(-1 0 0 1 85 81)" fill="#F4F4F4"/>
<rect width="7" height="21" transform="matrix(-1 0 0 1 76 81)" fill="#F4F4F4"/>
<rect width="7" height="21" transform="matrix(-1 0 0 1 37 81)" fill="#F4F4F4"/>
<rect width="7" height="21" transform="matrix(-1 0 0 1 46 81)" fill="#F4F4F4"/>
<rect width="5" height="21" transform="matrix(-0.758434 0.65175 0.65175 0.758434 85.7922 58)" fill="#FFBF00"/>
<rect width="9.18603" height="25.6464" transform="matrix(-0.929452 0.368942 0.368942 0.929452 29.538 40)" fill="#F4F4F4"/>
<rect width="20" height="12" transform="matrix(-1 0 0 1 30 32)" fill="#F4F4F4"/>
<rect width="2" height="2" transform="matrix(-1 0 0 1 16 36)" fill="black"/>
<line y1="-3" x2="28.5071" y2="-3" transform="matrix(0.763609 -0.645679 -0.645679 -0.763609 44.4724 72.4064)" stroke="white" stroke-width="6"/>
<line x1="36.6349" y1="69.693" x2="60.1163" y2="53.5288" stroke="white" stroke-width="6"/>
<line y1="-2.5" x2="26.1725" y2="-2.5" transform="matrix(0.891948 0.452139 0.452139 -0.891948 35.3547 17.713)" stroke="#020048" stroke-width="5"/>
<line x1="79.93" y1="52.3142" x2="67.7154" y2="29.1668" stroke="#020048" stroke-width="5"/>
<rect width="16" height="31" transform="matrix(-1 0 0 1 70.1411 28)" fill="white"/>
<circle cx="7.5" cy="7.5" r="7.5" transform="matrix(-1 0 0 1 69.1411 14)" fill="#EFE9C9"/>
<path d="M35.3547 17.713L32.9982 22.0659L36.1074 23.7491L38.4638 19.3962L35.3547 17.713Z" fill="#EFE9C9" stroke="#EFE9C9" stroke-width="0.2"/>
<path d="M82.3504 51.2867L77.81 53.5496L76.1482 50.3296L80.6886 48.0667L82.3504 51.2867Z" fill="#EFE9C9" stroke="#EFE9C9" stroke-width="0.2"/>
<rect width="4" height="7" transform="matrix(-0.472515 0.881323 0.881323 0.472515 31.1691 15.8651)" fill="#8A0D0D"/>
<rect width="8" height="2" transform="matrix(-0.472515 0.881323 0.881323 0.472515 30.3514 13.1575)" fill="#8A0D0D"/>
<rect width="4.0005" height="23.4718" transform="matrix(-0.467453 0.884018 0.879236 0.476387 8.74921 3.72729)" fill="#E1FF00"/>
<path d="M6.8791 7.26374L8.74914 3.72722L0.935034 1.76826L6.8791 7.26374Z" fill="#E1FF00"/>
<path d="M67.4744 32.5L70.1411 28V52L66.1411 48V43V39L67.4744 32.5Z" fill="#020048" stroke="#020048" stroke-width="0.2"/>
<path d="M56.8077 32.5L54.1411 28V52L58.1411 48V43V39L56.8077 32.5Z" fill="#020048" stroke="#020048" stroke-width="0.2"/>
<path d="M56.0691 62.4306L59.8851 67.1674L48.2885 77.1433L44.4724 72.4065L56.0691 62.4306Z" fill="black" stroke="#020048" stroke-width="0.2"/>
<path d="M34.6912 67.2592L38.3358 72.1292L50.5265 63.7247L46.882 58.8547L34.6912 67.2592Z" fill="black" stroke="#020048" stroke-width="0.2"/>
<path d="M20.938 31.803C20.9638 31.6597 21.3449 30.9524 21.8924 30.3482C22.3387 29.8556 22.8839 29.7007 23.5626 29.6668C24.3157 29.6292 25.049 29.663 25.4541 29.5739C25.9387 29.4673 26.5744 29.4618 27.0561 29.4323C27.9674 29.3764 28.3816 29.7091 29.3035 30.1377C30.5909 30.7363 30.9854 30.9456 31.3211 31.143C31.7064 31.3696 32.4637 31.8712 32.9449 32.2396C33.2692 32.488 33.6561 32.7923 33.9522 33.1025C34.0782 33.2345 34.0598 33.5183 34.1605 33.7053C34.1935 33.7665 34.2763 33.6868 34.3085 33.7178C34.7344 34.1288 34.5456 35.975 34.7015 37.2676C34.7717 37.8502 34.925 38.6315 35.1978 40.4976C35.3458 41.5107 35.566 42.6522 35.6422 43.083C35.7392 43.6303 35.622 44.4284 35.5921 45.4356C35.523 47.7581 35.4801 48.2486 35.3247 48.6243C35.1627 49.016 34.7323 49.3772 34.493 49.7244C34.2242 50.1143 33.9627 50.3772 33.5766 50.5018C33.4621 50.5388 33.3175 50.5138 33.2198 50.4777C32.8878 50.3552 32.9215 49.7958 32.8283 49.4019C32.723 48.9568 32.59 48.4469 32.4381 47.8362C32.3366 47.4285 32.0604 46.9786 31.8619 46.5507C31.6366 46.0652 31.3147 45.5269 31.0927 44.879C30.7618 43.9136 30.3127 43.0721 30.2884 41.5033C30.2677 40.1685 30.1903 39.7893 30.1178 39.247C30.007 38.4181 29.6835 37.8833 29.451 37.4003C29.1848 36.8473 28.6477 36.0804 28.1364 35.5294C27.2475 34.5715 25.8275 33.3168 25.0047 32.9601C24.3559 32.7741 22.3953 32.3803 21.3283 32.1594C21.2633 32.1123 21.2318 32.029 21.1388 31.8259" stroke="#FFBF00" stroke-linecap="round"/>
<path d="M32.4239 44.1363C32.4186 42.8893 32.362 40.2051 32.2073 39.7961C31.8876 38.9513 31.631 42.1476 31.4826 42.9658C31.3765 43.5506 31.4688 43.9865 31.5474 44.0712C31.6431 44.1742 31.7363 43.2535 31.6546 41.9216C31.5652 40.4618 31.0637 39.2504 30.9271 38.27C30.8472 37.7762 30.746 37.2899 30.6803 36.9307C30.6146 36.5714 30.5875 36.3541 30.5103 35.8934" stroke="#FFBF00" stroke-linecap="round"/>
<path d="M30.6669 37.3356C30.6345 37.0226 30.2931 36.1632 29.4035 34.9212C28.9502 34.2885 28.1831 33.8578 27.5859 33.1895C27.3586 32.935 26.8522 32.6203 26.0774 32.182C24.4475 31.26 22.7881 31.2098 22.1883 31.1395C22.0508 31.1234 21.8868 31.1311 21.7858 31.1732C21.6849 31.2152 21.6512 31.2993 21.6595 31.3777C21.6678 31.4561 21.7191 31.5263 21.7942 31.5689C22.1707 31.782 22.7048 31.7061 23.4178 31.9274C23.9777 32.1012 24.4895 32.4993 25.8126 33.1694C26.4811 33.508 27.0502 33.8674 27.5094 34.1297C28.5333 34.7145 28.9313 35.4961 29.1754 35.8302C29.4459 36.2005 29.9298 36.5979 30.1931 36.932C30.5644 37.4031 30.4492 38.5766 30.5087 39.1222C30.5759 39.7392 30.6793 40.4684 30.7455 40.9108C30.8492 41.6494 30.8916 42.0888 30.9051 42.4519C30.9186 42.6033 30.9456 42.6882 30.9734 42.7845" stroke="#FFBF00" stroke-linecap="round"/>
<path d="M31.2487 43.1437C31.2815 43.349 31.3806 44.0256 31.4319 45.1585C31.4615 45.81 31.9794 46.6475 32.2708 47.1794C32.7226 48.0041 33.2863 49.1523 33.3854 49.5427C33.4318 49.7257 33.5062 49.928 33.6225 50.0549C33.9022 50.3603 34.4299 49.3877 34.7048 48.8793C35.109 48.132 34.3902 47.624 34.1251 47.1407C33.8267 46.5963 33.3018 46.1518 32.4667 45.193C31.9728 44.6261 31.7185 44.3331 31.4591 43.9919C31.3957 43.9085 31.3535 43.8272 31.3164 43.8395C30.9653 43.9555 31.4417 44.899 31.7281 45.4335C31.9423 45.8332 32.3678 46.186 32.7413 46.6868C33.4459 47.6316 33.8295 48.2793 33.9843 48.6372C34.0295 48.7417 34.0011 48.8893 33.9669 48.9935C33.9327 49.0977 33.8649 49.1623 33.9018 48.9096C34.0237 48.0743 34.2318 47.2828 34.0555 46.1716C33.912 45.2672 33.5206 43.6961 33.2261 42.6015C32.5902 40.2375 32.4098 39.9014 32.4027 39.6451C32.3914 39.2364 32.778 41.7577 33.0224 43.15C33.1407 43.8239 33.3163 44.8627 33.5301 45.7038C33.6999 46.372 33.9072 46.7796 34.1636 47.0862C34.2197 47.1532 34.3399 47.1145 34.4 47.063C34.4601 47.0116 34.4805 46.9169 34.477 46.8157C34.4627 46.4053 33.969 45.9983 33.0983 44.9338C32.9171 44.7236 32.8419 44.6722 32.7879 44.6051C32.7339 44.538 32.7033 44.4568 32.6718 44.3691" stroke="#FFBF00" stroke-linecap="round"/>
<path d="M22.3246 30.6189C23.2783 30.6279 25.1778 30.7063 25.569 30.8644C25.9191 31.0058 26.3005 31.2891 27.6196 32.6962C28.1347 33.2456 28.4903 33.5542 28.8646 33.7726C29.1008 33.9106 29.3517 34.1142 29.8491 34.7501C30.9385 36.1426 31.5552 37.3375 31.7501 37.722C32.3234 38.853 32.9125 40.4375 33.1652 41.5995C33.2622 42.0453 33.6041 43.2836 34.1555 44.8676C34.4842 45.812 34.4936 46.3884 34.6675 47.0107C34.9228 47.9248 34.7669 43.3562 34.5853 42.7486C34.453 42.3058 34.1895 41.3699 33.4229 39.5282C33.0018 38.5165 32.7124 37.8076 32.4187 37.3373C31.9635 36.6084 31.1715 35.6186 30.3687 34.649C29.2995 33.3577 27.8323 32.5958 27.2399 32.069C26.6178 31.5156 26.6099 30.9342 26.409 30.5965C26.3599 30.5139 26.3263 30.4242 26.3544 30.367C26.5111 30.0478 27.1755 30.3527 27.8812 30.6435C28.4573 30.8809 28.7795 31.0602 29.2123 31.4711C29.4917 31.7362 29.9962 32.4934 30.9128 33.6444C31.9192 34.9083 32.7191 35.6433 32.9944 36.0676C33.7057 37.1637 33.7914 37.9473 33.8422 38.3572C33.8721 38.5981 33.9742 39.095 34.1081 39.5952C34.2837 40.2514 34.0142 37.5239 33.6423 35.9698C33.4048 34.9775 32.9409 34.5993 32.6787 34.1048C32.1752 33.1549 31.2097 32.4806 30.834 32.2678C30.4695 32.0613 30.1882 31.8085 30.1064 31.7547C29.6819 31.4753 30.9352 32.511 31.3157 32.7662C31.9007 33.1585 32.5456 33.3605 33.0839 33.5571C33.1834 33.6025 33.2658 33.6425 33.3532 33.683C33.4406 33.7236 33.5304 33.7636 33.8176 33.8711" stroke="#FFBF00" stroke-width="2" stroke-linecap="round"/>
<path d="M56.5 20.4999H54V19.5L55 17.5L56 16L58 14.5L61 13.5H62.5L64.5 14L66 15L67.5 16.5L69.5 20.5L67 20.4999C62.9329 16.1651 60.6343 15.9017 56.5 20.4999Z" fill="#020048" stroke="#020048" stroke-width="0.2"/>
<path d="M52 20.5H54V19.5H52V20.5Z" fill="#020048" stroke="#020048" stroke-width="0.2"/>
<path d="M69 20.5H71V19.5H69V20.5Z" fill="#020048" stroke="#020048" stroke-width="0.2"/>
<path d="M54.5 15L52 19.5H54L55 18L56 16L58 14.5L59.5 14L61 13.5H62.5L64 14L66 15L67.5 16.5L69 19.5H71L69 15.5L68 14.5L66 13L64 12L62.5 11.5H62H61.5L59.5 12L57 13L54.5 15Z" fill="#F2FF00" stroke="#F2FF00" stroke-width="0.2"/>
<path d="M65.8559 16.0358C65.9576 15.9884 66.1668 15.7817 66.3867 15.1887C66.517 14.8375 66.5876 14.525 66.7593 14.1248C66.9082 13.7778 67.1217 13.3087 67.1978 12.4659C67.2388 12.0128 67.3906 11.6962 67.5857 11.1499C67.7317 10.7411 67.7713 10.4012 67.854 9.79829C67.9341 9.21379 68.0787 8.079 68.2816 6.82789C68.4201 5.97374 68.571 5.58314 68.4996 5.17872C68.4012 4.62079 68.1749 4.3728 67.9068 3.90647C67.7211 3.58355 67.5087 3.34719 67.2188 3.12251C66.9706 2.93025 66.399 3.00708 65.967 3.06682C65.888 3.07773 65.8286 3.11869 65.7901 3.17293C65.6012 3.43917 65.6731 3.85788 65.4831 4.11167C65.2559 4.41504 64.8759 4.69952 64.6418 4.95351C64.4318 5.1813 64.4329 6.00056 64.2591 6.5205C64.1513 6.84281 63.975 7.38984 64.003 8.76092C64.0104 9.12362 64.2192 9.72387 64.4632 10.6741C64.7954 11.9678 64.6252 12.9016 64.5857 13.7875C64.5675 14.1952 64.6866 14.7191 64.9097 15.5137C65.0145 15.887 65.2146 16.0362 65.3044 16.1464C65.3512 16.2039 65.4388 16.227 65.5115 16.2161C65.5842 16.2051 65.6492 16.1498 65.7068 16.096C65.7643 16.0421 65.8126 15.9914 65.9801 15.8452" stroke="#FF0000" stroke-linecap="round"/>
<path d="M65.4952 15.4472C65.4982 15.2412 65.534 14.5963 65.9402 13.3728C66.1933 12.6105 66.5082 11.5096 66.6104 10.9216C66.7518 10.1082 67.1225 9.343 67.2767 8.75524C67.4237 8.19468 67.2721 7.25095 67.2704 6.62205C67.2691 6.18889 67.4658 5.065 67.3815 4.4423C67.3433 4.15961 67.0277 3.99104 66.7371 3.84169C66.6672 3.80581 66.5926 3.80406 66.5326 3.82527C66.2714 3.91767 66.1634 4.27537 65.9647 4.50199C65.7002 4.80362 65.436 5.16747 65.2356 5.43393C65.0287 5.70893 64.9993 6.08917 64.8671 6.36984C64.7129 6.69709 64.7173 7.15149 64.6739 9.10879C64.6525 10.0765 64.6957 10.8797 64.7774 11.2807C64.8604 11.6883 64.9028 12.3205 64.9391 12.7926C64.9692 13.1839 65.042 13.603 65.1034 14.0729C65.165 14.5449 65.231 14.7813 65.326 14.8649C65.3704 14.904 65.4512 14.8622 65.5058 14.8077C65.8699 14.4448 66.0388 13.7652 66.2234 13.4832C66.3927 13.2247 66.5579 12.9636 66.6316 12.6463C66.7567 12.1076 66.7485 11.103 66.8961 10.6726C67.1056 10.0622 67.2917 8.70013 67.3219 7.90045C67.344 7.31294 67.4886 6.97197 67.5762 6.55845C67.7353 5.80743 67.7113 5.44228 67.702 5.25946C67.6846 4.91598 67.1457 4.78223 66.8677 4.57062C66.8095 4.52632 66.7561 4.48323 66.6815 4.56668C66.2409 5.05948 66.0738 5.77959 65.7889 6.24294C65.4476 6.79801 65.2782 7.17039 65.2109 7.51381C65.1375 7.88827 65.0909 8.36371 65.0437 10.6035C65.0249 11.4995 65.3718 12.1308 65.6607 12.6886C65.7199 12.8028 65.777 12.884 65.7884 12.8297C65.84 12.585 65.7389 11.8662 65.7761 10.87C65.8108 9.94424 65.9576 8.91069 65.9658 7.95727C65.9722 7.20711 66.0583 6.77357 66.1499 6.41625C66.307 5.80371 66.3107 5.52571 66.3881 5.38444C66.5784 5.03685 66.708 7.25328 66.7501 8.29576C66.7622 8.59396 66.8093 8.88747 66.7951 9.15908C66.7849 9.35413 66.6251 9.55646 66.4499 9.72504C66.3728 9.76294 66.3197 9.70409 66.2924 9.59161C66.265 9.47912 66.265 9.31477 66.265 9.14545" stroke="#FF0000" stroke-linecap="round"/>
</svg>
