<svg width="57" height="76" viewBox="0 0 57 76" fill="none" xmlns="http://www.w3.org/2000/svg">
<line x1="11.0534" y1="70.6425" x2="16.4064" y2="42.6425" stroke="#0DA000" stroke-width="6"/>
<line y1="-3" x2="28.5071" y2="-3" transform="matrix(-0.18778 -0.982211 -0.982211 0.18778 28.353 71.2058)" stroke="#0DA000" stroke-width="6"/>
<line x1="45.1851" y1="34.9252" x2="27.1851" y2="15.9252" stroke="#0DA000" stroke-width="5"/>
<line y1="-2.5" x2="26.1725" y2="-2.5" transform="matrix(0.466696 -0.884418 -0.884418 -0.466696 0.99999 37.3533)" stroke="#0DA000" stroke-width="5"/>
<rect x="13" y="14.2058" width="16" height="31" fill="#0DA000"/>
<path d="M47 33.2058L43.5 36.7058L41 34.2058L44.5 30.7058L47 33.2058Z" fill="#0F9400" stroke="#0F9400" stroke-width="0.2"/>
<path d="M0.79063 37.4925L5.331 39.7554L6.99286 36.5354L2.45249 34.2725L0.79063 37.4925Z" fill="#0F9400" stroke="#0F9400" stroke-width="0.2"/>
<path d="M7.96443 69.9419L14.9644 71.5015L16.0356 66.4921L9.03557 64.9326L7.96443 69.9419Z" fill="#0F9400" stroke="#0F9400" stroke-width="0.2"/>
<rect x="46.6203" y="27.0791" width="2.89362" height="10.0424" transform="rotate(34.0319 46.6203 27.0791)" fill="#191919"/>
<rect width="3.20399" height="7.83277" transform="matrix(0.825503 0.564398 -0.556003 0.83118 50.7237 20.8921)" fill="#E2E2E2"/>
<path d="M56.3174 14.1815L53.2653 22.6629L50.7098 21.0047L56.3174 14.1815Z" fill="#E2E2E2" stroke="#E2E2E2" stroke-width="0.2"/>
<rect x="13" y="14.2058" width="16" height="24" fill="#0E8C00"/>
<circle cx="21.5" cy="7.70581" r="7.5" fill="#EFE9C9"/>
<path d="M14 6.20374C15.4949 -1.94043 27.4945 -1.92844 29 6.20374" stroke="#0E8C00" stroke-width="0.2"/>
<path d="M14 6.20581H29" stroke="#0E8C00" stroke-width="0.2"/>
<path d="M20.0087 4.16954C20.8813 4.16388 22.3504 4.1323 22.4379 4.08619C22.5263 4.03962 22.5862 3.92666 22.6264 3.7746C22.6712 3.6047 22.6125 3.46052 22.5472 3.37702C22.3909 3.17719 21.8322 3.06389 21.0789 2.94715C20.1785 2.80759 19.6854 3.12465 19.0519 3.43833C18.5047 3.70932 18.2777 3.72278 17.1602 4.35964C16.7099 4.61628 16.2519 4.7638 16.0624 4.81258C15.8555 4.86583 16.4747 4.48467 17.0373 4.21098C17.3965 4.03625 18.1849 4.0552 19.0725 4.04325C19.8196 4.0332 20.4019 4.34325 20.9872 4.52618C21.1651 4.5818 21.4048 4.57458 21.7942 4.55838C22.2584 4.53906 22.9035 4.39324 23.6729 4.26275C24.3935 4.14053 25.0247 4.25232 25.5624 4.33937C26.1175 4.42922 26.4722 4.37061 26.5682 4.32619C26.6141 4.30494 26.6313 4.24798 26.6155 4.20293C26.5787 4.09754 26.3704 4.00648 25.8213 3.74829C25.3944 3.54755 24.6477 3.24662 24.0714 3.04947C23.4951 2.85231 23.1071 2.77862 22.6889 2.66175C21.8244 2.42009 21.3234 2.21581 21.1241 2.20372C20.7732 2.18245 20.4631 2.2275 20.1024 2.37093C19.3637 2.6647 18.865 2.97224 18.6874 3.12435C18.0934 3.63306 17.8562 3.82299 17.6466 3.96439C17.5924 4.00094 17.5318 4.03012 17.5274 4.05424C17.5231 4.07836 17.5749 4.09322 18.2504 4.13022C18.9259 4.16723 20.2236 4.22594 20.9491 4.26827C21.6745 4.3106 21.7884 4.33477 22.2931 4.37053C22.7977 4.4063 23.6896 4.45293 24.2991 4.50505C25.6225 4.61821 26.0549 4.83625 26.4797 4.96672C26.7394 5.04648 26.9359 5.05704 26.9901 5.04024C27.007 5.035 26.9119 4.98983 26.399 4.88445C25.8861 4.77907 24.9353 4.60293 24.0808 4.51902C23.2264 4.43511 22.4971 4.44876 22.0142 4.48777C21.3113 4.54452 20.8819 4.73908 20.4785 4.8762C19.884 5.07827 19.3031 5.00422 18.6671 4.95504C18.4722 4.94434 18.2182 4.94434 18.0032 4.94104C17.7881 4.93773 17.6198 4.93113 17.3888 4.90735" stroke="#0E8C00" stroke-width="2" stroke-linecap="round"/>
<path d="M18.8871 5.94876C18.8855 5.95037 18.8838 5.95197 19.0463 5.95153C19.2087 5.95109 19.5353 5.94855 19.7894 5.9327C20.0434 5.91685 20.215 5.88777 20.9136 5.86602C21.6121 5.84427 22.8324 5.83073 23.8207 5.83752C24.8089 5.84431 25.5281 5.87183 26.0258 5.88265C26.5235 5.89346 26.778 5.88674 26.9547 5.88674C27.1315 5.88674 27.2228 5.89368 26.2338 5.7432C25.2448 5.59272 23.1727 5.28463 21.9462 5.12431C20.7197 4.96399 20.4015 4.9608 20.1723 4.96863C19.943 4.97647 19.8123 4.99543 19.7489 5.01136C19.6855 5.02728 19.6935 5.03959 19.7421 5.05771C19.7906 5.07583 19.8794 5.09937 20.5001 5.19794C21.1207 5.29651 22.2704 5.46939 22.3638 5.51843C22.4572 5.56747 21.4594 5.48744 20.9499 5.45576C20.4403 5.42409 20.4493 5.44319 20.4612 5.45703C20.4836 5.48304 20.5244 5.49171 20.951 5.50494C21.3557 5.51749 22.1432 5.52595 22.6351 5.54338C23.127 5.56082 23.2996 5.58289 23.3953 5.59562C23.4911 5.60834 23.5047 5.61104 23.5069 5.62072C23.5129 5.64736 23.4806 5.67497 23.4552 5.69619C23.4205 5.72513 23.2887 5.75877 23.1036 5.82127C22.9545 5.87162 22.8381 5.91469 22.6979 5.93585C22.6109 5.94897 22.4899 5.95125 22.3552 5.95301C22.0755 5.95665 21.9039 5.9447 21.8322 5.92906C21.7056 5.90149 21.5108 5.87762 21.3486 5.87766C21.303 5.87768 21.332 5.88936 21.4814 5.894C21.6307 5.89863 21.8996 5.89886 22.0523 5.90098C22.2336 5.9035 22.3702 5.91124 22.5847 5.9105C22.7957 5.90977 22.9625 5.91606 23.0757 5.93027C23.1735 5.94256 23.2576 5.92769 23.3966 5.91404C23.663 5.88788 23.8811 5.89377 23.9755 5.87398C24.074 5.85333 24.2183 5.82453 24.3898 5.81614C24.6255 5.8046 24.7785 5.79664 24.8517 5.82812C24.8671 5.83478 24.8655 5.85406 24.8597 5.86869C24.8341 5.93332 24.7706 5.96835 24.7064 6.00758C24.6795 6.02403 24.5035 6.02184 24.256 6.01913C24.1032 5.9876 23.9204 5.91562 23.8155 5.88776C23.7998 5.884 23.7847 5.87938 23.7691 5.87462" stroke="#0E8C00" stroke-width="0.5" stroke-linecap="round"/>
<path d="M18.8772 5.94476C18.877 5.94476 18.8767 5.94476 18.68 5.94384C18.4833 5.94291 18.0903 5.94106 17.6812 5.93403C17.2722 5.92699 16.859 5.91481 16.6019 5.90006C16.3448 5.8853 16.2562 5.86832 16.0508 5.85654C15.8455 5.84476 15.526 5.83869 15.3321 5.83231C15.0795 5.824 14.9563 5.81274 14.8448 5.81778C14.7095 5.82391 14.5486 5.90997 14.4293 5.94525C14.3609 5.96546 14.324 5.99511 14.3084 5.99899C14.2884 6.00398 14.3749 5.99484 14.6906 5.97862C14.9803 5.96373 15.5335 5.9551 15.5819 5.94891C15.6303 5.94272 15.1574 5.9443 14.9054 5.94621C14.6004 5.94853 14.516 5.96001 14.4255 5.92685C14.3666 5.90528 14.3256 5.88008 14.3093 5.85952C14.2924 5.83832 14.2933 5.80638 14.2953 5.77721C14.305 5.63638 14.5798 5.53921 14.6989 5.49485C14.7382 5.48022 14.794 5.47427 14.9667 5.47146C15.1395 5.46864 15.4289 5.47374 15.5909 5.4782C15.7788 5.48338 15.8187 5.49562 15.8455 5.50878C15.9066 5.53884 16.1069 5.77916 16.2094 5.91867C16.2392 5.95926 16.0918 5.97982 15.9208 6.01057C15.8739 6.019 15.8275 6.01647 15.6748 5.95355C15.5221 5.89063 15.264 5.76393 15.0668 5.67245C14.7437 5.52257 14.5891 5.46899 14.5576 5.45027C14.5251 5.43098 14.5551 5.3614 14.6051 5.22604C14.7028 4.96187 14.7391 4.74997 14.8105 4.62844C14.8655 4.53489 14.9739 4.38608 15.059 4.27703C15.144 4.16798 15.2063 4.10561 15.3549 3.99652C15.5034 3.88743 15.7364 3.73351 16.1054 3.43874C16.4744 3.14398 16.9723 2.71304 17.2552 2.4748C17.5381 2.23656 17.5909 2.20407 17.7361 2.14235C17.8812 2.08064 18.1172 1.99068 18.6219 1.90146C19.1266 1.81223 19.8929 1.72646 20.4532 1.68505C21.0135 1.64365 21.3446 1.64922 21.7229 1.67129C22.1013 1.69335 22.517 1.73175 22.7449 1.74905C23.0002 1.76842 23.0538 1.74822 23.2612 1.67918C23.444 1.61831 23.7842 1.50451 24.0376 1.43503C24.291 1.36555 24.4472 1.34372 24.5451 1.33247C24.6772 1.31727 24.7349 1.3262 24.7664 1.34251C24.7798 1.34945 24.7743 1.37137 24.7605 1.38949C24.672 1.50561 24.4512 1.53111 24.1908 1.54164C24.1251 1.54429 24.0753 1.53243 23.7748 1.43161C23.4744 1.33079 22.9249 1.13651 22.6085 1.0305C22.2922 0.924484 22.2256 0.912624 22.0959 0.907154C21.9663 0.901683 21.7755 0.902963 21.3043 0.958654C20.8332 1.01435 20.0875 1.12441 19.6625 1.19333C19.2376 1.26226 19.1561 1.2867 18.8346 1.45082C18.513 1.61494 17.9539 1.91799 17.5984 2.12381C17.243 2.32963 17.108 2.42905 17.0237 2.49504C16.8348 2.64293 16.7688 2.77365 16.7131 2.92327C16.6909 2.98296 16.6933 3.03437 16.6988 3.0754C16.7012 3.09343 16.7142 3.10331 16.7261 3.11077C16.7905 3.15125 17.1301 3.05258 17.3457 2.97712C17.3807 2.96486 17.3853 2.90043 17.4004 2.8178C17.4107 2.76175 17.4549 2.7143 17.492 2.67978C17.5564 2.61983 17.792 2.5537 18.1029 2.43842C18.2644 2.37853 18.4248 2.29313 18.5299 2.23623C18.6814 2.1542 18.7922 2.03247 18.9381 1.87189C19.0816 1.71386 19.2527 1.60251 19.3814 1.52644C19.4784 1.46915 19.559 1.45253 20.0362 1.45392C20.4906 1.45524 21.3757 1.47341 21.9168 1.46957C22.458 1.46573 22.6283 1.44332 22.7516 1.43187C22.9454 1.41386 23.0322 1.42284 23.0378 1.42543C23.0447 1.42862 23.0016 1.42484 22.74 1.38148C22.4785 1.33813 21.9848 1.25257 21.7685 1.20995C21.5522 1.16733 21.6282 1.17025 21.8947 1.22056C22.1612 1.27088 22.6158 1.36849 22.9339 1.45332C23.2521 1.53814 23.4201 1.60721 23.5356 1.65676C23.6511 1.70631 23.7091 1.73425 23.8534 1.80125C23.9977 1.86825 24.2266 1.97345 24.3359 2.02692C24.4453 2.08039 24.4283 2.07894 23.942 1.93439C23.4557 1.78984 22.5006 1.50223 21.9958 1.35203C21.491 1.20184 21.4654 1.19778 21.4314 1.19568C21.3557 1.19103 21.2989 1.19566 21.2134 1.19615C21.1417 1.19656 21.0125 1.18926 21.3675 1.23701C21.7225 1.28476 22.5656 1.38573 23.1446 1.48279C23.7235 1.57984 24.0127 1.66992 24.2196 1.74342C24.4264 1.81693 24.5422 1.87113 24.6191 1.90842C24.696 1.94572 24.7307 1.96446 25.0156 2.13781C25.3005 2.31116 25.8345 2.63855 26.1536 2.84605C26.4726 3.05354 26.5605 3.13123 26.6139 3.18009C26.6851 3.24516 26.7352 3.31927 26.797 3.42964C26.843 3.54146 26.8778 3.74044 26.9013 3.97424C26.9093 4.06662 26.9093 4.10566 26.9093 4.14588" stroke="#0E8C00" stroke-width="0.5" stroke-linecap="round"/>
<path d="M27.1487 6.00705C27.148 6.00705 27.1474 6.00705 27.4008 6.00705C27.6543 6.00705 28.1618 6.00706 28.431 6.00642C28.7002 6.00579 28.7157 6.00453 28.6609 5.962C28.487 5.82701 28.3371 5.73886 28.3059 5.71366C28.2676 5.68272 28.1897 5.6053 28.0509 5.49094C27.8882 5.3569 27.7611 5.3072 27.7347 5.3037C27.6628 5.29419 27.7362 5.55375 27.758 5.67508C27.7615 5.69461 27.7583 5.70956 27.7514 5.72142C27.7445 5.73329 27.7315 5.74192 27.716 5.74939C27.7005 5.75686 27.6829 5.76291 27.7342 5.76724C27.9061 5.78175 28.0629 5.77159 28.135 5.76395C28.3352 5.74272 28.5252 5.78701 28.6121 5.78039C28.6414 5.77815 28.6862 5.7791 28.7069 5.77151C28.7276 5.76392 28.7229 5.74874 28.7033 5.72832C28.6063 5.62695 28.5012 5.52503 28.4113 5.33634C28.3729 5.25578 28.3338 5.11885 28.2673 4.98454C28.2008 4.85023 28.1156 4.71951 27.9469 4.51646C27.7781 4.31341 27.5284 4.042 27.3608 3.84383C27.1931 3.64567 27.115 3.52896 27.109 3.54729C27.1031 3.56562 27.1716 3.72253 27.2677 3.90683C27.3638 4.09113 27.4854 4.29809 27.5804 4.44571C27.6753 4.59333 27.7401 4.67536 27.8085 4.75839C28.0341 5.03236 28.0913 5.10918 28.1272 5.18544C28.1921 5.32298 28.2221 5.4768 28.2411 5.50064C28.3009 5.57539 28.4666 5.55787 28.5498 5.55598C28.5805 5.55528 28.5862 5.53921 28.5864 5.52452C28.5876 5.45128 28.4742 5.27851 28.291 4.9501C28.1805 4.75209 28.0024 4.50916 27.9083 4.36734C27.797 4.19966 27.7826 4.14924 27.7549 4.08493C27.6926 3.96587 27.6218 3.85366 27.5579 3.7799C27.5239 3.74305 27.4865 3.70738 27.4147 3.65575" stroke="#0E8C00" stroke-width="0.5" stroke-linecap="round"/>
<path d="M14.8158 5.28837C14.8204 5.28595 14.9581 5.11592 15.0711 4.99465C15.0859 4.97875 15.0969 4.96116 15.104 4.9456C15.1111 4.93004 15.1132 4.9165 15.0998 4.91014C15.0864 4.90378 15.0573 4.90501 15.0405 4.89868C14.9039 4.84722 15.0056 4.48363 14.9755 4.39319C14.965 4.36164 14.9438 4.34179 14.9225 4.33081C14.9124 4.32563 14.8994 4.33528 14.8931 4.3311C14.8528 4.30441 14.9169 4.18292 14.94 4.09297C14.9576 4.0242 15.04 3.91562 15.1708 3.76825C15.2462 3.68332 15.2822 3.62287 15.3031 3.56926C15.3301 3.49956 15.4035 3.44201 15.4394 3.38846C15.4784 3.33044 15.6264 3.12517 15.717 2.99394C15.754 2.94048 15.8319 2.90102 15.8939 2.84274C15.991 2.75154 16.0516 2.69987 16.1539 2.5764C16.21 2.50867 16.2961 2.4387 16.4268 2.36711C16.4937 2.33043 16.5438 2.3192 16.5696 2.32618C16.6321 2.34307 16.6314 2.47607 16.6325 2.54386C16.6335 2.60217 16.5621 2.64287 16.4318 2.78917C16.2482 2.99521 16.1578 3.08412 16.0967 3.15196C16.0302 3.22586 15.933 3.2685 15.8623 3.34652C15.8435 3.36826 15.8254 3.38777 15.8084 3.40568C15.7915 3.42359 15.7761 3.43933 15.7445 3.48514" stroke="#0E8C00" stroke-width="0.5" stroke-linecap="round"/>
<path d="M16.3823 2.32193C16.3902 2.31962 16.4178 2.22901 16.4618 2.15203C16.5111 2.06579 16.6473 2.03452 16.7596 1.98378C16.8235 1.95494 16.8559 1.8916 16.9184 1.81989C16.9711 1.75935 17.0433 1.73008 17.1032 1.67607C17.1553 1.62902 17.2419 1.57489 17.3685 1.47285C17.3933 1.45282 17.4053 1.44515 17.4118 1.45076C17.4314 1.46768 17.391 1.54354 17.2973 1.68112C17.1432 1.90745 16.985 2.07208 16.9047 2.13887C16.8081 2.20729 16.7707 2.22988 16.7574 2.24233C16.7572 2.24801 16.7703 2.25242 16.797 2.25859" stroke="#0E8C00" stroke-width="0.5" stroke-linecap="round"/>
<path d="M17.1706 2.04621C17.1706 2.04965 17.1706 2.05309 17.4248 1.92003C17.6791 1.78697 18.1876 1.51731 18.4908 1.36904C18.7941 1.22078 18.8767 1.20209 19.0211 1.19219C19.1655 1.18228 19.3691 1.18173 19.5207 1.1729C19.6724 1.16406 19.7659 1.14696 19.9761 1.07872C20.1863 1.01048 20.5103 0.891616 20.7351 0.821989C20.9598 0.752361 21.0755 0.735573 21.2116 0.726925C21.3478 0.718277 21.5009 0.718277 21.6957 0.731806C21.8906 0.745335 22.1226 0.772392 22.3106 0.78902C22.4985 0.805647 22.6355 0.811024 22.796 0.831697C22.9565 0.85237 23.1364 0.888177 23.464 1.01517C23.7916 1.14217 24.2615 1.35927 24.5526 1.50526C24.8438 1.65125 24.942 1.71954 25.0313 1.7873C25.2014 1.9162 25.2891 1.99544 25.2894 2.00823C25.2896 2.01985 25.2462 2.01384 25.2683 2.01625C25.3676 2.02709 25.5534 2.06031 25.7746 2.14339C26.0218 2.23626 26.1629 2.3384 26.2039 2.36851C26.235 2.39136 26.4084 2.49002 26.6681 2.63621C26.9366 2.78732 27.11 3.00447 27.1646 3.06593C27.2088 3.11569 27.2456 3.18048 27.2841 3.26506C27.3288 3.36339 27.4282 3.413 27.5059 3.45943C27.5737 3.49991 27.6726 3.54871 27.7469 3.59682C27.7731 3.62032 27.7922 3.64368 27.8056 3.66767C27.8116 3.6801 27.8159 3.69303 27.8371 3.72741" stroke="#0E8C00" stroke-width="0.5" stroke-linecap="round"/>
<path d="M27.8371 3.72729C27.8431 3.74613 27.8754 3.80193 27.934 3.89837C27.9775 3.97015 28.0275 4.04414 28.1331 4.20014C28.1888 4.28233 28.2277 4.36401 28.2719 4.44878C28.3031 4.50863 28.3347 4.59256 28.3475 4.66394C28.3507 4.69923 28.3535 4.74075 28.3584 4.7848C28.3618 4.80623 28.3671 4.82581 28.3972 4.86452" stroke="#0E8C00" stroke-width="0.5" stroke-linecap="round"/>
<path d="M27.7619 3.50335C27.7653 3.50335 27.7687 3.50335 27.7694 3.49485C27.7783 3.37292 27.6018 3.22538 27.5621 3.14907C27.4788 2.98871 27.3085 2.8258 27.2182 2.72991C27.1483 2.65559 27.0427 2.59027 26.9902 2.55309C26.9352 2.51407 26.8836 2.4665 26.8287 2.42105C26.785 2.38476 26.6666 2.3189 26.4856 2.2275C26.3954 2.18191 26.3042 2.14618 26.1719 2.07663C26.0396 2.00708 25.8677 1.90691 25.7695 1.85022C25.6713 1.79353 25.6518 1.78337 25.5 1.71131C25.3482 1.63926 25.0645 1.50563 24.7641 1.38522C24.4637 1.26481 24.1551 1.16166 23.9223 1.0957C23.6896 1.02974 23.5419 1.0041 23.401 0.986157C23.2601 0.968211 23.1304 0.958736 22.9968 0.948975" stroke="#0E8C00" stroke-width="0.5" stroke-linecap="round"/>
<path d="M17.5497 1.36729C17.6557 1.31872 17.9028 1.20953 17.9805 1.19201C18.0363 1.17941 18.2176 1.10181 18.5169 0.971153C18.666 0.906034 18.8056 0.834084 18.9145 0.787592C19.0931 0.711374 19.2257 0.689972 19.352 0.673002C19.4242 0.663293 19.5135 0.654561 19.7251 0.624999C19.9367 0.595437 20.2681 0.546128 20.5076 0.501595C20.747 0.457063 20.8845 0.418801 21.0357 0.394691C21.3453 0.345305 21.5645 0.357416 21.6618 0.368751C21.8137 0.386447 21.9327 0.455329 22.0828 0.526391C22.1121 0.540268 22.1266 0.548531 22.1075 0.553313C22.0372 0.57093 21.8709 0.547897 21.6456 0.529386C21.4121 0.5102 21.2678 0.53034 21.183 0.549565C21.1194 0.564007 21.0151 0.593653 20.6893 0.713818C20.3635 0.833983 19.8196 1.04522 19.5149 1.15822C19.1642 1.28825 19.0928 1.28817 19.0569 1.28486C19.0387 1.28318 19.0214 1.27493 19.0128 1.26461C18.9967 1.24514 19.0747 1.17201 19.1928 1.08114C19.2683 1.02302 19.3271 1.00192 19.6054 0.90731C19.8581 0.821403 20.3352 0.652735 20.6091 0.561325C20.883 0.469916 20.9388 0.459386 21.2588 0.460247C21.5789 0.461107 22.1614 0.473677 22.593 0.505982C23.0245 0.538288 23.2874 0.589948 23.4392 0.621446C23.6718 0.669727 23.7135 0.693887 23.8673 0.775386C24.0046 0.848103 24.2586 0.990757 24.4432 1.09714C24.8554 1.34777 24.8906 1.3716 24.9154 1.39167C24.9278 1.40298 24.9398 1.41657 24.9587 1.44807" stroke="#0E8C00" stroke-width="0.5" stroke-linecap="round"/>
<path d="M21.8 0.375366C21.8169 0.377293 21.8799 0.373781 21.9885 0.373793C22.0888 0.373803 22.1852 0.370103 22.2548 0.351154C22.2911 0.341273 22.3736 0.346964 22.6222 0.386944C22.8111 0.417309 23.1189 0.51197 23.305 0.558996C23.6159 0.637527 23.7653 0.64087 23.8739 0.671412C23.9874 0.703324 24.1522 0.776264 24.2468 0.820413C24.3086 0.84929 24.4328 0.926182 24.5472 0.981819C24.6742 1.04358 24.8447 1.14851 25.0007 1.24868C25.2266 1.39371 25.2907 1.42739 25.3785 1.47351C25.556 1.56677 25.7144 1.67617 25.9358 1.79032C26.0303 1.83901 26.0871 1.85169 26.1599 1.89789C26.2153 1.9416 26.2623 1.9788 26.3082 2.0162C26.3197 2.02621 26.3308 2.03776 26.364 2.05044" stroke="#0E8C00" stroke-width="0.5" stroke-linecap="round"/>
<path d="M28.2315 72.4104L35.7104 70.4114L34.5894 64.9966L27.1105 66.9956L28.2315 72.4104Z" fill="#0F9400"/>
</svg>
