<svg width="57" height="76" viewBox="0 0 57 76" fill="none" xmlns="http://www.w3.org/2000/svg">
<line y1="-3" x2="28.5071" y2="-3" transform="matrix(-0.18778 -0.982211 -0.982211 0.18778 42.7777 71.2058)" stroke="#0DA000" stroke-width="6"/>
<line x1="25.478" y1="70.6425" x2="30.8311" y2="42.6425" stroke="#0DA000" stroke-width="6"/>
<line y1="-2.5" x2="26.1725" y2="-2.5" transform="matrix(0.687744 -0.725953 -0.725953 -0.687744 9.77771 33.2058)" stroke="#0DA000" stroke-width="5"/>
<line x1="53.5667" y1="38.52" x2="41.3521" y2="15.3726" stroke="#0DA000" stroke-width="5"/>
<rect width="16" height="31" transform="matrix(-1 0 0 1 43.7777 14.2058)" fill="#0DA000"/>
<path d="M9.77771 33.2058L13.2777 36.7058L15.7777 34.2058L12.2777 30.7058L9.77771 33.2058Z" fill="#0F9400" stroke="#0F9400" stroke-width="0.2"/>
<path d="M55.9871 37.4925L51.4467 39.7554L49.7848 36.5354L54.3252 34.2725L55.9871 37.4925Z" fill="#0F9400" stroke="#0F9400" stroke-width="0.2"/>
<path d="M48.8133 69.9419L41.8133 71.5015L40.7421 66.4921L47.7421 64.9326L48.8133 69.9419Z" fill="#0F9400" stroke="#0F9400" stroke-width="0.2"/>
<rect width="2.89362" height="10.0424" transform="matrix(-0.828726 0.559654 0.559654 0.828726 10.1575 27.0791)" fill="#191919"/>
<rect width="3.20399" height="7.83277" transform="matrix(-0.825503 0.564398 0.556003 0.83118 6.05402 20.8921)" fill="#E2E2E2"/>
<path d="M0.460333 14.1815L3.5124 22.6629L6.06789 21.0047L0.460333 14.1815Z" fill="#E2E2E2" stroke="#E2E2E2" stroke-width="0.2"/>
<rect width="16" height="24" transform="matrix(-1 0 0 1 43.7777 14.2058)" fill="#0E8C00"/>
<circle cx="7.5" cy="7.5" r="7.5" transform="matrix(-1 0 0 1 42.7777 0.205811)" fill="#EFE9C9"/>
<path d="M42.7777 6.20374C41.2828 -1.94043 29.2832 -1.92844 27.7777 6.20374" stroke="#0E8C00" stroke-width="0.2"/>
<path d="M42.7777 6.20581H27.7777" stroke="#0E8C00" stroke-width="0.2"/>
<path d="M36.769 4.16954C35.8964 4.16388 34.4273 4.1323 34.3398 4.08619C34.2514 4.03962 34.1915 3.92666 34.1513 3.7746C34.1065 3.6047 34.1652 3.46052 34.2305 3.37702C34.3868 3.17719 34.9455 3.06389 35.6988 2.94715C36.5992 2.80759 37.0923 3.12465 37.7258 3.43833C38.273 3.70932 38.5 3.72278 39.6175 4.35964C40.0678 4.61628 40.5258 4.7638 40.7153 4.81258C40.9222 4.86583 40.303 4.48467 39.7404 4.21098C39.3812 4.03625 38.5928 4.0552 37.7052 4.04325C36.9581 4.0332 36.3758 4.34325 35.7905 4.52618C35.6126 4.5818 35.3729 4.57458 34.9835 4.55838C34.5193 4.53906 33.8742 4.39324 33.1048 4.26275C32.3842 4.14053 31.753 4.25232 31.2153 4.33937C30.6602 4.42922 30.3055 4.37061 30.2095 4.32619C30.1636 4.30494 30.1464 4.24798 30.1622 4.20293C30.199 4.09754 30.4073 4.00648 30.9564 3.74829C31.3833 3.54755 32.13 3.24662 32.7063 3.04947C33.2826 2.85231 33.6706 2.77862 34.0888 2.66175C34.9533 2.42009 35.4543 2.21581 35.6536 2.20372C36.0045 2.18245 36.3146 2.2275 36.6753 2.37093C37.414 2.6647 37.9127 2.97224 38.0903 3.12435C38.6843 3.63306 38.9215 3.82299 39.1311 3.96439C39.1853 4.00094 39.2459 4.03012 39.2503 4.05424C39.2546 4.07836 39.2028 4.09322 38.5273 4.13022C37.8518 4.16723 36.5541 4.22594 35.8286 4.26827C35.1032 4.3106 34.9893 4.33477 34.4846 4.37053C33.98 4.4063 33.0881 4.45293 32.4786 4.50505C31.1552 4.61821 30.7228 4.83625 30.298 4.96672C30.0383 5.04648 29.8418 5.05704 29.7876 5.04024C29.7707 5.035 29.8658 4.98983 30.3787 4.88445C30.8916 4.77907 31.8424 4.60293 32.6969 4.51902C33.5513 4.43511 34.2806 4.44876 34.7635 4.48777C35.4664 4.54452 35.8958 4.73908 36.2992 4.8762C36.8937 5.07827 37.4746 5.00422 38.1106 4.95504C38.3055 4.94434 38.5595 4.94434 38.7745 4.94104C38.9896 4.93773 39.1579 4.93113 39.3889 4.90735" stroke="#0E8C00" stroke-width="2" stroke-linecap="round"/>
<path d="M37.8907 5.94876C37.8923 5.95037 37.8939 5.95197 37.7315 5.95153C37.569 5.95109 37.2424 5.94855 36.9884 5.9327C36.7344 5.91685 36.5628 5.88777 35.8642 5.86602C35.1656 5.84427 33.9453 5.83073 32.9571 5.83752C31.9688 5.84431 31.2497 5.87183 30.7519 5.88265C30.2542 5.89346 29.9998 5.88674 29.823 5.88674C29.6463 5.88674 29.555 5.89368 30.544 5.7432C31.533 5.59272 33.6051 5.28463 34.8316 5.12431C36.0581 4.96399 36.3762 4.9608 36.6055 4.96863C36.8347 4.97647 36.9655 4.99543 37.0289 5.01136C37.0922 5.02728 37.0842 5.03959 37.0357 5.05771C36.9872 5.07583 36.8983 5.09937 36.2777 5.19794C35.6571 5.29651 34.5073 5.46939 34.414 5.51843C34.3206 5.56747 35.3184 5.48744 35.8279 5.45576C36.3375 5.42409 36.3285 5.44319 36.3166 5.45703C36.2942 5.48304 36.2534 5.49171 35.8268 5.50494C35.422 5.51749 34.6345 5.52595 34.1426 5.54338C33.6507 5.56082 33.4781 5.58289 33.3824 5.59562C33.2867 5.60834 33.2731 5.61104 33.2709 5.62072C33.2648 5.64736 33.2971 5.67497 33.3226 5.69619C33.3573 5.72513 33.4891 5.75877 33.6742 5.82127C33.8232 5.87162 33.9397 5.91469 34.0799 5.93585C34.1669 5.94897 34.2879 5.95125 34.4225 5.95301C34.7022 5.95665 34.8738 5.9447 34.9456 5.92906C35.0722 5.90149 35.267 5.87762 35.4291 5.87766C35.4748 5.87768 35.4457 5.88936 35.2964 5.894C35.147 5.89863 34.8782 5.89886 34.7254 5.90098C34.5442 5.9035 34.4076 5.91124 34.1931 5.9105C33.982 5.90977 33.8153 5.91606 33.7021 5.93027C33.6043 5.94256 33.5201 5.92769 33.3811 5.91404C33.1148 5.88788 32.8967 5.89377 32.8023 5.87398C32.7038 5.85333 32.5594 5.82453 32.388 5.81614C32.1523 5.8046 31.9993 5.79664 31.9261 5.82812C31.9106 5.83478 31.9123 5.85406 31.9181 5.86869C31.9436 5.93332 32.0072 5.96835 32.0713 6.00758C32.0982 6.02403 32.2743 6.02184 32.5217 6.01913C32.6745 5.9876 32.8573 5.91562 32.9623 5.88776C32.978 5.884 32.9931 5.87938 33.0086 5.87462" stroke="#0E8C00" stroke-width="0.5" stroke-linecap="round"/>
<path d="M37.9005 5.94476C37.9008 5.94476 37.9011 5.94476 38.0977 5.94384C38.2944 5.94291 38.6875 5.94106 39.0965 5.93403C39.5056 5.92699 39.9187 5.91481 40.1758 5.90006C40.4329 5.8853 40.5215 5.86832 40.7269 5.85654C40.9323 5.84476 41.2518 5.83869 41.4456 5.83231C41.6982 5.824 41.8215 5.81274 41.933 5.81778C42.0682 5.82391 42.2292 5.90997 42.3485 5.94525C42.4168 5.96546 42.4538 5.99511 42.4694 5.99899C42.4894 6.00398 42.4028 5.99484 42.0871 5.97862C41.7975 5.96373 41.2443 5.9551 41.1959 5.94891C41.1474 5.94272 41.6204 5.9443 41.8723 5.94621C42.1773 5.94853 42.2617 5.96001 42.3522 5.92685C42.4111 5.90528 42.4521 5.88008 42.4685 5.85952C42.4854 5.83832 42.4845 5.80638 42.4825 5.77721C42.4728 5.63638 42.198 5.53921 42.0788 5.49485C42.0396 5.48022 41.9837 5.47427 41.811 5.47146C41.6383 5.46864 41.3489 5.47374 41.1869 5.4782C40.9989 5.48338 40.959 5.49562 40.9323 5.50878C40.8711 5.53884 40.6708 5.77916 40.5683 5.91867C40.5385 5.95926 40.6859 5.97982 40.857 6.01057C40.9039 6.019 40.9503 6.01647 41.103 5.95355C41.2557 5.89063 41.5137 5.76393 41.711 5.67245C42.0341 5.52257 42.1886 5.46899 42.2202 5.45027C42.2527 5.43098 42.2227 5.3614 42.1726 5.22604C42.075 4.96187 42.0387 4.74997 41.9672 4.62844C41.9122 4.53489 41.8038 4.38608 41.7188 4.27703C41.6338 4.16798 41.5715 4.10561 41.4229 3.99652C41.2743 3.88743 41.0414 3.73351 40.6724 3.43874C40.3034 3.14398 39.8054 2.71304 39.5225 2.4748C39.2396 2.23656 39.1869 2.20407 39.0417 2.14235C38.8965 2.08064 38.6605 1.99068 38.1558 1.90146C37.6511 1.81223 36.8848 1.72646 36.3245 1.68505C35.7643 1.64365 35.4332 1.64922 35.0548 1.67129C34.6764 1.69335 34.2608 1.73175 34.0328 1.74905C33.7776 1.76842 33.724 1.74822 33.5166 1.67918C33.3337 1.61831 32.9935 1.50451 32.7402 1.43503C32.4868 1.36555 32.3305 1.34372 32.2327 1.33247C32.1005 1.31727 32.0428 1.3262 32.0113 1.34251C31.9979 1.34945 32.0035 1.37137 32.0173 1.38949C32.1057 1.50561 32.3265 1.53111 32.5869 1.54164C32.6526 1.54429 32.7025 1.53243 33.0029 1.43161C33.3033 1.33079 33.8528 1.13651 34.1692 1.0305C34.4856 0.924484 34.5521 0.912624 34.6818 0.907154C34.8115 0.901683 35.0022 0.902963 35.4734 0.958654C35.9445 1.01435 36.6903 1.12441 37.1152 1.19333C37.5401 1.26226 37.6216 1.2867 37.9432 1.45082C38.2647 1.61494 38.8238 1.91799 39.1793 2.12381C39.5348 2.32963 39.6697 2.42905 39.754 2.49504C39.9429 2.64293 40.0089 2.77365 40.0646 2.92327C40.0869 2.98296 40.0845 3.03437 40.079 3.0754C40.0765 3.09343 40.0635 3.10331 40.0516 3.11077C39.9872 3.15125 39.6476 3.05258 39.4321 2.97712C39.3971 2.96486 39.3925 2.90043 39.3773 2.8178C39.367 2.76175 39.3228 2.7143 39.2858 2.67978C39.2214 2.61983 38.9858 2.5537 38.6749 2.43842C38.5133 2.37853 38.353 2.29313 38.2479 2.23623C38.0964 2.1542 37.9855 2.03247 37.8396 1.87189C37.6961 1.71386 37.5251 1.60251 37.3963 1.52644C37.2994 1.46915 37.2188 1.45253 36.7416 1.45392C36.2872 1.45524 35.4021 1.47341 34.8609 1.46957C34.3198 1.46573 34.1494 1.44332 34.0262 1.43187C33.8324 1.41386 33.7455 1.42284 33.74 1.42543C33.7331 1.42862 33.7761 1.42484 34.0377 1.38148C34.2993 1.33813 34.7929 1.25257 35.0092 1.20995C35.2255 1.16733 35.1495 1.17025 34.883 1.22056C34.6166 1.27088 34.162 1.36849 33.8438 1.45332C33.5256 1.53814 33.3577 1.60721 33.2421 1.65676C33.1266 1.70631 33.0686 1.73425 32.9243 1.80125C32.78 1.86825 32.5512 1.97345 32.4418 2.02692C32.3324 2.08039 32.3494 2.07894 32.8357 1.93439C33.322 1.78984 34.2771 1.50223 34.7819 1.35203C35.2868 1.20184 35.3124 1.19778 35.3464 1.19568C35.422 1.19103 35.4789 1.19566 35.5644 1.19615C35.6361 1.19656 35.7652 1.18926 35.4102 1.23701C35.0552 1.28476 34.2121 1.38573 33.6332 1.48279C33.0543 1.57984 32.765 1.66992 32.5582 1.74342C32.3513 1.81693 32.2356 1.87113 32.1586 1.90842C32.0817 1.94572 32.047 1.96446 31.7622 2.13781C31.4773 2.31116 30.9432 2.63855 30.6242 2.84605C30.3051 3.05354 30.2173 3.13123 30.1638 3.18009C30.0926 3.24516 30.0426 3.31927 29.9808 3.42964C29.9348 3.54146 29.8999 3.74044 29.8765 3.97424C29.8685 4.06662 29.8685 4.10566 29.8685 4.14588" stroke="#0E8C00" stroke-width="0.5" stroke-linecap="round"/>
<path d="M29.6291 6.00705C29.6297 6.00705 29.6304 6.00705 29.3769 6.00705C29.1235 6.00705 28.6159 6.00706 28.3467 6.00642C28.0775 6.00579 28.0621 6.00453 28.1169 5.962C28.2908 5.82701 28.4407 5.73886 28.4719 5.71366C28.5102 5.68272 28.588 5.6053 28.7269 5.49094C28.8896 5.3569 29.0166 5.3072 29.0431 5.3037C29.115 5.29419 29.0416 5.55375 29.0197 5.67508C29.0162 5.69461 29.0194 5.70956 29.0263 5.72142C29.0332 5.73329 29.0462 5.74192 29.0617 5.74939C29.0772 5.75686 29.0949 5.76291 29.0435 5.76724C28.8717 5.78175 28.7148 5.77159 28.6428 5.76395C28.4425 5.74272 28.2526 5.78701 28.1656 5.78039C28.1363 5.77815 28.0915 5.7791 28.0709 5.77151C28.0502 5.76392 28.0549 5.74874 28.0744 5.72832C28.1714 5.62695 28.2766 5.52503 28.3664 5.33634C28.4048 5.25578 28.4439 5.11885 28.5104 4.98454C28.577 4.85023 28.6621 4.71951 28.8309 4.51646C28.9996 4.31341 29.2493 4.042 29.417 3.84383C29.5847 3.64567 29.6628 3.52896 29.6687 3.54729C29.6747 3.56562 29.6061 3.72253 29.51 3.90683C29.4139 4.09113 29.2924 4.29809 29.1974 4.44571C29.1024 4.59333 29.0376 4.67536 28.9693 4.75839C28.7436 5.03236 28.6865 5.10918 28.6505 5.18544C28.5856 5.32298 28.5557 5.4768 28.5366 5.50064C28.4769 5.57539 28.3112 5.55787 28.2279 5.55598C28.1973 5.55528 28.1916 5.53921 28.1913 5.52452C28.1902 5.45128 28.3035 5.27851 28.4868 4.9501C28.5973 4.75209 28.7753 4.50916 28.8695 4.36734C28.9808 4.19966 28.9952 4.14924 29.0228 4.08493C29.0851 3.96587 29.1559 3.85366 29.2198 3.7799C29.2539 3.74305 29.2913 3.70738 29.3631 3.65575" stroke="#0E8C00" stroke-width="0.5" stroke-linecap="round"/>
<path d="M41.962 5.28837C41.9574 5.28595 41.8197 5.11592 41.7067 4.99465C41.6919 4.97875 41.6809 4.96116 41.6738 4.9456C41.6667 4.93004 41.6645 4.9165 41.678 4.91014C41.6914 4.90378 41.7205 4.90501 41.7373 4.89868C41.8739 4.84722 41.7721 4.48363 41.8023 4.39319C41.8128 4.36164 41.834 4.34179 41.8553 4.33081C41.8653 4.32563 41.8784 4.33528 41.8847 4.3311C41.925 4.30441 41.8609 4.18292 41.8378 4.09297C41.8202 4.0242 41.7378 3.91562 41.607 3.76825C41.5316 3.68332 41.4955 3.62287 41.4747 3.56926C41.4477 3.49956 41.3743 3.44201 41.3384 3.38846C41.2994 3.33044 41.1514 3.12517 41.0608 2.99394C41.0238 2.94048 40.9459 2.90102 40.8839 2.84274C40.7868 2.75154 40.7262 2.69987 40.6239 2.5764C40.5678 2.50867 40.4817 2.4387 40.351 2.36711C40.2841 2.33043 40.234 2.3192 40.2082 2.32618C40.1457 2.34307 40.1464 2.47607 40.1453 2.54386C40.1443 2.60217 40.2157 2.64287 40.346 2.78917C40.5296 2.99521 40.62 3.08412 40.6811 3.15196C40.7476 3.22586 40.8448 3.2685 40.9155 3.34652C40.9343 3.36826 40.9524 3.38777 40.9694 3.40568C40.9863 3.42359 41.0017 3.43933 41.0333 3.48514" stroke="#0E8C00" stroke-width="0.5" stroke-linecap="round"/>
<path d="M40.3955 2.32193C40.3876 2.31962 40.36 2.22901 40.316 2.15203C40.2666 2.06579 40.1305 2.03452 40.0182 1.98378C39.9543 1.95494 39.9219 1.8916 39.8594 1.81989C39.8067 1.75935 39.7345 1.73008 39.6746 1.67607C39.6225 1.62902 39.5359 1.57489 39.4093 1.47285C39.3844 1.45282 39.3725 1.44515 39.366 1.45076C39.3464 1.46768 39.3868 1.54354 39.4805 1.68112C39.6346 1.90745 39.7928 2.07208 39.8731 2.13887C39.9697 2.20729 40.0071 2.22988 40.0204 2.24233C40.0206 2.24801 40.0075 2.25242 39.9808 2.25859" stroke="#0E8C00" stroke-width="0.5" stroke-linecap="round"/>
<path d="M39.6072 2.04621C39.6072 2.04965 39.6072 2.05309 39.3529 1.92003C39.0987 1.78697 38.5902 1.51731 38.2869 1.36904C37.9836 1.22078 37.901 1.20209 37.7566 1.19219C37.6123 1.18228 37.4087 1.18173 37.257 1.1729C37.1053 1.16406 37.0118 1.14696 36.8016 1.07872C36.5914 1.01048 36.2674 0.891616 36.0427 0.821989C35.8179 0.752361 35.7023 0.735573 35.5661 0.726925C35.43 0.718277 35.2769 0.718277 35.082 0.731806C34.8871 0.745335 34.6552 0.772392 34.4672 0.78902C34.2792 0.805647 34.1422 0.811024 33.9817 0.831697C33.8212 0.85237 33.6413 0.888177 33.3137 1.01517C32.9861 1.14217 32.5163 1.35927 32.2251 1.50526C31.934 1.65125 31.8358 1.71954 31.7464 1.7873C31.5764 1.9162 31.4886 1.99544 31.4884 2.00823C31.4881 2.01985 31.5315 2.01384 31.5095 2.01625C31.4101 2.02709 31.2244 2.06031 31.0032 2.14339C30.7559 2.23626 30.6148 2.3384 30.5738 2.36851C30.5427 2.39136 30.3694 2.49002 30.1096 2.63621C29.8411 2.78732 29.6677 3.00447 29.6131 3.06593C29.569 3.11569 29.5321 3.18048 29.4937 3.26506C29.4489 3.36339 29.3495 3.413 29.2718 3.45943C29.204 3.49991 29.1052 3.54871 29.0309 3.59682C29.0047 3.62032 28.9856 3.64368 28.9721 3.66767C28.9661 3.6801 28.9618 3.69303 28.9406 3.72741" stroke="#0E8C00" stroke-width="0.5" stroke-linecap="round"/>
<path d="M28.9407 3.72729C28.9347 3.74613 28.9024 3.80193 28.8438 3.89837C28.8002 3.97015 28.7503 4.04414 28.6446 4.20014C28.589 4.28233 28.5501 4.36401 28.5059 4.44878C28.4747 4.50863 28.4431 4.59256 28.4303 4.66394C28.4271 4.69923 28.4243 4.74075 28.4194 4.7848C28.416 4.80623 28.4107 4.82581 28.3806 4.86452" stroke="#0E8C00" stroke-width="0.5" stroke-linecap="round"/>
<path d="M29.0158 3.50335C29.0124 3.50335 29.009 3.50335 29.0084 3.49485C28.9994 3.37292 29.1759 3.22538 29.2156 3.14907C29.2989 2.98871 29.4692 2.8258 29.5595 2.72991C29.6294 2.65559 29.735 2.59027 29.7875 2.55309C29.8426 2.51407 29.8941 2.4665 29.949 2.42105C29.9927 2.38476 30.1111 2.3189 30.2921 2.2275C30.3824 2.18191 30.4735 2.14618 30.6058 2.07663C30.7382 2.00708 30.91 1.90691 31.0082 1.85022C31.1065 1.79353 31.1259 1.78337 31.2777 1.71131C31.4296 1.63926 31.7132 1.50563 32.0137 1.38522C32.3141 1.26481 32.6226 1.16166 32.8554 1.0957C33.0881 1.02974 33.2358 1.0041 33.3767 0.986157C33.5176 0.968211 33.6473 0.958736 33.7809 0.948975" stroke="#0E8C00" stroke-width="0.5" stroke-linecap="round"/>
<path d="M39.228 1.36729C39.1221 1.31872 38.875 1.20953 38.7973 1.19201C38.7414 1.17941 38.5602 1.10181 38.2609 0.971153C38.1117 0.906034 37.9722 0.834084 37.8633 0.787592C37.6847 0.711374 37.5521 0.689972 37.4258 0.673002C37.3535 0.663293 37.2643 0.654561 37.0527 0.624999C36.8411 0.595437 36.5097 0.546128 36.2702 0.501595C36.0307 0.457063 35.8932 0.418801 35.7421 0.394691C35.4325 0.345305 35.2132 0.357416 35.1159 0.368751C34.964 0.386447 34.8451 0.455329 34.695 0.526391C34.6657 0.540268 34.6512 0.548531 34.6703 0.553313C34.7406 0.57093 34.9069 0.547897 35.1322 0.529386C35.3657 0.5102 35.51 0.53034 35.5947 0.549565C35.6584 0.564007 35.7626 0.593653 36.0885 0.713818C36.4143 0.833983 36.9582 1.04522 37.2629 1.15822C37.6135 1.28825 37.685 1.28817 37.7208 1.28486C37.739 1.28318 37.7564 1.27493 37.7649 1.26461C37.7811 1.24514 37.7031 1.17201 37.585 1.08114C37.5095 1.02302 37.4507 1.00192 37.1723 0.90731C36.9196 0.821403 36.4426 0.652735 36.1687 0.561325C35.8947 0.469916 35.839 0.459386 35.5189 0.460247C35.1989 0.461107 34.6163 0.473677 34.1848 0.505982C33.7532 0.538288 33.4903 0.589948 33.3386 0.621446C33.1059 0.669727 33.0642 0.693887 32.9104 0.775386C32.7732 0.848103 32.5192 0.990757 32.3346 1.09714C31.9223 1.34777 31.8872 1.3716 31.8624 1.39167C31.85 1.40298 31.838 1.41657 31.8191 1.44807" stroke="#0E8C00" stroke-width="0.5" stroke-linecap="round"/>
<path d="M34.9777 0.375366C34.9608 0.377293 34.8978 0.373781 34.7892 0.373793C34.6889 0.373803 34.5925 0.370103 34.5229 0.351154C34.4866 0.341273 34.4041 0.346964 34.1555 0.386944C33.9666 0.417309 33.6588 0.51197 33.4727 0.558996C33.1618 0.637527 33.0124 0.64087 32.9038 0.671412C32.7903 0.703324 32.6255 0.776264 32.5309 0.820413C32.4691 0.84929 32.3449 0.926182 32.2305 0.981819C32.1035 1.04358 31.933 1.14851 31.777 1.24868C31.5511 1.39371 31.487 1.42739 31.3992 1.47351C31.2217 1.56677 31.0633 1.67617 30.8419 1.79032C30.7474 1.83901 30.6906 1.85169 30.6178 1.89789C30.5624 1.9416 30.5154 1.9788 30.4695 2.0162C30.458 2.02621 30.4469 2.03776 30.4137 2.05044" stroke="#0E8C00" stroke-width="0.5" stroke-linecap="round"/>
<path d="M28.3671 72.3047L20.8882 70.3057L22.0093 64.8909L29.4881 66.8899L28.3671 72.3047Z" fill="#0F9400"/>
</svg>
