<svg width="133" height="49" viewBox="0 0 133 49" fill="none" xmlns="http://www.w3.org/2000/svg">
<rect width="69" height="18" transform="matrix(-1 0 0 1 114 16)" fill="#0E8C00"/>
<path d="M127 34H35V37V42V46.5V49H127V34Z" fill="#0A6500"/>
<ellipse cx="8" cy="7.5" rx="8" ry="7.5" transform="matrix(-1 0 0 1 133 34)" fill="#0A6500"/>
<ellipse cx="8" cy="7.5" rx="8" ry="7.5" transform="matrix(-1 0 0 1 44 34)" fill="#0A6500"/>
<rect width="42" height="8" transform="matrix(-1 0 0 1 47 15)" fill="#0E8C00"/>
<ellipse cx="4.5" cy="4" rx="4.5" ry="4" transform="matrix(-1 0 0 1 9 15)" fill="#063F00"/>
<circle cx="5" cy="5" r="5" transform="matrix(-1 0 0 1 131 36)" fill="#074A00"/>
<circle cx="5" cy="5" r="5" transform="matrix(-1 0 0 1 118 36)" fill="#074A00"/>
<circle cx="5" cy="5" r="5" transform="matrix(-1 0 0 1 105 36)" fill="#074A00"/>
<circle cx="5" cy="5" r="5" transform="matrix(-1 0 0 1 92 36)" fill="#074A00"/>
<circle cx="5" cy="5" r="5" transform="matrix(-1 0 0 1 79 36)" fill="#074A00"/>
<circle cx="5" cy="5" r="5" transform="matrix(-1 0 0 1 66 36)" fill="#074A00"/>
<circle cx="5" cy="5" r="5" transform="matrix(-1 0 0 1 53 36)" fill="#074A00"/>
<circle cx="5" cy="5" r="5" transform="matrix(-1 0 0 1 40 36)" fill="#074A00"/>
<path d="M49.5 9L45.5 16.5H114V3.5H95.5L78.5 0L59 3.5L49.5 9Z" fill="#0E8C00"/>
</svg>
