<svg width="62" height="81" viewBox="0 0 62 81" fill="none" xmlns="http://www.w3.org/2000/svg">
<line x1="14.0534" y1="79.9367" x2="19.4064" y2="51.9367" stroke="#EFE9C9" stroke-width="6"/>
<line y1="-3" x2="28.5071" y2="-3" transform="matrix(-0.18778 -0.982211 -0.982211 0.18778 31.3531 80.5)" stroke="#EFE9C9" stroke-width="6"/>
<line x1="48.1851" y1="45.2194" x2="30.1851" y2="26.2193" stroke="#EFE9C9" stroke-width="5"/>
<rect x="16" y="23.5" width="16" height="31" fill="#FF2020"/>
<rect x="46.8891" y="37.1821" width="4" height="7" transform="rotate(24.3767 46.8891 37.1821)" fill="#632323"/>
<rect x="45.8929" y="34.535" width="8" height="2" transform="rotate(24.3767 45.8929 34.535)" fill="#632323"/>
<rect x="55.1438" y="18.9651" width="4" height="18" transform="rotate(24.3767 55.1438 18.9651)" fill="#D5D5D5"/>
<path d="M58.7872 20.616L55.1438 18.9651L59.4419 14.3255L58.7872 20.616Z" fill="#D5D5D5"/>
<line x1="36.6726" y1="32.7286" x2="29.8316" y2="25.5731" stroke="#9F9F9F" stroke-width="6"/>
<line x1="5.82553" y1="49.021" x2="18.7397" y2="26.2565" stroke="#EFE9C9" stroke-width="5"/>
<line x1="14.4163" y1="33.6643" x2="19.2617" y2="25.0316" stroke="#9F9F9F" stroke-width="6"/>
<path d="M18 76.5L11.1429 75.5L10 79.5L16.8571 80.5L18 76.5Z" fill="#632323" stroke="#632323" stroke-width="0.1"/>
<path d="M30 76.5L36.8571 75.5L38 79.5L31.1429 80.5L30 76.5Z" fill="#632323" stroke="#632323" stroke-width="0.1"/>
<path d="M22 54.5L20.5 62H17H14.5L15.5 54.5H22Z" fill="#FF2020" stroke="#FF2020" stroke-width="0.1"/>
<path d="M26 54.5L27.6 62.5H31.3333H34L32.9333 54.5H26Z" fill="#FF2020"/>
<path d="M32 51.5L33 54.5H32V51.5Z" fill="#FF2020"/>
<path d="M16 53.5L15.5 54.5H16V53.5Z" fill="#FF2020" stroke="#FF2020" stroke-width="0.1"/>
<rect x="16" y="23.5" width="16" height="23" fill="#9F9F9F"/>
<circle cx="24.5" cy="17" r="7.5" fill="#EFE9C9"/>
<path d="M18 12.5C20.0417 5.489 28.524 3.56843 31 12.5" stroke="#747474"/>
<path d="M30.5 16L31 12.5L32 16.5L31.5 20L29.5 17.5L30.5 16Z" fill="#747474"/>
<path d="M19 12.5H31M31 12.5L30.5 16L29.5 17.5L31.5 20L32 16.5L31 12.5Z" stroke="#747474"/>
<path d="M18.6154 15.7667L18.0769 12.5L17 16.2333L17.5385 19.5L19.6923 17.1667L18.6154 15.7667Z" fill="#747474"/>
<path d="M31 12.5H18.0769M18.0769 12.5L18.6154 15.7667L19.6923 17.1667L17.5385 19.5L17 16.2333L18.0769 12.5Z" stroke="#747474"/>
<path d="M19.5 7.5L21.5 6.5L21 6V5L22 4L23 3.5H24.5H26.5L27.5 4.5L29 3.5L28 1.5L26 0.5H22.5L20 2L18.5 4L19.5 7.5Z" fill="#FF0000" stroke="#FF0000"/>
<rect y="34.5" width="14" height="21" fill="#DC0000"/>
<path d="M18.7146 11.8396C18.8943 11.8332 19.3955 11.7862 19.9701 11.7482C20.1333 11.7373 20.2817 11.69 20.83 11.6633C21.3784 11.6367 22.3214 11.6232 22.8295 11.6129C23.3825 11.6017 23.5273 11.5825 23.8067 11.5547C23.9875 11.5367 24.2462 11.4977 24.8613 11.5012C25.4764 11.5047 26.4398 11.5486 27.2367 11.6337C28.0336 11.7187 28.6349 11.8436 28.967 11.9111C29.3432 11.9875 29.4216 11.9965 29.4818 11.991C29.5121 11.9882 29.5343 11.9538 29.5109 11.8536C29.3915 11.3436 29.2308 11.183 29.1439 11.003C28.9854 10.6747 28.9126 10.4519 28.793 10.1968C28.7428 10.0898 28.6392 9.9021 28.4296 9.61C28.0097 9.02505 27.6806 8.79409 27.476 8.62648C27.2006 8.40083 26.6793 8.1714 26.5226 8.08754C26.3273 7.98305 26.1238 7.9003 25.9716 7.83794C25.6998 7.72659 25.5093 7.74663 25.1888 7.72386C24.9331 7.70569 24.629 7.65714 24.2155 7.65565C24.0291 7.65497 23.8952 7.70875 23.6574 7.79139C23.2378 7.93719 23.0864 8.01574 22.9362 8.06682C22.7084 8.1443 22.4956 8.29023 22.1651 8.50923C21.9828 8.63007 21.816 8.72356 21.6341 8.82311C21.2298 9.04446 21.079 9.1291 20.8858 9.32435C20.768 9.44346 20.6623 9.57853 20.5336 9.69951C20.3989 9.82604 20.2524 9.94418 20.1276 10.0557C20.0103 10.1607 19.9149 10.2173 19.8818 10.2851C19.862 10.3257 19.8666 10.3904 19.888 10.4253C19.929 10.4925 20.2277 10.4746 20.6466 10.478C20.9942 10.4809 21.1935 10.4897 21.4853 10.4997C22.1982 10.5242 22.7145 10.5108 22.8005 10.522C22.8963 10.5345 23.1556 10.5664 23.7893 10.6448C24.2152 10.6976 24.8529 10.7782 25.4597 10.8505C26.0664 10.9228 26.6228 10.9847 26.9559 11.0251C27.3827 11.0767 27.566 11.1025 27.6969 11.0872C27.7431 11.0818 27.7343 11.0289 27.7147 10.9839C27.6337 10.7983 27.2519 10.5268 26.6908 10.1069C26.4379 9.91765 26.2286 9.80575 25.9691 9.68003C25.4085 9.40853 25.029 9.2776 24.7875 9.24748C24.2806 9.18427 23.9037 9.21557 23.8217 9.23527C23.5012 9.31231 22.7527 9.57024 22.4798 9.67741C22.3306 9.73598 22.1879 9.89258 21.9908 10.0493C21.7303 10.2565 21.4413 10.4382 21.273 10.5169C21.2372 10.5348 21.2045 10.5563 21.1746 10.5763C21.1448 10.5964 21.1188 10.6144 21.028 10.6374" stroke="#747474" stroke-width="2" stroke-linecap="round"/>
<ellipse cx="24.5" cy="5.5" rx="3.5" ry="2" fill="#FFFF00"/>
<path d="M18.2092 12.5835C18.1763 12.5853 18.0629 12.5598 17.9957 12.5212C17.9541 12.4973 17.892 12.4144 17.8174 12.3459C17.7975 12.3276 17.7778 12.3235 17.7598 12.3245C17.7225 12.3267 17.6929 12.3579 17.6473 12.3712C17.6259 12.3774 17.6089 12.3895 17.5963 12.4026C17.566 12.4343 17.5868 12.4991 17.5848 12.6103C17.5844 12.6347 17.582 12.6438 17.5845 12.6351C17.6052 12.5613 17.6047 12.4521 17.5978 12.3629C17.5971 12.3525 17.5834 12.3548 17.5765 12.3594C17.527 12.3922 17.5575 12.5092 17.5569 12.5706C17.5565 12.6145 17.5694 12.6533 17.5779 12.6958C17.5806 12.7089 17.5834 12.7248 17.5858 12.7389C17.5882 12.753 17.5902 12.7648 17.5965 12.7962" stroke="#747474" stroke-width="0.1" stroke-linecap="round"/>
<path d="M7 34.5V55.5" stroke="black"/>
<path d="M0 44.5H14" stroke="black"/>
</svg>
