<svg width="62" height="81" viewBox="0 0 62 81" fill="none" xmlns="http://www.w3.org/2000/svg">
<line y1="-3" x2="28.5071" y2="-3" transform="matrix(-0.18778 -0.982211 -0.982211 0.18778 44.2637 80.5)" stroke="#EFE9C9" stroke-width="6"/>
<line x1="26.964" y1="79.9367" x2="32.3171" y2="51.9367" stroke="#EFE9C9" stroke-width="6"/>
<line y1="-2.5" x2="26.1725" y2="-2.5" transform="matrix(0.687744 -0.725953 -0.725953 -0.687744 11.2637 43.5)" stroke="#EFE9C9" stroke-width="5"/>
<rect width="16" height="31" transform="matrix(-1 0 0 1 45.2637 23.5)" fill="#FF2020"/>
<rect width="4" height="7" transform="matrix(-0.910852 0.412734 0.412734 0.910852 14.3745 37.1821)" fill="#632323"/>
<rect width="8" height="2" transform="matrix(-0.910852 0.412734 0.412734 0.910852 15.3708 34.535)" fill="#632323"/>
<rect width="4" height="18" transform="matrix(-0.910852 0.412734 0.412734 0.910852 6.11987 18.9651)" fill="#D5D5D5"/>
<path d="M2.47643 20.616L6.11983 18.9651L1.82173 14.3255L2.47643 20.616Z" fill="#D5D5D5"/>
<line y1="-3" x2="9.89949" y2="-3" transform="matrix(0.691044 -0.722813 -0.722813 -0.691044 22.4227 30.6555)" stroke="#9F9F9F" stroke-width="6"/>
<line y1="-2.5" x2="26.1725" y2="-2.5" transform="matrix(-0.493425 -0.869788 -0.869788 0.493425 53.2637 50.2546)" stroke="#EFE9C9" stroke-width="5"/>
<line y1="-3" x2="9.89949" y2="-3" transform="matrix(-0.489458 -0.872027 -0.872027 0.489458 44.2313 35.1326)" stroke="#9F9F9F" stroke-width="6"/>
<path d="M43.2637 76.5L50.1208 75.5L51.2637 79.5L44.4065 80.5L43.2637 76.5Z" fill="#632323" stroke="#632323" stroke-width="0.1"/>
<path d="M31.2637 76.5L24.4065 75.5L23.2637 79.5L30.1208 80.5L31.2637 76.5Z" fill="#632323" stroke="#632323" stroke-width="0.1"/>
<path d="M39.2637 54.5L40.7637 62H44.2637H46.7637L45.7637 54.5H39.2637Z" fill="#FF2020" stroke="#FF2020" stroke-width="0.1"/>
<path d="M35.2637 54.5L33.6637 62.5H29.9303H27.2637L28.3303 54.5H35.2637Z" fill="#FF2020"/>
<path d="M29.2637 51.5L28.2637 54.5H29.2637V51.5Z" fill="#FF2020"/>
<path d="M45.2637 53.5L45.7637 54.5H45.2637V53.5Z" fill="#FF2020" stroke="#FF2020" stroke-width="0.1"/>
<rect width="16" height="23" transform="matrix(-1 0 0 1 45.2637 23.5)" fill="#9F9F9F"/>
<circle cx="7.5" cy="7.5" r="7.5" transform="matrix(-1 0 0 1 44.2637 9.5)" fill="#EFE9C9"/>
<path d="M43.2637 12.5C41.222 5.489 32.7397 3.56843 30.2637 12.5" stroke="#747474"/>
<path d="M30.7637 16L30.2637 12.5L29.2637 16.5L29.7637 20L31.7637 17.5L30.7637 16Z" fill="#747474"/>
<path d="M42.2637 12.5H30.2637M30.2637 12.5L30.7637 16L31.7637 17.5L29.7637 20L29.2637 16.5L30.2637 12.5Z" stroke="#747474"/>
<path d="M42.6483 15.7667L43.1867 12.5L44.2637 16.2333L43.7252 19.5L41.5714 17.1667L42.6483 15.7667Z" fill="#747474"/>
<path d="M30.2637 12.5H43.1867M43.1867 12.5L42.6483 15.7667L41.5714 17.1667L43.7252 19.5L44.2637 16.2333L43.1867 12.5Z" stroke="#747474"/>
<path d="M41.7637 7.5L39.7637 6.5L40.2637 6V5L39.2637 4L38.2637 3.5H36.7637H34.7637L33.7637 4.5L32.2637 3.5L33.2637 1.5L35.2637 0.5H38.7637L41.2637 2L42.7637 4L41.7637 7.5Z" fill="#FF0000" stroke="#FF0000"/>
<rect width="14" height="21" transform="matrix(-1 0 0 1 61.2637 34.5)" fill="#DC0000"/>
<path d="M42.5491 11.8396C42.3694 11.8332 41.8682 11.7862 41.2936 11.7482C41.1304 11.7373 40.982 11.69 40.4337 11.6633C39.8853 11.6367 38.9423 11.6232 38.4342 11.6129C37.8812 11.6017 37.7364 11.5825 37.457 11.5547C37.2762 11.5367 37.0175 11.4977 36.4024 11.5012C35.7873 11.5047 34.8239 11.5486 34.027 11.6337C33.2301 11.7187 32.6288 11.8436 32.2967 11.9111C31.9205 11.9875 31.8421 11.9965 31.7819 11.991C31.7516 11.9882 31.7294 11.9538 31.7528 11.8536C31.8722 11.3436 32.0329 11.183 32.1198 11.003C32.2783 10.6747 32.3511 10.4519 32.4707 10.1968C32.5209 10.0898 32.6245 9.9021 32.8341 9.61C33.254 9.02505 33.5831 8.79409 33.7877 8.62648C34.0631 8.40083 34.5844 8.1714 34.7411 8.08754C34.9364 7.98305 35.1399 7.9003 35.2921 7.83794C35.5639 7.72659 35.7544 7.74663 36.0749 7.72386C36.3306 7.70569 36.6347 7.65714 37.0482 7.65565C37.2346 7.65497 37.3685 7.70875 37.6063 7.79139C38.0259 7.93719 38.1773 8.01574 38.3275 8.06682C38.5553 8.1443 38.7681 8.29023 39.0986 8.50923C39.2809 8.63007 39.4477 8.72356 39.6296 8.82311C40.0339 9.04446 40.1847 9.1291 40.3779 9.32435C40.4957 9.44346 40.6014 9.57853 40.7301 9.69951C40.8648 9.82604 41.0113 9.94418 41.1361 10.0557C41.2534 10.1607 41.3488 10.2173 41.3819 10.2851C41.4017 10.3257 41.3971 10.3904 41.3757 10.4253C41.3347 10.4925 41.036 10.4746 40.6171 10.478C40.2695 10.4809 40.0702 10.4897 39.7784 10.4997C39.0655 10.5242 38.5492 10.5108 38.4632 10.522C38.3674 10.5345 38.1081 10.5664 37.4744 10.6448C37.0485 10.6976 36.4108 10.7782 35.804 10.8505C35.1973 10.9228 34.6409 10.9847 34.3078 11.0251C33.881 11.0767 33.6977 11.1025 33.5668 11.0872C33.5206 11.0818 33.5294 11.0289 33.549 10.9839C33.63 10.7983 34.0118 10.5268 34.5729 10.1069C34.8258 9.91765 35.0351 9.80575 35.2946 9.68003C35.8552 9.40853 36.2347 9.2776 36.4762 9.24748C36.9831 9.18427 37.36 9.21557 37.442 9.23527C37.7626 9.31231 38.511 9.57024 38.7839 9.67741C38.9331 9.73598 39.0758 9.89258 39.2729 10.0493C39.5334 10.2565 39.8224 10.4382 39.9907 10.5169C40.0265 10.5348 40.0592 10.5563 40.0891 10.5763C40.1189 10.5964 40.1449 10.6144 40.2357 10.6374" stroke="#747474" stroke-width="2" stroke-linecap="round"/>
<ellipse cx="3.5" cy="2" rx="3.5" ry="2" transform="matrix(-1 0 0 1 40.2637 3.5)" fill="#FFFF00"/>
<path d="M43.0545 12.5835C43.0874 12.5853 43.2008 12.5598 43.268 12.5212C43.3095 12.4973 43.3717 12.4144 43.4463 12.3459C43.4661 12.3276 43.4859 12.3235 43.5039 12.3245C43.5412 12.3267 43.5708 12.3579 43.6163 12.3712C43.6378 12.3774 43.6548 12.3895 43.6674 12.4026C43.6977 12.4343 43.6769 12.4991 43.6788 12.6103C43.6793 12.6347 43.6816 12.6438 43.6792 12.6351C43.6585 12.5613 43.659 12.4521 43.6658 12.3629C43.6666 12.3525 43.6803 12.3548 43.6872 12.3594C43.7367 12.3922 43.7062 12.5092 43.7067 12.5706C43.7072 12.6145 43.6943 12.6533 43.6858 12.6958C43.6831 12.7089 43.6803 12.7248 43.6779 12.7389C43.6755 12.753 43.6735 12.7648 43.6671 12.7962" stroke="#747474" stroke-width="0.1" stroke-linecap="round"/>
<path d="M54.2637 34.5V55.5" stroke="black"/>
<path d="M61.2637 44.5H47.2637" stroke="black"/>
</svg>
