<svg width="57" height="75" viewBox="0 0 57 75" fill="none" xmlns="http://www.w3.org/2000/svg">
<line y1="-3" x2="32.4877" y2="-3" transform="matrix(-0.226334 -0.97405 -0.97405 0.226334 45.3129 74.6447)" stroke="#EFE9C9" stroke-width="6"/>
<line x1="24.9038" y1="74.048" x2="32.2568" y2="42.4034" stroke="#EFE9C9" stroke-width="7"/>
<line y1="-2.5" x2="26.1725" y2="-2.5" transform="matrix(0.687744 -0.725953 -0.725953 -0.687744 10.3129 33)" stroke="#EFE9C9" stroke-width="5"/>
<line x1="54.1019" y1="38.3142" x2="41.8873" y2="15.1668" stroke="#EFE9C9" stroke-width="5"/>
<rect width="16" height="31" transform="matrix(-1 0 0 1 44.3129 14)" fill="#EFE9C9"/>
<path d="M44.3129 41L48.8129 50.5L45.3129 48.5L44.3129 52L42.3129 48.5L39.8129 53.5L37.8129 48.5L35.3129 53.5L33.3129 49L30.3129 54L29.3129 49L24.8129 53.5L27.8129 41H44.3129Z" fill="#009A0A" stroke="#009A0A"/>
<path d="M14.2063 29.385L16.1691 32.205L13.9203 33.6682L11.9574 30.8483L7.88873 27.3499L2.89221 21.6385L1.07233 16.677L1.14382 15.6062L1.71496 15.1065L2.2861 14.6069L3.92803 14.1787L8.53213 17.7128L13.3857 25.5658L14.2063 29.385Z" fill="#632323" stroke="#632323"/>
<circle cx="7.5" cy="7.5" r="7.5" transform="matrix(-1 0 0 1 43.3129 0)" fill="#EFE9C9"/>
</svg>
