<svg width="57" height="75" viewBox="0 0 57 75" fill="none" xmlns="http://www.w3.org/2000/svg">
<line x1="8.07785" y1="73.9657" x2="15.4309" y2="42.321" stroke="#EFE9C9" stroke-width="6"/>
<line y1="-3.5" x2="32.4877" y2="-3.5" transform="matrix(-0.226334 -0.97405 -0.97405 0.226334 28 74.8402)" stroke="#EFE9C9" stroke-width="7"/>
<line x1="44.1851" y1="34.7194" x2="26.1851" y2="15.7193" stroke="#EFE9C9" stroke-width="5"/>
<line y1="-2.5" x2="26.1725" y2="-2.5" transform="matrix(0.466696 -0.884418 -0.884418 -0.466696 0 37.1475)" stroke="#EFE9C9" stroke-width="5"/>
<rect x="12" y="14" width="16" height="31" fill="#EFE9C9"/>
<path d="M12 41L7.5 50.5L11 48.5L12 52L14 48.5L16.5 53.5L18.5 48.5L21 53.5L23 49L26 54L27 49L31.5 53.5L28.5 41H12Z" fill="#009A0A" stroke="#009A0A"/>
<path d="M42.1067 29.385L40.1438 32.205L42.3926 33.6682L44.3555 30.8483L48.4242 27.3499L53.4207 21.6385L55.2406 16.677L55.1691 15.6062L54.598 15.1065L54.0268 14.6069L52.3849 14.1787L47.7808 17.7128L42.9273 25.5658L42.1067 29.385Z" fill="#632323" stroke="#632323"/>
<circle cx="20.5" cy="7.5" r="7.5" fill="#EFE9C9"/>
</svg>
